<svg xmlns="http://www.w3.org/2000/svg">
   
  <symbol id="geo" viewBox="0 0 32 32">
    <title>geolacation</title>
    <path d="M15.8,0c-5.2,0-9.3,4.2-9.3,9.3c0,5.2,9.3,22.7,9.3,22.7s9.3-17.5,9.3-22.7C25.1,4.2,20.9,0,15.8,0z M15.8,14.2
	  c-2.9,0-5.2-2.3-5.2-5.2s2.3-5.2,5.2-5.2S21,6.2,21,9S18.6,14.2,15.8,14.2z"/>
  </symbol>

  <symbol id="tel" viewBox="0 0 32 32">
    <title>telephone</title>
    <path class="st0" d="M7.7,3.3l4.3,7.5c0,0-3.1,2.4,0.3,8.2s6.7,3.8,6.7,3.8l4.4,7.4c0,0-0.6,0.4-1.4,0.8S16,33.7,8.4,21
		C0.9,8,5.3,4.8,6.4,4.1C7,3.7,7.7,3.3,7.7,3.3z"/>
	  <path class="st0" d="M16.2,9.3l-2.5,1.5c-0.4,0.2-0.9,0.1-1.1-0.3L8.3,3.1C8.1,2.7,8.2,2.2,8.6,2l2.5-1.5c0.4-0.2,0.9-0.1,1.1,0.3
		l4.2,7.3C16.7,8.5,16.6,9,16.2,9.3z"/>
	  <path class="st0" d="M27.5,28.7l-2.5,1.5c-0.4,0.2-0.9,0.1-1.1-0.3l-4.2-7.3c-0.2-0.4-0.1-0.9,0.3-1.1l2.5-1.5
		c0.4-0.2,0.9-0.1,1.1,0.3l4.2,7.3C28,27.9,27.8,28.4,27.5,28.7z"/>
  </symbol>
  
  <symbol id="facebook" viewBox="0 0 32 32">
    <title>facebook</title>
    <path d="M18.4,7.9v3.9h5.7l0,0.4l-0.7,5.2h-5V32h-5.8V17.4h-5v-5.6h5V7c0-3.6,2.7-6.9,6.4-7c2.5,0,5.3,0.3,5.3,0.3v5h-3
	  c-0.4,0-0.7,0-1.1,0.2C19.1,5.8,18.4,6.7,18.4,7.9C18.4,7.9,18.4,7.9,18.4,7.9z"/>
  </symbol>

  <symbol id="vk" viewBox="0 0 32 32">
    <title>vkontakte</title>
    <path d="M20,35.4C9.8,35,0.8,14,0.4,13.1c0-0.1-0.3-0.8,0.1-1.5c0.2-0.3,0.6-0.8,1.4-0.9c1.5-0.3,6.4,0,6.9,0
	  c0.6,0,1.8,0.4,2.3,1.7c3.1,6.6,4.9,8.4,5.5,8.9c0.1,0,0.1,0,0.2,0c0,0,0.1,0,0.1-0.1c0.2-0.3,0.5-1,0.4-2.6l-0.2-4.4
	  c0-0.1-0.1-1.2-1.9-1.4l-0.5-0.1l-0.1-0.5c-0.1-0.5-0.1-1.6,1.6-2.3c0.6-0.2,1.2-0.4,1.9-0.4h6.2c0.8,0,2.8,0.5,2.8,3v7.2
	  c0,0.4,0,1,0.2,1.4c1.6-0.8,4-5.4,5.7-9.1c0.3-0.7,0.9-1.2,1.7-1.4c0.4-0.1,0.8-0.1,1.3-0.1c0,0,5-0.1,6.5,0c1.2,0,2,0.7,2.2,1.8
	  c0.1,0.6,0,1.2-0.4,1.7c-0.4,0.7-6.2,8.9-6.2,8.9C38,23,37.6,23.5,37.6,24c0,0.3,0.2,0.6,0.5,0.9c1.6,1.4,5.5,5.5,6.1,6.6
	  c0.3,0.5,0.4,1.1,0.3,1.8c-0.1,0.8-0.7,1.5-1.4,1.7c-0.6,0.2-1.3,0.3-2.2,0.3c-0.6,0-4.4,0.2-5.5,0.2c-1.8,0-3.8-2.1-4-2.3L29,30.2
	  c-0.2-0.3-0.5-0.4-0.8-0.5c-0.1,0-0.3-0.1-0.5,0c-0.1,0.1-0.2,0.3-0.3,0.7l-0.6,3.2c-0.1,0.6-0.9,1.8-2.5,1.9h0
	  C23.9,35.4,21.5,35.4,20,35.4z M24.3,34.1L24.3,34.1c1,0,1.2-0.7,1.2-0.8l0.6-3.2c0.1-0.8,0.5-1.3,1-1.6c0.3-0.2,0.8-0.3,1.6-0.1
	  c0.5,0.2,1,0.5,1.4,0.9l2.5,2.9c0.6,0.7,2,1.8,3,1.8c1,0,4.8-0.2,5.4-0.2c1,0,1.5-0.1,1.8-0.2c0.2-0.1,0.4-0.3,0.5-0.5
	  c0-0.4,0-0.7-0.2-0.9c-0.5-0.8-4.1-4.8-5.8-6.2c-0.6-0.5-1-1.2-1-1.8c-0.1-1.1,0.7-1.9,0.8-2l3.8-5.2c1.1-1.5,1.9-2.9,2.3-3.6
	  c0.1-0.2,0.2-0.5,0.2-0.9c0-0.3-0.1-0.6-0.8-0.6c0,0,0,0,0,0c-1.5,0-3.7,0-5.2,0l-1.3,0c0,0,0,0,0,0c-0.4,0-0.7,0-1,0.1
	  c-0.3,0.1-0.6,0.3-0.7,0.6c-1.4,3.2-4.1,8.6-6.1,9.8c-0.7,0.4-1.5,0.2-1.9-0.5c-0.5-0.8-0.5-2-0.4-2.1l0-7.2c0-1.6-1.3-1.7-1.5-1.7
	  h-6.2c-0.5,0-1,0.1-1.4,0.3c-0.3,0.1-0.5,0.3-0.7,0.4c1.8,0.5,2.4,1.8,2.4,2.6l0.2,4.4c0,1.6-0.2,2.7-0.7,3.5
	  c-0.2,0.4-0.6,0.6-1,0.7c-0.4,0.1-0.8,0-1.2-0.3c-1.1-0.8-3-3.1-5.9-9.4C9.5,12.1,8.8,12,8.8,12c-1.5-0.1-5.5-0.2-6.6,0
	  c-0.3,0.1-0.4,0.1-0.5,0.2c-0.1,0.1,0,0.3,0,0.4c0.1,0.2,9,21,18.4,21.4C20.5,34.1,23.5,34.1,24.3,34.1z"/>
  </symbol>

  <symbol id="instagram" viewBox="0 0 32 32">
    <title>instagram</title>
    <path d="M18.94586,6.28931a6.60561,6.60561,0,0,0-.41833-2.18463,4.41189,4.41189,0,0,0-1.03809-1.59412,4.41189,4.41189,0,0,0-1.59412-1.03809,6.60561,6.60561,0,0,0-2.18463-.41833C12.75073,1.01038,12.44427,1,10,1s-2.75073.01038-3.71069,0.05414a6.60561,6.60561,0,0,0-2.18463.41833A4.41189,4.41189,0,0,0,2.51056,2.51056,4.41189,4.41189,0,0,0,1.47247,4.10468a6.60561,6.60561,0,0,0-.41833,2.18463C1.01038,7.24927,1,7.55573,1,10s0.01038,2.75073.05414,3.71069a6.60561,6.60561,0,0,0,.41833,2.18463,4.41189,4.41189,0,0,0,1.03809,1.59412,4.41109,4.41109,0,0,0,1.59412,1.03809,6.60561,6.60561,0,0,0,2.18463.41833C7.24927,18.98969,7.55573,19,10,19s2.75073-.01031,3.71069-0.05414a6.60561,6.60561,0,0,0,2.18463-.41833,4.60208,4.60208,0,0,0,2.6322-2.6322,6.60561,6.60561,0,0,0,.41833-2.18463C18.98962,12.75073,19,12.44427,19,10S18.98962,7.24927,18.94586,6.28931Zm-1.61993,7.34747a4.97824,4.97824,0,0,1-.30994,1.67114A2.98017,2.98017,0,0,1,15.30792,17.016a4.9786,4.9786,0,0,1-1.67114.30994C12.68787,17.3692,12.40326,17.37836,10,17.37836s-2.68787-.00916-3.63678-0.05243A4.9786,4.9786,0,0,1,4.69208,17.016a2.78769,2.78769,0,0,1-1.03485-.67322A2.78769,2.78769,0,0,1,2.984,15.30792a4.97824,4.97824,0,0,1-.30994-1.67114C2.6308,12.68774,2.62164,12.40314,2.62164,10s0.00916-2.68774.05243-3.63678A4.9786,4.9786,0,0,1,2.984,4.69208a2.78769,2.78769,0,0,1,.67322-1.03485A2.78769,2.78769,0,0,1,4.69208,2.984a4.9786,4.9786,0,0,1,1.67114-.30994C7.31226,2.6308,7.59686,2.62164,10,2.62164s2.68774,0.00916,3.63678.05243a4.9786,4.9786,0,0,1,1.67114.30994,2.78769,2.78769,0,0,1,1.03485.67322A2.78769,2.78769,0,0,1,17.016,4.69208a4.9786,4.9786,0,0,1,.30994,1.67114c0.04327,0.949.05243,1.2337,0.05243,3.63678S17.3692,12.68774,17.32593,13.63678ZM10,5.37836A4.62164,4.62164,0,1,0,14.62164,10,4.62169,4.62169,0,0,0,10,5.37836ZM10,13a3,3,0,1,1,3-3A3,3,0,0,1,10,13Zm5.88422-7.8042a1.08,1.08,0,1,1-1.08-1.08A1.08,1.08,0,0,1,15.88422,5.1958Z" transform="translate(-1 -1)"/>
  </symbol>
  
  <symbol id="twitter" viewBox="0 0 32 32">
    <title>twitter</title>
    <path d="M15.4,38.6c-5.4,0-11.7-3.5-12-3.7l-3.2-1.8l3.7,0.2c0.1,0,5.8,0.2,9.6-2c-4.6-1.3-6-5.7-6.1-5.9L7,24.2l1.1,0
	  c-3.9-2.8-3.5-7.1-3.5-7.2L4.7,16l1.1,0.4c0.1,0,0.3,0.1,0.4,0.1C2.9,11.9,5.7,7,5.8,6.9l0.6-1.1l0.9,1c0.1,0.1,6.4,7.4,14.9,7.9
	  c-0.5-5.5,4-8.4,4.2-8.5c0,0,5.7-3.7,11.1,1.2c0.7-0.2,2.7-1,4.3-1.7l1.8-0.8l-0.6,1.9c0,0.1-0.4,1.2-1.4,2.5
	  c0.4-0.1,0.9-0.2,1.4-0.3l2.3-0.5l-1.4,1.9c-1.4,1.9-3,3.3-3.7,3.9c-0.1,3.3-1.6,23.3-24,24.4C15.9,38.6,15.6,38.6,15.4,38.6z
	  M7.4,34.9c2.4,1,5.7,2.1,8.6,1.9c22.6-1.1,22.3-22.1,22.3-23l0-0.5l0.4-0.3c0,0,0.8-0.6,1.9-1.7c-1.2,0.3-1.8,0.4-2.3,0.1l-1-0.7
	  l1-0.7c0.7-0.5,1.3-1.1,1.7-1.6c-1.5,0.6-2.5,0.9-3,0.8l-0.3,0L36.4,9c-4.5-4.3-9-1.4-9.2-1.3C27,7.8,23,10.4,24,15.4l0.2,1.1
	  l-1.1,0c0,0-0.1,0-0.1,0c-7.6,0-13.8-5.1-16.2-7.6c-0.6,1.8-1.2,5.3,2.6,8.3l1.8,1.4l-2.2,0.2c-0.6,0.1-1.7-0.2-2.5-0.4
	  c0.2,1.6,1.3,4.5,5.6,5.8l3.6,1.1l-3.7,0.6C11.3,26,10.4,26,9.6,26c0.8,1.4,2.6,3.6,6.1,3.9l2,0.1l-1.4,1.4
	  C13.9,33.7,10.2,34.6,7.4,34.9z"/>
  </symbol>

  <symbol id="youtube" viewBox="0 0 32 32">
    <title>youtube</title>
    
  </symbol>
	  <symbol id="mail" viewBox="0 0 32 32">
    <title>e-mail</title>
		<path d="M30.1,5.2H1.7l13.8,11.5c0.3,0.3,0.8,0.3,1.1,0L30.1,5.2z"/>
		<polygon class="st0" points="10.9,15.8 0,6.7 0,25.1 	"/>
		<polygon class="st0" points="21.1,15.7 32,25.1 32,6.5 	"/>
		<path class="st0" d="M19.4,17.2l-2.5,2.1c-0.2,0.2-0.5,0.3-0.8,0.3c-0.3,0-0.6-0.1-0.8-0.3l-2.5-2.1L1.6,26.8h28.9L19.4,17.2z"/>
  </symbol>

</svg>