<svg id="Layer_1" data-name="Layer 1" xmlns="http://www.w3.org/2000/svg" viewBox="0 0 40.2 22.9">
  <defs>
    <style>
      .cls-1 {
        fill: #010300;
      }
    </style>
  </defs>
  <title>vk</title>
  <path class="cls-1" d="M102.3,110.9h-4c-9.3-.4-17.7-20.4-17.7-20.4s-.4-1.1.9-1.4a45.6,45.6,0,0,1,6.3,0,1.8,1.8,0,0,1,1.6,1.2c2.8,6.1,4.5,8,5.3,8.6a.8.8,0,0,0,1.2-.2,4.9,4.9,0,0,0,.5-2.8l-.2-4.1s-.1-1.7-2.4-1.9c-.1-.8.5-1.2,1.1-1.5a3.9,3.9,0,0,1,1.5-.3h5.8a2,2,0,0,1,2,2.2v6.7a3.4,3.4,0,0,0,.3,1.6.7.7,0,0,0,.9.2c1.9-1.1,4.7-7,5.5-8.8a1.6,1.6,0,0,1,1.1-.9h7.2c1,0,1.3.6,1.4,1.1a1.9,1.9,0,0,1-.3,1.2,35.4,35.4,0,0,1-2.2,3.4l-3.6,4.9h0a1.8,1.8,0,0,0,.1,2.7,46.8,46.8,0,0,1,5.6,6,2,2,0,0,1,.2,1.3,1.2,1.2,0,0,1-.9,1l-1.9.2-5.1.2c-1.5,0-3.2-1.9-3.2-1.9l-2.4-2.7a2.2,2.2,0,0,0-1-.7c-.6-.2-1.3-.1-1.5,1.1l-.6,3A1.7,1.7,0,0,1,102.3,110.9Z" transform="translate(-80.6 -88)"/>
</svg>
