<svg xmlns="http://www.w3.org/2000/svg">

  <symbol id="paint" viewBox="0 0 658.25 714.85">
  <title>paints</title>
  <path d="M433.11,477c-1.06,1.65-2.18,3.27-3.16,5a18,18,0,0,0-2.49,6.7l6.57-4.92.74.94-1.65,2.85,3.6,1.88,3.75-2.12,8.07,4.35,4.66,7.3,5-2.19,3.14,2.39,2.92-1.79c.71,1.31,1.33,2.45,2.11,3.87l2.4.35-.87.92q5.76,5.6,11.52,11.2c.07.07,0,.33,0,.34,8.33,2.38,10.7,14.16,21.8,13-.43,3.5-.81,6.55-1.19,9.61l-2.59.41-3.59-7.26a5.83,5.83,0,0,0-2.12.57,46.85,46.85,0,0,0-7.7,4.44c-1.71,1.35-2.76,3.51-4.16,5.26s-3.07,3.75-4.58,5.58l-3.65-2.1-15.38,4.12c-.17.72-.61,2.64-1.06,4.56-3.83,2.21-7.5,4.53-10.71-.84-1.51,3.93-2.91,7.59-4.39,11.43h8.21L446,567,442.92,565l-3.59,4.13-2.54.29c-.77,5.1-1.37,9.07-2,13.42l-3.52-1.25,0,1-10.68.55-2.42-3.57-4.87.93-1.47-2.16-14.36,7.18,2.2,3.36-.83.38c.78,1.85,1.42,3.78,2.37,5.54s2.16,3.22,3.88,5.71l4.06,1.28,0-.07c.64.85,1.29,1.7,2.45,3.25h-6.3l5.86,3.9-17.47,2.92h-5.86c2.38,5.73-.22,12.47,6.27,15.23-.33,2.83-.63,5.37-1,8.73l-5.68,4.72,2.64,1.4v7.4l-3.71-1.11c-.66-1.66-1.34-3.35-2.37-5.92-3.17,4.4-6,8.39-8.9,12.39l-2.35-1.67,3.69,4.19c-.24,1.6-.6,3.91-.95,6.22l1.07.24,2-3.33,4.45.82c2.15,7.83,4,14.7,6,22l6.33-1.55,7,10.76,2.82.27c.7,1.34,1.34,2.58,2.37,4.58-1.47,1.56-3.45,3.06-4.59,5-1.67,2.93-2.65,6.24-4.09,9.31-.91,1.93-2.12,3.71-3.45,6l-6.59-4.58,7.35-7c-.13-.43-.41-1.42-1-3.64l-14.4-2.88-6.64-13.18-11.86-6.27.67-.62-15.24-13-1.05,1.07-2.05-5.91c-4.83-.79-9.31-1.93-13.82-2.07-2.11-.06-4.27,1.79-6.42,2.78.22,2.56.37,4.35.62,7.24l8.86-6.13,2.48,3.59-8.61,4.85-1.91,3.47c-3.41-3.9-10.83-.58-11.5-7.25l-11.79-13.29,8.41-5.56v-8.55l-3.47-2.43-7.78,2.73c1-2.23,1.66-3.84,2.3-5.29l-5.51-5.82c-.54,2.06-.81,3.11-1.17,4.46l-4-2.11c-1.6,3.12-3.15,6.12-4.79,9.31l-3.3-.44-1.41-1.3-2.28,6.77-1.71-1.59v-4.36l5.47-2.45-3.89-5c-2.59,5.14-4.73,9.4-7.55,15-2.64,1.16-4.42,3.83-.18,8.37l-3.22,2.32-8.55-7.44c.16-.19.78-.93,1.57-1.85l-4-3.23,9.88-8.25-2.35-1.51-.94,2.18-9.09.77c-.46-1.3-.8-2.27-1.4-3.94l7.39-5.1,2,3.85,3.29-.22,2.71-2.86-9.18-7.21-7.88,3.17-.71-2,10.79-3.17-8-2.19-.61,1.27-11-9.52H240l-2.34,4.08-5,.76c-1.23-2-2.4-4-3.08-5.12l-10.85,19.77c-5.62-2.5-9.82-4.56-14.16-6.24-3.73-1.43-7.64-2.42-12.77-4l2.2,5.76-.53.26c-.55-.82-1.1-1.63-1.93-2.88L189.87,629l1.62,3.45-1.26.63-2.38-3.73-7.85.54c-1.09-2.63-2.3-5.53-3.34-8l5.19-3.82-5.64-6.12a78.81,78.81,0,0,0,8.22.34,58.26,58.26,0,0,0,7-1.3c.21-2.79.4-5.48.61-8.4l-2.69-.76c-1.6-6.88-3-13-4.71-20.3l-5.51,1.17.09.09a4.78,4.78,0,0,1,.33-1c4.45-7.45,4.45-7.45-2.51-13.7l.68-3.6c1.21,1.29,1.95,2.06,3.15,3.33l9.39-6.83c-.58-2.11-1-3.8-1.59-5.84l-4.19,2.14v-3.64l-3.59-.82c.15-.84.31-1.68.49-2.69l-2.11-.67-2.5-6.21-4.71,1.32c-.16-3.23-.31-6.2-.52-10.52l-3,6c-.48-1.9-.87-3.49-1.39-5.56l2.75-1.91.17-1.39-10.61-.79c1-2,1.75-3.65,2.78-5.8v-6l-2.6-.93L156.93,521c-.28-3.15-.58-6.38-.94-10.38l6.24-.93c1.28-2.53,2.92-5.39,4.22-8.4s2.16-5.91,3.45-9.55l-5.05-1.47,1.05-3.54-15.83-9.91-2.79.42c-.5-.94-1.07-2.05-1.8-3.45l5.89,1.52-7.48-12.41c-.72,2.06-1.16,3.29-1.59,4.53l-1.37-.7c-.12-1.39-.25-2.78-.45-5l10.26.73c-.88-3.84-1.74-7.57-2.68-11.7l-6.74-5.68,2.24-3.31c-.36-1.17-.73-2.38-1.22-4l2.79-1.62L149,443l3.34-.93c-.36-3.07-.67-5.81-1-9l-3.44-2.92c.61-1.32,1.22-2.67,1.94-4.23l-8.11-10.57,6.92-7.49c1.08,3.59,1.75,5.78,2.41,8l1.59-.28v-8l6.86,2.53,6.42-4.57-.29-.37,4.08-2.47-5.61-6-3.8,2.81-7.44-6.17-.65-5.35L170,377.56c-4.62-3.62-7.75-6.06-10.54-8.23l-8.95,6.1-2.21,3.78-.81-.34,2.31-5.68-3.6-5,4.07-1.59,2.29,3.79,3-1.19c-.63-2.09-1.2-4-2-6.72L136,360.58l-1.63,4.6-3.7-1.16c-3.91,4-12.53,3-12.4,11.51L112,383.64c2.7-7.13,4.9-13,7.1-18.78l1,.88c1.32-1.24,2.73-2.4,3.94-3.74,1.44-1.6,2.71-3.37,4.6-5.75v-4l4.65.58.69-3.64-4-6h-7c.67,2.26,1.32,4.46,2,6.66l-1.43.37-3.9-3.36c.1-1.72.19-3.51.32-5.75l4.57-1.78-.84-6.73-5,3.13.34-1.28L103.8,330.6l-.57,1.51-2.71-3.29,3-4.37-5-6.45c.9-4,1.86-8.23,2.82-12.47l-1.58-.77,2.93-.92,6.17,7.66-1.47,2.93.94.93c1.28-1.27,3.19-2.32,3.72-3.85,1.71-4.92-3.66-13-8.78-13.77s-6.53-2.62-4.57-6.05l8.43,2.58q2.58-6.39-6.31-8.58c-3.82-.94-7.76-1.36-10.09-1.75l-7.91,1.67-.61,4.59c-4.08-1.79-5.28-7.44-3.37-13.5l4.44-1.62,2-6.22,1.2.26.84,3.32,3.45-1.11.14,1.4,16.78-1-1.37-3.39-.4.15c-1.1-5.43-2.19-10.87-3.19-15.86l3.61-4.55,8,2.43,9.51-3-10.43-8.32L110,241.26l-1.65-6.86c4.54-4.24,10,.76,14.89-1.16l1.34,2.13-5.2,3.2,2.87,7.59c2.49-4.48,4.19-7.53,5.88-10.59l8.63-5.45v-2.23c-1.89-.71-3.75-1.56-5.69-2.1-4.21-1.18-9.34-.47-11.72-6.1l2.33-2.68,7.54,4.06,1.36-1.2c-1.53-2-3.06-4-4.54-6l6-7.81,6.33.43,3.63-5.29-7.81-1.7,5.52-2.85-4.22-3.7L131,199l-2.56-3.73-8.67.45c1.54-4.91,3.65-8.58,3.57-12.2-.09-3.8-2.29-7.54-3.62-11.46h-3.35c-.22,2.28-.41,4.25-.77,7.89l-6.43-7.84c1.9-3.84,3.34-7.61,5.57-10.83.94-1.35,4-2.56,5.31-2a9.33,9.33,0,0,1,4.56,5.11c.78,2.2.18,4.89.18,6.93,6.79,8.85,19.12,16.95,23.22,15-1.89-3.11-8.56-3.62-5.45-9.1-6.52-7-12.88-13.83-19.25-20.65l1.14-1-8.79-9.49,1.73-1.74,5.44,10.25,2.25-1.75,3.07-5.58-4.28,1.32-4-6.7,5.33,4.38,1-1.06-5.49-3.4c.94-6.52,1.69-11.68,2.44-16.88l-2.48-2.75c2-2.25,4-4.54,6.14-7,.39-1.64.85-3.6,1.35-5.73l14.69,3.57c1.38,2.48,1.16,9.08,8.46,8.9-.14,4.24-.24,8.47,5.08,10l7.08-5.84,3.22,8.19c-5.5,4.67-4.29,14.46-14.1,13.88-.51-.63-1.31-1.62-1.63-2l-11.33-4.21c6.62,7.39,0,13.11,0,19.6l-6.55-.63,8.84,8.32-.35.27,9.3,10.06c1.52-9.32,2.76-16.86,4.05-24.81l20.59,10.54.78-1,1.16,3.17-3.88,10.07-1-.21c.3,2.59.61,5.18.72,6.18l18.2,14.21,1.06-.85c-.24-1.31-.48-2.62-.93-5.14,1.24-1.16,2.78-3.55,4.83-4.13,1.08-.31,3.06,2.53,4.67,4l7.73-.64-7.85-8.53c.63-2.8,1.06-4.74,1.45-6.49l4.07-5.82-5.49-8.74-3.3,1.3-6.74-.52L193.4,161c.25-1.73.49-3.32.88-6,0,.08-.31-.92-.82-2.5l-5.71-.66c.81,3.37,1.38,5.71,1.94,8l-1.63,1.18L181,153.22l5.05-5.82h15.47c-.23-2.06-.47-4.22-.91-8.1l7.36,4.91,4.66-.72c.8,3.35,1.62,6.78,2.61,10.9-4.66-.57-11.84-2.69-9.15,6.88.45,1.59,3.1,2.56,4.73,3.82l1.46-1.6-3.5-5.54h14.05c-.15,1.54-.27,2.8-.35,3.62l-3.74,4.56-5,2.63,3.93,2-.19.75L213,170.3l3,5.59,7.92-5.28c1.74,5.39,3.07,9.48,4.4,13.57l-.77.31,1,6.82,4.81-7.18,2.28-.95,3.95,5.49c.55-2,1-3.54,1.26-4.73l6.22-2.35,4.14,1.5,1,2.69a37.7,37.7,0,0,1,3-4.61,58.67,58.67,0,0,1,5.32-4.44c-1.24,4-2,6.28-3,9.51l6.87-4.59c-.11-1.8-.27-4.44-.47-7.64L259,176c.36-2.51.63-4.48.95-6.74l-4.06-1c.32-2.15.67-4.42,1.06-7l3.7.75V147.21l-6.45,3.69c.23-2,.39-3.36.56-4.76l-.84-.57c-.74,1.43-1.47,2.85-2.12,4.09-2.71-2.73-5-6.91-8-7.49s-6.86,2.28-9.75,4.56c-.86,1.46-1.71,2.93-3.16,5.41-.78-2.63-1.13-3.8-1.65-5.53l-3.23,3-1.22-.33,2.39-7.25c-.2-1.13-.52-3-.85-4.8l3.77-4.19,6,7c4.69.37,11.48-2.11,14.94,5.17l4.55-1.87-3.9-5.78,1.52-1.21,5.06,3.83c-.7-3.87-1.33-7.36-2-11.07l7.35-.82,4.35,16c1.21,5.09,2.14,8.55,2.83,12.05,1.18,5.95,1.86,12,3.43,17.86.72,2.65,2.91,5,4.75,7.21,1,1.18,2.62,1.8,5.09,3.42,3-4.23,6.15-8.58,9.1-12.7-5.45-10.44,3.61-14.84,7.19-20.8l6.11,11.21v13.73c4.11-3.52,2.58-10.81,10.42-10.79l3.29,3.45,13.28-4.77c1.13-5.4,1.91-9.14,2.73-13l2.81-.92,6.64,1.55L338.08,134l2.28-3.16,5.35,6.21-1.41,1.23-3.44-2,1.39,3.23,13-1.36c1.52,4.47.49,6.71-3.82,6.81-.25,1-.5,2.12-.77,3.22l-2.35,2.19v9.91l5.13-5.81c2,4.63,3.8,9,6.43,15.13,6.87-5.74,12.48-10.17,17.77-15,3.05-2.76,5.53-6.14,8.39-9.13a10.68,10.68,0,0,1,2.84-1.58l0,0-13.31,15.66,17.69-4.49c-.84-4.15-2.2-7.76-2.12-11.35.06-3.28,1.68-6.52,3.2-9.43v-8.49l9.59,5.05,5.74-.75-3.43-6.29,8.79-17.34c-2.53-7.53-.69-14.47,3.73-18.12l12.4-3.4c-.66,3.84-.87,7.2-1.88,10.3-.74,2.27-2.08,4.87-3.95,6.13-6.44,4.36-3.64,9.51-1.9,14.69.18.54.47,1,.67,1.51l-1.83,4,6.35,8-4,5.12c3,9,1.39,13.56-4.53,13.26-.39-1.71-.8-3.49-1.21-5.26l-1.77-.12c-.44,3.23-.88,6.45-1.36,9.91l3.18,1.12-1.06,2c1.41,5.6,2.57,10.24,4,16l1.37.71c6.23-3.78,14-5.39,15.71-14.35-5.35-5.34,3.43-8.25,2.4-13.38,2.59.31,4.7,1.16,6.43.66,3.79-1.08,6.14-3.55,5.9-8.05-.22-4.25.22-8.54.21-12.81,0-1.13-.58-2.25-1.08-4.09l-8.88,8.08,5.38-15.62,5.25,1.81,1.18,2.92,4.79-2.34,3.21,3,4.71-1.83c-1.75-1.4-3-2.42-4.74-3.77l3.9-4.92c-.53-.82-1.07-1.63-1.73-2.64l1.71-2L464.08,99c2.7-2.26,8.54-1.22,7.21-5.73,1-2.14,1.43-3.18,2.24-5l-5.23,1.33c-.36,1.8-.68,3.44-.94,4.75l-5.52-5.53L464,85.69V81.53l-3.73-2.69c3.13-5.85.95-9.57-6.27-11.82l8.62-5.51,10.43,4.25-1.5,2,6.87,5.79c.37,4.2.82,9.24,1.26,14.12,6,2.63,7.91-1.67,10.07-5.62l5.09,3.19c-3.7-3-5.23-6.83-2-10.44,2.71-3,6.72-4.87,9.59-6.86,4.83,3.37,8.43,6.37,12.49,8.48,1.67.87,4.4.12,6.53-.39,3.8-.91,7.5-2.2,11.24-3.33l.63,1.44,3.58-4.9h3.53l6.9-11.15c-.33-.88-.75-2-1.36-3.57l2.21,1.43H559c1.57,7.57-2,13.49-9.34,16.2-4.09,1.51-9,9.75-7.57,14.22,2,6.39-2.85,12-10.76,13.89-1.13,2.73-2.08,5-3,7.27l-1.33-.41v13.2l-1-.31c-1.46,3.51-2.93,7-4.42,10.59l-3.82,2.23c-.73,3.69-1.37,7-2.13,10.83l2.14,3.09,3.39,1.42H535.4c-6.16,2.19-15-1.42-16.61,8.3q.69,5.42,1.36,10.81a1.56,1.56,0,0,1-.16,1q-7.41,11-14.88,22c-.33.48-.49,1.08-.83,1.55-2.27,3.12-4.58,6.22-7.31,9.93l4.42,2.67c-.06.69-.21,2.41-.35,4.1l-5.13.89c-.17-1.69-.32-3.12-.65-6.43l-11.5,13.89c.14,1.65.39,4.67.7,8.39l-2.7,6.81v16c3.42.5,6.32.16,8,1.43,1.18.91.68,4,1,6.34l-9.32-.48L484,262c-4.7,1.28-11.42,0-13.29,7.3l2.15-1.62,1.78,1.51c5.06-2.18,9.45-2.78,14.92.08,6.28,3.28,13.28,1,19.57-2.1.84-.42,1.67-.81,3.08-1.49l7.38,4.67c-.64.85-1.28,1.71-1.93,2.56L509.3,276l1.89-3.77-10.25,1.37-3.32,7.76-1.83-.74c.44-1.4.87-2.81,1.64-5.28l-7.75-2.22c-2.74,6.24-6.62,7.1-12.32,4.21-2.06-1-4.84-.67-8.15-1,.88,2.44,1.42,3.69,1.78,5s.56,2.72.92,4.58L478.8,289c-.46,2.9-.87,5.55-1.24,7.91l4.2,7,1.54-1.44c.47,2.4.95,4.81,1.47,7.42l1.35.16,8.81,10.81c7-2.61,11.55,1.43,16.15,6,2.68,2.69,6.13,4.61,9.4,7l3.49,4.23,5.18-8.23,5.93,5.06,1.88-4.05,9.12,14.85,5.75.85,2.55-4.09,1.5,6.13,4-.7-1.63,4.28,4.21,4.76c-.32,1-.72,2.16-1.19,3.54l-11.51.89-7.35-3.08H528.21c0-.67-.11-1.63-.2-2.91L522.08,359l-7.83-.43-.21,1.11,4.32,2.39-3.94,1.68-4.48-7.22-9.09,6c-1.11,4.52-2.59,10.57-4.1,16.69l9.82,6.3-.4,1.33h11.11c.14,1.44.34,3.39.6,5.89l-1.39-.89-14.72,7.05,11.68,6.43,3.45-1.38c1.1,4.19-3.44,6.51-8.37,5.37-2.71.77-5.56,1.91-5.74,1.59a85.32,85.32,0,0,1-4-9.61,15.42,15.42,0,0,1-3.1-.9,45.16,45.16,0,0,1-4.84-2.91l-12.46,19,.93.58-3.57,4.26-1.32-2.59c-6.2-2-15.17,1.18-16.09,5.37l4.63,2.66L459.42,431c.13,2.13.27,4.38.49,7.73l2.82-3.17,1.64.86c-.84,1.24-1.42,3.14-2.57,3.6-4.44,1.77-6.75,6.16-5,9.21,4.15,7.32,9.85,13.77,15,20.53.28.37,1.06.35,1.83.58l2.11-2.71,12.07-1.35,2.95,2.14c-.83,4.63-1.68,9.45-2.52,14.16L482,487.4l-2,4.5-1.39-.48c.4-2.19.79-4.39,1.26-7l-3.35.19-.59-1.53-6-1c.28,2.17.54,4.1.72,5.52l-6.52-3.39.81-.53-10.39-1.46c.2-2.3.36-4.12.53-6.16L452.62,473c1.2-1.79,2.47-3.67,3.86-5.72l-1.67-2.7,3-1.88V456.3c-9.08,4.49-9.08,4.49-18.08,3.74l-10,6.68,3.37,10.35ZM317.72,573.1l6.95,2.34,1.67,10.87-3.82-.87.67,3.67-3.86,1.69c-2.39-3.8-4-8.29-7.19-10.9s-7.86-3.33-12.29-5l-12.32,16.92,4.31.83c-.78,7.25-.78,7.26,3.9,8.4l4.54-4.91c-.56,2-.75,2.62-1,3.41l3.75.79c.09,10.62,5.37,15.76,9.18,17.09-.3.93-.6,1.87-1.31,4.13l5.84-3.55c5.4,6.23,9.25,2,13.27-2.51-.36,1.7-1.29,2.53-1.72,3.56a14,14,0,0,0-.56,3.47l4,1.49c18.71-3.93,27.62-14,23-24.77-11.73-6.82-18.48-17.16-26.55-27.91-1-1.6-2.47-4.06-4.37-7.18-.66-.32-2.07-1-3.79-1.78V570Zm99.83-305.5c1,1.75,1.86,3.21,2.65,4.59,1.8-.73,3.57-1.11,4.88-2.09,1.12-.83,2.67-3.09,2.39-3.47-3.45-4.53.29-7.8,1.72-11.11-2.54-6.9-6.82-12.24-14-12.22-3.45,0-6.89,3.83-10.37,5.95,2.32,5,4.05,8.79,5.77,12.55l-.66.34L416.1,270Zm-27-98.82,4.38-2.71c-2.28-2.39-4.22-4.43-6.26-6.59l-2.77,1.08c.45,2.49.85,4.64,1.41,7.7l-8.22-4.6-3.59,1.87-.69-1.47-13.55,6.38,7.9,3.33v10.65c.22-.49-.19.41-1,2.15l4.43-3.71L374.37,193c8.16-6.11,9-17.34,17.57-21.86Zm-212,300.61,5.12-7.22c-.84-2.88-1.45-5-2-6.71H164.58l8.11,12.79-1.53.48c.28,2.75.56,5.51,1,9.94l7.32-5.29Zm-1.33-58.79-10,.51,13.77,12,5.27-1.84c3.28-8.87-5-19.8-15.71-18.62l8.42,5.88ZM142.88,287.32l4.05-2.42,3,6.74-8,1.68,9.1,8.81,1.25-1.15c-.6-1.6-1.21-3.19-1.82-4.79l1,.1c1-4.75,1.93-9.5,3.11-15.27l-11.13,1,1.09-4.54-1.16-1.1-6.88,5.23,5.22,9.4,1.2-.56ZM414.29,529.58c1.65,12.75,10.8,7.65,17.06,9.57a63,63,0,0,0,1.38-8.31c.06-1.52-.59-4.14-1.47-4.4-1.44-.43-3.45.42-5,1.17a48.11,48.11,0,0,0-5.37,3.47c-.1-.39-.19-.77-.29-1.15ZM136,271.85c.35,1.69.6,2.86,1,4.66l2.64-2.21c-.5-2.18-.91-4-1.33-5.8L135,271.78l-8.54-10.32,1.58-2.25c-1.54,2.4-3.08,4.79-4.76,7.42l5.23,4.42c-.83,4.12-1.7,8.44-2.56,12.75l1.51.66,6.29-4.71-3.06-1.53C130.82,274.56,130.9,271.23,136,271.85ZM433,542.14l6.6-1.27c.85-5.09,1.48-8.9,2.23-13.44l-6.93-2C434.3,531,433.74,535.86,433,542.14ZM191.66,438.19l.82.53,4.71-4.93-6.3-1.27-5.11,14.2-1.55-.37.51,5.31,5.56-1.25c-.59-1.29-.91-2-1.26-2.76l1.15-.33C190.73,444,191.2,441.09,191.66,438.19Zm126.27,12.53,5.9-1.23-8-9.22-.36-1.5a6.1,6.1,0,0,0-1.83,3,18.42,18.42,0,0,1-1.32,2.32L310,438l-1.12.49v5.94l4.54,3,3.47-.74ZM133.65,317c-2,6.17,3.86,7,6.27,11.34l7.74-5.94L139,321.29l-1.5-3.67Zm48.73-93.41c-5.65-.48-8.54,2.82-7.45,8l8.49,2.16C183.06,230.23,182.73,227,182.38,223.62ZM177.14,520.8c-.3,3-.59,5.88-.87,8.75l1.74,1c1.23-1,3.67-2.41,3.5-3-1.2-3.68-2.95-7.19-4.88-11.56l-5.34,4.9c1.07,1.71,1.84,3,2.82,4.54Zm-42.9-279.93c-.49,2.37-.87,4.18-1.25,6l1.59.94c1.69-1.51,4.38-2.8,4.8-4.61s-1.26-4.36-2-6.56l.47-.07-.88-3.8-1.33,0-2.39,4.76Zm-16.51,22.77c3.64-4.32,4.25-9.25,1-11.95-.74,2.77-1.4,5.21-2,7.46l-6.18.54-.29,2.19Zm310,190.22,2,6.93,5.69-1.82-7.07-8.26-6.2-.93,1.36,3.77ZM320.42,172.21l-9.78,1.62c-.24,1-.59,2.39-.93,3.73l9.53.59,3.1-2.47C321.41,174,321,173.2,320.42,172.21ZM153.77,219.53l.91,5.51,12.81,1.82.51-2.41ZM468.92,479.79l1.94.24c-.25-1.66-.43-2.79-.41-2.66.9-2.53,1.41-4,1.78-5l-9-7.46ZM215.76,189.37l2.19-.27,4-4.56-7.76-5-1.67,1Q214.15,184.94,215.76,189.37ZM206.82,493l-8,.59-.32,2.64,10.26,2.59Zm279-128.75c.41,1.94.85,4,1.28,6.09l5.5,1.32c-.82-2.16-1.29-3.42-1.62-4.28v-6ZM175.89,540.51l8.68,2.19c-1.58-3.57-2.68-6.05-3.79-8.54l-1.89,0Zm19-124.09-3.94,7.67,10.31-1-.16-1.58-3.39-.67Zm236.6-246.81-6.72,4.16,6.44,2.52-.26,1.26,3.48-1.38ZM129.29,122.27,125,119.63l-.84.92,3.91,4.61-.67,2.55,4.5,1.89C130.87,126.68,130.16,124.7,129.29,122.27ZM471.15,532.56c1.18,2.28,2.1,4.09,3.69,7.16,1.24-2.84,1.87-4.31,2.65-6.1l-2.39-2.27Zm-25.07,10-.92-1.34-5.52,2.12,3.28,5.59ZM312.57,571.86l.86,1,5.33-2.84c-.43-2.13-.82-4-1.16-5.67C315.84,566.94,314.2,569.4,312.57,571.86ZM119,326.31l-.51,6.95,7.14-1.5Zm48.35,177.58-.83,5.66,1.27.35c.68-2.2,1.37-4.39,2-6.59l-.07,0,1.33-4.83-1.06-.31C169.14,500.08,168.23,502,167.36,503.89Zm23.51-100.63L184,404.37l.25,1.3,3.05-.29,3.54,3.77Zm-.17,21.79-6.19.81,5.15,6.2C190.11,429.05,190.34,427.48,190.7,425.05Zm109-238.11-1.19.56c.25,1.73.5,3.46.83,5.78l5.06-2.16Zm-88.8,292.52L208,478.11l-4,3.38,4.08,1.77Zm114.82-54.22c1.3-1.68,2.19-2.83,3.67-4.77l-7-.8C323.88,422.07,324.62,423.31,325.76,425.24Zm-122.16,5.5,2.55-5.61-.93-.87-4.11,3Zm245,103.11a33.55,33.55,0,0,0-4.36-2.73c-.37-.16-1.68.73-1.74,1.24a6.07,6.07,0,0,0,.77,2.47ZM125.19,312.39l-1,.06-1.86,5.32,3.55.19C125.6,316,125.39,314.17,125.19,312.39Zm41.7,213.36,1.92-.09-1.17-5.56-1.79.33ZM420.4,450.34l-1.87-1.67-2.67,3.89,3.69,1.94C419.89,452.86,420.15,451.6,420.4,450.34Zm-7.1-320.18,5.32-.55-.25-1.15-3.51-1.57ZM167.39,484.26l-.5,1.31c1,.48,1.91,1.34,2.83,1.3.62,0,1.19-1.33,2.21-2.61Zm1-49.82-.38-.75-4.81,2.13.88,1.66Zm163.12-2.17,4.13-1.81-3.06-2.63Zm-21.95-3.73-1.27.26.89,4.59,1.41-.29C310.29,431.58,310,430.06,309.6,428.54ZM167.32,416.07l.62-1.47-4.51-1.26-.4,1.35Zm198-221.43-5.24,2,2.83,2.36ZM200.88,205.21c.26-1.79.4-2.72.62-4.2l-4.14,1.47ZM238.54,195l.65,3.77,2.74-2.39Zm236.3,208.1c-1.39,1.95-2.3,2.69-2.19,3.21.15.73,1.08,1.29,2.19,2.47Zm76-341.66-1.44-.57c-.39,1-.79,2-1.19,3l1.38.55ZM200.92,552.87l-1.55-.73-.87,2.7,1.35.47C200.21,554.5,200.56,553.68,200.92,552.87ZM313.38,417l2.5,1.7c.24-1.44.4-2.45.69-4.27ZM171.59,529.63l1.08-.8-2-2.68-1.1.82Zm35-108.07-.44-1.35-3.29,1.23.36,1.08Zm96,144.5-1.09,1c.66.74,1.32,1.49,2,2.24l1.18-1Zm-105.37-5.25-.64,1.42,2.73,1.09.59-1.29ZM306.83,436.45l1.06-.35L306.77,433l-1.23.54ZM180.89,626.18l-.67,1.3,2.34,1.08.55-1ZM376.21,665l.33,1.41,2.84-.8-.27-1.12Zm-46.1-236.49.61-.53-2-2.53-1.13,1.05ZM201.63,613l-1.09-.13c0,.73-.11,1.46-.16,2.19l.77.12ZM323.06,423.85l-1.57-.05c.14.78.25,1.56.43,2.32,0,.08.42.07,1,.15Z" transform="translate(-1.62 -2.59)"/>
    <path d="M189.19,95.62c-.52,4.08-1,8-1.52,11.91-.56,4.09,1.52,6.39,4.74,7.82l3.93-3.36,1.3,1.59-9.31,7.24c-.15,1-.43,2.9-.69,4.71l4,2-.24.63-2.15-.27L184,131.59l-3.81,3.62-15.23-19c-6,3-8.59-2-12.12-4.88-.86-.72-2-2-2.72-1.84-5.63,1.4-8.55-2-11.29-5.89a10.21,10.21,0,0,0-2-1.54l-6.41,2.84-2.37-.64L113.6,91.05l.21-.34,2.52,1.4c-.09-1.3-.16-2.27-.27-3.92l6.5-.57c-7.9-5.29-9.07-12-5.73-19.4l-6.31-4.08c-.49,4-.86,7.12-1.42,11.81-2.68-5.56-4.74-9.81-7.21-14.94l3.71,2c4.36-1.86,8.06-1.24,10.88,3.17a6.06,6.06,0,0,0,3.78,2.31,49.23,49.23,0,0,0,13.48.57l-5.42-3.88,9.43-3.84c3.51,6,8.95,6.23,16.93,3.33-1,4-1.67,6.5-2.32,9l-1.28-.09,2.27,6.66,4-2.83c5.47,1.38,6.64,6.09,3.42,13.53.52,2.45,1,5,1.61,7.49.07.3.45.52,1.14,1.29l6.92-1.64,1,2.58,3.32-.26c.43,4.94.85,9.75,1.26,14.57l2.39.23,1.94-4.4-.44-.23,2-2.46V96.32l-2.36-2.58Zm-60.9-1.56c-1.11,2.5-1.74,3.9-2.23,5l6.12,2.54L136,100l-6.38-2.53Zm56,10.73,1.89.23q.88-2.58,1.76-5.16l-1.31-1c-1,.59-2.73,1-3,1.82C183.37,101.88,184.06,103.39,184.31,104.79ZM137.22,74.55l-.64,1.34,2.91,1.34L140.1,76Zm11,1.74-1.15-.47-1,2.45,1.12.46Z" transform="translate(-1.62 -2.59)"/>
    <path d="M312.36,94.78c.14-1.33.29-2.66.47-4.36l-4.36,1.76-5.13-1.93c.26-3.51.56-7.67.85-11.59l5-1.12c-.6-1.53-1.13-2.87-1.8-4.54,1.69-4,3.67-8.61,4.93-11.57L292.54,42.74h12.17l.05-.77,3,.77,5.7-6c-.45-2.35-.78-4.08-1.12-5.82l6.36,2L320,36.36l1.26-1.72,3.37,4.1H323l-.47,1.3,7.32,2.58c2.28,4.73,4.25,8.84,6.24,12.93a28.72,28.72,0,0,1,1.6,3.12c1.37,4.18,2.64,8.39,3.94,12.59l1.59-.41-3.35,2.86,1.6.47C339.72,82,338,89.79,336,98.38c.63,2,1.57,5.08,2.43,7.85l-4.72,4.19c-6.39.65-9.45-2-10.28-9.2l-3.2-.32c-.81,1.16-1.66,2.38-2.59,3.73L311.3,102c.35-2.21.75-4.79,1.16-7.38l-.33,3.91,4.31-1.68.46,1.33,6.16-2.14-6.37-5.3Zm10.51-17.42-4.71-5.86-1.64.87,1,6.41Z" transform="translate(-1.62 -2.59)"/>
    <path d="M380.36,112.07V107l4.29-1.69c.39,1.69.75,3.22,1.1,4.73L382,111.45l8.88,4c4.07,4.13,3.34,9.51-2.52,11.37l.49,2.89-7.49,1.79-2.09,3.31-1.37-.61c1.21-3.13,2.42-6.27,3.83-9.9L372.91,119c-1.19,1.67-1.84,2.59-2.28,3.22l-3.88.46-11.83-11c-.51-1.9-1.26-4.67-2.32-8.62.3-1.66.86-4.72,1.64-9l-5.6,3.19c.93-1.81,1.53-3,2.42-4.68l-8.43-12.11c.13-1.56.3-3.51.54-6.34l11.66-2.41.56,5.13.65-.08c0-.57-.06-1.15-.16-2.81,1.09,2.35,1.77,3.82,2.24,4.82-.81,3.26-1.52,6.11-2.09,8.43-.64,6.54,4.4,8.36,8,11.29,1.82,1.47,3.58,3,5.38,4.52C372.67,105.75,375.93,108.42,380.36,112.07Z" transform="translate(-1.62 -2.59)"/>
    <path d="M449.15,49.45H436.5c-2.62-4-2.15-6.81.25-10.21,1.58-2.25,1.5-5.67,2.22-8.82l-2.39-1.51c0-7.66,11.3-10.94,5.73-20l11-6.3,15,10.49c-1.3,5.58-2.9,11.69-4.12,17.88-1.54,7.87-8.38,8.56-14.64,10.53l-9.06-2.92-3.36,1.59q.66,3,1.29,5.86l12-2.38C449.81,46.32,449.51,47.71,449.15,49.45Z" transform="translate(-1.62 -2.59)"/>
    <path d="M166.24,71.51l-6.1-9.28c2.61-4,2-10.11,9.37-11.06,2.62-.34,4.7-4.83,7.36-7.79L181.32,49l-5.13,2.47c.74,2.75,1.59,5.89,2.43,9l2.12-.5-1.12-6.71,4.63-3.57c2.68,4.07,6,7.7,7.63,12,1.53,3.92,3,4.62,6.69,3.2,2.27-.86,5-.63,7.58-.25-2.79,4.53-7.21,4.2-11.13,3.71a25.3,25.3,0,0,0-17.43,3.72c-3.11,1.93-7.85,1.23-11.85,1.71Z" transform="translate(-1.62 -2.59)"/>
    <path d="M560,294.17l5.84-7.3c1.65,4.24,2.68,6.89,3.9,10l-4.86.57c.64,2.55,1.22,4.83,1.83,7.26l8-1.47,7.42,13.55c-3.61,6.22-7.88,7.48-12.66,4s-8.91-7.29-13.49-11.09l.55-2.28-3.25-2.73c-.89-2.7-1.62-4.93-2.3-7Z" transform="translate(-1.62 -2.59)"/>
    <path d="M225.69,70a8.63,8.63,0,0,0,1.26-.48,13.93,13.93,0,0,0,1.49-1.24V73L233.87,76,236,70l1.55.66c-3.49,4.45,0,11.49-6.88,14.85C227,87.24,227,92.87,230,95.8a11.58,11.58,0,0,1,1.39,2.41l2.27-3c7.91-.69,7.91-.69,10.24,4.51-2,3.37-11.16,5.47-14.86,4l-6.71-9.14c-.21-6.16-4.87-13.15-11.46-14.29-.18-1.9-.39-4-.61-6.29L214,73.2c.35-1.57.65-2.92,1.12-5l3.41,4.35,4.68-5.81,2.53,3.37c-1.18.25-2.37.48-3.85.78-.22.71-.55,1.78-1,3.19l3.62,1.5C225,73.31,225.34,71.63,225.69,70Z" transform="translate(-1.62 -2.59)"/>
    <path d="M530.23,44.15l2.43,6.67c-.43.86-1,2-1.5,3-8.76-1.72-12.72-21.08-9.57-30.33l18-1.4q2,3.72,4,7.39C545.26,39.75,537.8,42.26,530.23,44.15Z" transform="translate(-1.62 -2.59)"/>
    <path d="M451,623.57l1-4.13-1.21,0c-.25-3.87-.5-7.74-.77-11.82-7.32-5-8.05-6-7.71-10.59,9.73-8.16,10.45-8.37,14.18-4l3-2c.17,1.58.31,2.84.45,4.1l1.12-.37q1.14,3.18,2.27,6.37c.77,2.16,1.52,4.32,2.72,7.73l-.44,1.52L460.31,612l-2.19,7.46Z" transform="translate(-1.62 -2.59)"/>
    <path d="M92.85,123.39l-9-10.1.9-.87L94.4,121,99.91,118l-3,7.72H94.77l-3,4.81,4.46,3.56,4.93-4c5.45,2.35,7.09,5.72,6.34,11.48-.19,1.49,1,3.17,1.59,4.75a11.06,11.06,0,0,1,1,5.62l3,4.29-2.74,3.48-3.5-2.57,2.28-3.53c-1-1.44-2.16-3-3.41-4.72l-9,3.64c-.6-3.69-1.09-6.71-1.61-9.89H91.44C88.74,136.05,87.24,129.55,92.85,123.39Z" transform="translate(-1.62 -2.59)"/>
    <path d="M393.72,658.57c4.28-.47,7.57-.87,10.87-1.17,3.06-.27,5.89-.19,7.21,3.47,1.61,4.5,3.16,9.47-1.53,12.42a24.59,24.59,0,0,1-13,3.9c-2.75-.09-5.38-4-8.74-6.81l5-1.71c.12-1.43.25-2.86.46-5.25l-5.71,3.35-.4-.61Z" transform="translate(-1.62 -2.59)"/>
    <path d="M481.68,632.22c-.2-2.57-.37-4.92-.55-7.26l-.93-.4-4.51,9.15-4.92.9L465,626.47c.51-2.64.95-4.91,1.35-7l10.91-4,4.64.72,5.57-5.13c.33.24.65.49,1,.74C486.25,618.45,484.05,625.07,481.68,632.22Z" transform="translate(-1.62 -2.59)"/>
    <path d="M92.73,222.34l7.24,3.81-1,2.12-6.59-1.93-1.88,3.32,3.67,3.07,3.49-1.39,4.35,5-8.29,2-.09.94,6.12,1.69-8.44,7c-.66-4.46-1.39-9.45-2-13.94l-5.15-.86-3.26-6.35,2.47-6.25,1,.16L83,212.53l1.27-.35,1.07,5.54,6.83,5.13Z" transform="translate(-1.62 -2.59)"/>
    <path d="M445.69,569.91l2.94,1.88,3.85,7.79-1.64,4.26,7.49,5c-8.29-.35-17,4-20-8.93C437.86,572.88,438,572.69,445.69,569.91Zm-5.95,7.5c.18.52.37,1,.55,1.54l2.23-.82-.34-1.23Z" transform="translate(-1.62 -2.59)"/>
    <path d="M605.61,462.78l-4.44,1.68c-4.63-7.39-9.06-14.87-13.9-22.07s-10.25-14.33-15.8-22l1.79-4.54,9.73,14-.15.14Z" transform="translate(-1.62 -2.59)"/>
    <path d="M184.31,160.53c7.05,3.13,8.66,6.55,6.68,13.95l1.32.45c-.76,2.47-.95,5.42-2.48,7.23-.86,1-5.38.84-5.75.05a20.73,20.73,0,0,1-1.43-9.52C181.87,168.46,178.78,164.27,184.31,160.53Z" transform="translate(-1.62 -2.59)"/>
    <path d="M402,102l-7.8-4.33-1.48.87c-1-4.54-1.92-9.08-2.94-13.92h12.93l1.18,1V95.68C403.48,96.9,402.7,99.47,402,102Z" transform="translate(-1.62 -2.59)"/>
    <path d="M534.68,501.71l-7-4.64c-.32-1.36-.63-2.72-1-4.52l2.41.65v-3.27h-1.88c-.41-1.36-.82-2.68-1.32-4.31l2.82-5.24,11,8.28c-.15,2.73-.35,6.41-.53,9.71Zm-1.49-8.52,1.4-.15-.27-2.54-1.4.14Z" transform="translate(-1.62 -2.59)"/>
    <path d="M507.78,525.46c5.27-4.66,10.33-3.72,16.72,5.2L515,540.3Z" transform="translate(-1.62 -2.59)"/>
    <path d="M197.21,97.14l-4.34-4.69,4.76-.27c-.93-1.73-1.67-3.08-2.8-5.17L203,81.84c5.25,2,5.29,6.07,4.91,10.25C207.27,99.55,201.3,95.8,197.21,97.14Z" transform="translate(-1.62 -2.59)"/>
    <path d="M179.73,75.19l3.49,9.25-2.76.7L178,89.44l-1.5-.53c.37-1.82.73-3.65,1.23-6.11L170.94,80V94.79c-5.49,1.57-6.49-1.07-5.68-14Z" transform="translate(-1.62 -2.59)"/>
    <path d="M186.7,42.76l16.2-.84.06-1,4.65,2-5.33,2.31c.29,1.42.51,2.44.79,3.77-.66,1.07-1.44,2.35-1.7,2.76C192,55.15,188.2,50.38,186.7,42.76Z" transform="translate(-1.62 -2.59)"/>
    <path d="M516.63,175.56l4.63,1-.42,2.4,4.88,3.62L521,188v2.41l-3.6-2.75-3.26.85,1.17-2.65C511.82,181.74,512.24,178.53,516.63,175.56Z" transform="translate(-1.62 -2.59)"/>
    <path d="M90.61,92.79l-7,8.47,3.26.56.28,4.17-1.21.74-4.85-5.27-2-.26-3,6.71-.49-.18c.46-3.2.92-6.41,1.42-9.93L84,97.26l.46-4.8,5-.85Z" transform="translate(-1.62 -2.59)"/>
    <path d="M25.51,280.36l-6.3-.29-1.41,1.72L1.67,280.43l0-2.69,16.67-1.26-.09.62L25.58,279Z" transform="translate(-1.62 -2.59)"/>
    <path d="M501.42,622.91c-1.17,7.46-2.08,13.28-3.17,20.25l-6.89-5.22C494.6,633.1,497.59,628.62,501.42,622.91Z" transform="translate(-1.62 -2.59)"/>
    <path d="M309.19,127.42l4-7c-.81-1.64-1.67-3.37-2.57-5.17l7.56-2.17,1.3,2.6C315.12,125.74,313.65,127.51,309.19,127.42Z" transform="translate(-1.62 -2.59)"/>
    <path d="M537.4,198.69l5.15-.34,3.24,2.6c.58,4.18-1.94,6.86-7.49,6.56Q537.88,203.31,537.4,198.69Z" transform="translate(-1.62 -2.59)"/>
    <path d="M365.32,127.47c-1.63,2.7-3.27,5.4-4.86,8l1.45,3.91-1.15.75-7.26-8.29,10.84-5.13Z" transform="translate(-1.62 -2.59)"/>
    <path d="M409.16,601.73l.87-3.85h-3.86c-.87-2.83-1.61-5.26-3-9.7l10.16,3.3c-1.76,4.2-3,7.17-4.23,10.16Z" transform="translate(-1.62 -2.59)"/>
    <path d="M274.43,657.27c.32-3.72.56-6.58.83-9.81l2.72-.84c1.15,2.06,2.21,4,3.45,6.19l-.45,4.46Z" transform="translate(-1.62 -2.59)"/>
    <path d="M197.12,635.52l1-4.73.6.21c-.13-1.69-.27-3.38-.45-5.67l3.85,2.44,3.29-1.65c.16,2.64.29,5,.43,7.51Z" transform="translate(-1.62 -2.59)"/>
    <path d="M225.76,630.05l2.86,5L225,639.29c-3.72-4.76-3.41-14.06,4.55-16.49C228,625.72,227,627.61,225.76,630.05Z" transform="translate(-1.62 -2.59)"/>
    <path d="M527.74,553.55l24,22.18L549.49,578l-22-24.17Z" transform="translate(-1.62 -2.59)"/>
    <path d="M110.62,51.93,116,53.2c.46-3,.82-5.36,1.24-8.08,4.07,3.78,5.55,16.41,2.17,18.36l1.88-6.85L110,53.21Z" transform="translate(-1.62 -2.59)"/>
    <path d="M296.49,83.88l-1.14-3.56,3.86-2.68-2.09-12.73,1.51-.2c1.52,3.94,3,7.88,4.63,12.07l-4.14,3c-.39,1.15-.84,2.46-1.29,3.77Z" transform="translate(-1.62 -2.59)"/>
    <path d="M327.92,129.34l3.28,5.95c-1.2,2.83-2.16,5.08-3.12,7.33l-1.27,0V129.5Z" transform="translate(-1.62 -2.59)"/>
    <path d="M516.12,314l8.41-4,1.71,1.25-3,8.42Z" transform="translate(-1.62 -2.59)"/>
    <path d="M538.54,532c2.11,4,4.21,8.09,7,13.52l-6.71-1.78c-.5-4.25-.91-7.7-1.32-11.16Z" transform="translate(-1.62 -2.59)"/>
    <path d="M144.76,400.36c2.49,1.21,3.88,1.76,5.13,2.53s2.66,1.91,3.7,2.67l9.53-4,.61,1.46C156.37,408.53,147.84,408.06,144.76,400.36Z" transform="translate(-1.62 -2.59)"/>
    <path d="M539.61,554.33,526.5,542.2l1.57-1.71,13.1,12.08Z" transform="translate(-1.62 -2.59)"/>
    <path d="M522.75,542.73c.18,1.51.34,2.84.5,4.23l-3.41,1.52-1.76,1.63-3.89-5.53.63-1.85Z" transform="translate(-1.62 -2.59)"/>
    <path d="M622.71,302.47c-.28.61-.85,1.82-2.08,4.48-.37-3.38-.55-5.12-.88-8.18l9.47-1.52.68,2.3Z" transform="translate(-1.62 -2.59)"/>
    <path d="M601,64l-4.59,6.22-5.2-10.55Z" transform="translate(-1.62 -2.59)"/>
    <path d="M128.64,404.32q-.37,4.67-.73,9.32l-1.18.28-3.47-5.27,4.53-5.57Z" transform="translate(-1.62 -2.59)"/>
    <path d="M177.11,560.41l3.45-5.11,6,6.21-.5,1.15Z" transform="translate(-1.62 -2.59)"/>
    <path d="M478,445l-7.31,5.52c-1.26-2.22-2.43-4.29-3.62-6.37Z" transform="translate(-1.62 -2.59)"/>
    <path d="M137.63,462l-4.17,5-4.17-1.66L133,460Z" transform="translate(-1.62 -2.59)"/>
    <path d="M138.87,61.73l-4.14-4.88-4.29,2.59,1.07-5.75,2.21-1.52,6.33,8.2Z" transform="translate(-1.62 -2.59)"/>
    <path d="M97.07,354.23l5.08-3.4L106,352l.26,2-8.63,2Z" transform="translate(-1.62 -2.59)"/>
    <path d="M78.54,65.31l-5.07-1.82,10.22-4,.36,2.4Z" transform="translate(-1.62 -2.59)"/>
    <path d="M32.79,297.59l-4.05-5.12,9.09-1.94Z" transform="translate(-1.62 -2.59)"/>
    <path d="M191.88,638.07l3.14-2.63.75,2.63,3.83-1.15.48.83-4.69,4.15c0,.16.08.84.27,2.84Z" transform="translate(-1.62 -2.59)"/>
    <path d="M565.6,36.55c-.89,4.28-1.78,8.55-2.77,13.34-.63-1.7-2.07-3.6-1.69-5,.83-3.13,2.59-6,4-9Z" transform="translate(-1.62 -2.59)"/>
    <path d="M543,49.35l-5.57,3-1.64-2.48,4.59-5.19Z" transform="translate(-1.62 -2.59)"/>
    <path d="M498.75,224.11,494,229.48c-.89-1.9-1.49-3.17-2.37-5.06L488.86,222Z" transform="translate(-1.62 -2.59)"/>
    <path d="M96.67,95.85l2,3.07-4.37,3c-1-2-1.85-3.68-3.2-6.34l5.66.36Z" transform="translate(-1.62 -2.59)"/>
    <path d="M510.7,27.56l5.55-5.84c2.81,6.27-1.42,6.12-4,7.19Z" transform="translate(-1.62 -2.59)"/>
    <path d="M110.43,387.21l9.77-6,.43.65-5.26,5.86-4.17.32c-.58.61-1.34,1.4-2.09,2.2l-.83-.4,1.37-3.41Z" transform="translate(-1.62 -2.59)"/>
    <path d="M497.47,622.24c-.43,2.06-.87,4.12-1.29,6.13l-3.38.77-1.17-.92,4.65-6.91Z" transform="translate(-1.62 -2.59)"/>
    <path d="M166.3,533.7l-3.63,8-2.34-1.08,3.8-7.89Z" transform="translate(-1.62 -2.59)"/>
    <path d="M132.91,431.81l7.72,6.47c-.45.54-.91,1.07-1.37,1.61l-7.48-6.78Z" transform="translate(-1.62 -2.59)"/>
    <path d="M142.89,475.52l3.79,10.92-1.46.6q-2-5.34-4-10.67Z" transform="translate(-1.62 -2.59)"/>
    <path d="M209,98.55,215.9,96c-1.08,3.08-1.73,4.94-2.67,7.64Z" transform="translate(-1.62 -2.59)"/>
    <path d="M222.74,49.92c.73,1.58,1.31,2.86,1.9,4.14l-1.08,1.17-6-2.76.3-1.33Z" transform="translate(-1.62 -2.59)"/>
    <path d="M86.81,318.47c.71-1.91,1-3.39,1.77-4.4a2.85,2.85,0,0,1,2.76,0c.75,1.07.9,2.55,1.45,4.39Z" transform="translate(-1.62 -2.59)"/>
    <path d="M190.84,644.31l3.1,2.44-5,6.3-.91-.39C189,649.82,189.93,647,190.84,644.31Z" transform="translate(-1.62 -2.59)"/>
    <path d="M159.32,501.89c.13,1.59.27,3.18.43,5.08h-5.63c1.5-2.47,2.45-4.07,3.41-5.66Z" transform="translate(-1.62 -2.59)"/>
    <path d="M497.37,256.18l11.84-.69c-.71.77-1.38,2.11-2,2.11-3.32,0-6.64-.38-10-.63Z" transform="translate(-1.62 -2.59)"/>
    <path d="M125.18,478.63c-.48-2.45-.78-4-1.12-5.72l6.88,2Z" transform="translate(-1.62 -2.59)"/>
    <path d="M165.47,563.17l4.76-1.46c.8,1.43,1.37,2.49,2.4,4.35l-7.06-.94Z" transform="translate(-1.62 -2.59)"/>
    <path d="M110.28,191.33l-2.87,4.82-1.6-.88v-3.9l2.93-1.16Z" transform="translate(-1.62 -2.59)"/>
    <path d="M496.07,585.91,492.25,584l3.66-5.49,1.18.41C496.78,581.09,496.46,583.27,496.07,585.91Z" transform="translate(-1.62 -2.59)"/>
    <path d="M234.48,630.83l3.46,2.88L234.83,637l-2.41-3Z" transform="translate(-1.62 -2.59)"/>
    <path d="M533.71,571l9.59,11-1.23,1L533.7,571Z" transform="translate(-1.62 -2.59)"/>
    <path d="M504.15,583l-5.73-1.41c.62-1.45,1.14-2.68,2.3-5.42C502.18,579.05,502.88,580.43,504.15,583Z" transform="translate(-1.62 -2.59)"/>
    <path d="M429,624.53c-.41,2.42-.59,3.51-.94,5.57l-4.49-2.2c0-.49.08-1,.13-1.47Z" transform="translate(-1.62 -2.59)"/>
    <path d="M388.84,144l-5.46-3.28,1-3.11,4.08,1.9c.08,1.47.17,2.94.27,4.43Z" transform="translate(-1.62 -2.59)"/>
    <path d="M150.54,528.42l3.71-5.58c.82,1.58,1.33,2.59,2.16,4.19l-5.3,2.29Z" transform="translate(-1.62 -2.59)"/>
    <path d="M303.92,651.25V644l5,1.85Z" transform="translate(-1.62 -2.59)"/>
    <path d="M85,373.81l4.74-5.75,1.23.52a23.12,23.12,0,0,1-1.63,4.59C89.08,373.67,87.6,373.47,85,373.81Z" transform="translate(-1.62 -2.59)"/>
    <path d="M109.5,336.22l6.49,1.25L109.5,341Z" transform="translate(-1.62 -2.59)"/>
    <path d="M159.39,557.05l-3.94,7.15-1.35-.73,3.68-7.2Z" transform="translate(-1.62 -2.59)"/>
    <path d="M439.85,118l-4.23.64-1.78-2.07,4.84-3.68C439.31,115.59,439.52,116.52,439.85,118Z" transform="translate(-1.62 -2.59)"/>
    <path d="M433.08,477.07H438l3.41,4.3-.43.55L433.11,477Z" transform="translate(-1.62 -2.59)"/>
    <path d="M652.1,288.67c1.09-.7,2.12-1.7,3.32-2,.69-.16,1.65.85,2.25,2.58l-5,.68Z" transform="translate(-1.62 -2.59)"/>
    <path d="M102.11,242.86l.89-5.15.69,0c.61,2.58,1.21,5.16,1.93,8.24Z" transform="translate(-1.62 -2.59)"/>
    <path d="M514.51,36.45l3.11-3.37c.44,2.35.74,3.93,1.24,6.55Z" transform="translate(-1.62 -2.59)"/>
    <path d="M576.79,295.25,573,301l-2-4.6Z" transform="translate(-1.62 -2.59)"/>
    <path d="M511.89,227.44l-1.23,7.3-.58-.1v-7.4Z" transform="translate(-1.62 -2.59)"/>
    <path d="M81.94,52.81q.33-3.33.67-6.65l1.87.21-1,6.56Z" transform="translate(-1.62 -2.59)"/>
    <path d="M170.7,629.86l2.19-2v7.82l-.59.25Z" transform="translate(-1.62 -2.59)"/>
    <path d="M480.63,493.3l5.6-3.83-3,5.85Z" transform="translate(-1.62 -2.59)"/>
    <path d="M533.7,571l-6.91-4.61,1.25-1.42L533.7,571S533.7,571,533.7,571Z" transform="translate(-1.62 -2.59)"/>
    <path d="M479.05,443.05v-4.69l2.26.48c-.41,1.57-.81,3.14-1.22,4.71Z" transform="translate(-1.62 -2.59)"/>
    <path d="M184.69,592.57c-.78.69-1.52,1.83-2.36,1.91s-1.53-1.1-3.52-2.68l5.13-.4Z" transform="translate(-1.62 -2.59)"/>
    <path d="M101.63,347.47l4.63-1.3.46,1.75-4.66,1.18Z" transform="translate(-1.62 -2.59)"/>
    <path d="M494.51,619.71l3.74-5.76.88.38-3.21,6.21Z" transform="translate(-1.62 -2.59)"/>
    <path d="M182,604.25h4.94c-.56.84-.92,1.84-1.24,1.82a29.4,29.4,0,0,1-4-.69Z" transform="translate(-1.62 -2.59)"/>
    <path d="M172,602.94c.19-2.14.39-4.28.58-6.43l1.19.15-1,6.38Z" transform="translate(-1.62 -2.59)"/>
    <path d="M416.25,83.62l3.3-3.2,1.31,1.29-3,3.43Z" transform="translate(-1.62 -2.59)"/>
    <path d="M184.9,143.86l-4.65,5.06-.89-.86,4.75-5.06Z" transform="translate(-1.62 -2.59)"/>
    <path d="M145.48,537.35l2.73-3.84,1.29.84-2.42,4.11Z" transform="translate(-1.62 -2.59)"/>
    <path d="M525.67,532.21h4.47c-1,1.13-1.53,2.13-2,2.13a8.71,8.71,0,0,1-2.78-.94C525.45,533,525.56,532.61,525.67,532.21Z" transform="translate(-1.62 -2.59)"/>
    <path d="M96.29,104c-.18,1.12-.37,2.25-.55,3.37l-1.5-.13v-3.38Z" transform="translate(-1.62 -2.59)"/>
    <path d="M506,205.64l3.36-4,1.39,1.34-4.1,3.33Z" transform="translate(-1.62 -2.59)"/>
    <path d="M415,590.33l1.8,6.15-1,.34-2.19-6.1Z" transform="translate(-1.62 -2.59)"/>
    <path d="M347.92,52.67c.15-1.18.29-2.36.43-3.54l1.75.11L349.65,53Z" transform="translate(-1.62 -2.59)"/>
    <path d="M124.22,357.58l-2,3-1.12-.53,1.5-3.53Z" transform="translate(-1.62 -2.59)"/>
    <path d="M577.89,266c.09-1.1.18-2.21.37-4.66,1.39,1.72,2.38,2.41,2.38,3.11s-1,1.38-1.54,2.07Z" transform="translate(-1.62 -2.59)"/>
    <path d="M80.26,243.34c-.32,2-.26,3.19-.57,3.29-.81.28-1.77.09-4.33.09Z" transform="translate(-1.62 -2.59)"/>
    <path d="M516.4,599.94l-1.5,2.92-1.44-.67c.45-1.05.89-2.1,1.33-3.14Z" transform="translate(-1.62 -2.59)"/>
    <path d="M213.23,108.38c.52-2.1.74-3,1.11-4.53,1.08.92,1.74,1.49,2.79,2.37Z" transform="translate(-1.62 -2.59)"/>
    <path d="M96.78,96l-.64-3.75,5.06,4.14-4.53-.5Z" transform="translate(-1.62 -2.59)"/>
    <path d="M81.13,174.51c-.76.12-1.87.61-2.2.3-.53-.51-.53-1.56-1.07-3.53l3.45,2Z" transform="translate(-1.62 -2.59)"/>
    <path d="M178.66,159.51c-.14-1.15-.27-2.3-.4-3.45l1.16-.24.77,3.4Z" transform="translate(-1.62 -2.59)"/>
    <path d="M37,199.32l1.25-3,1.42.57-1.18,3Z" transform="translate(-1.62 -2.59)"/>
    <path d="M121.2,64.35l3.5-.37c-.64,1.28-1,2.4-1.24,2.4a8.84,8.84,0,0,1-2.5-.79Z" transform="translate(-1.62 -2.59)"/>
    <path d="M51.37,443.11l-1.17,2.76-1.31-.43c.29-1,.59-2,.88-3Z" transform="translate(-1.62 -2.59)"/>
    <path d="M88.24,299.29c.68.32,1.85.54,2,1,.18.8-.29,1.74-.77,3.89l-2-3.9Z" transform="translate(-1.62 -2.59)"/>
    <path d="M342,89.21l-2.12-2.8.91-.75,2.28,2.54Z" transform="translate(-1.62 -2.59)"/>
    <path d="M526.42,545.14l2,2.82-1.21.94L525,546.15Z" transform="translate(-1.62 -2.59)"/>
    <path d="M107.94,342.57l3.17-.71.37,1.35-3.13,1Z" transform="translate(-1.62 -2.59)"/>
    <path d="M509.59,250.86l3.5.75v.71l-5.48,1Z" transform="translate(-1.62 -2.59)"/>
    <path d="M290.72,74.63c-.7.88-1.41,1.76-2.11,2.65l-1.15-.85,1.89-2.82Z" transform="translate(-1.62 -2.59)"/>
    <path d="M115.24,450.43l-2.56,2c-.23-1.3-.38-2.18-.69-4Z" transform="translate(-1.62 -2.59)"/>
    <path d="M104.58,121.92l-1.53-4,.76-.34,1.89,3.89Z" transform="translate(-1.62 -2.59)"/>
    <path d="M186.46,651.66l-3.78-.72.18-1.07,3.78.53Z" transform="translate(-1.62 -2.59)"/>
    <path d="M353,119.57l2.87-.79.39,1.27-2.82.93C353.33,120.51,353.18,120,353,119.57Z" transform="translate(-1.62 -2.59)"/>
    <path d="M149,436l-3.12-.28.09-1.5,3.2.2Z" transform="translate(-1.62 -2.59)"/>
    <path d="M659.05,273.52l.82,4.48-1,.23c-.35-1.48-.69-3-1-4.44Z" transform="translate(-1.62 -2.59)"/>
    <path d="M179.16,582.67l-2.2,4-1.27-1.05,3.56-2.88Z" transform="translate(-1.62 -2.59)"/>
    <path d="M104.05,160.54l-1.36,2.56-1.31-.57,1.16-2.74Z" transform="translate(-1.62 -2.59)"/>
    <path d="M63.67,122.28,65.83,125l-.8.67L62.84,123Z" transform="translate(-1.62 -2.59)"/>
    <path d="M175.9,577.84l3.1-2.16.65.9-3.09,2.19Z" transform="translate(-1.62 -2.59)"/>
    <path d="M577,366.42c.65,1.45,1.33,2.34,1.12,2.66-.38.57-1.27.82-3.31,2C575.89,368.8,576.26,368,577,366.42Z" transform="translate(-1.62 -2.59)"/>
    <path d="M185,185.83l2.7-.39.27,1.25-2.55.82Z" transform="translate(-1.62 -2.59)"/>
    <path d="M286.54,73.23l1.22-4.13.67.11-.66,4.36Z" transform="translate(-1.62 -2.59)"/>
    <path d="M132.75,172.6,131.17,170l1.25-1.27,1.74,2.45Z" transform="translate(-1.62 -2.59)"/>
    <path d="M62.61,323.17l-.35,2.7-1.5-.28.57-2.64Z" transform="translate(-1.62 -2.59)"/>
    <path d="M511.85,257.81l-2.07,1.8-1.48-1.53,2.14-1.71Z" transform="translate(-1.62 -2.59)"/>
    <path d="M94.78,482.86l-1.61-2,1-.86,1.71,1.87Z" transform="translate(-1.62 -2.59)"/>
    <path d="M138.37,456.2l-.36,2.58-1.27-.19.42-2.57Z" transform="translate(-1.62 -2.59)"/>
    <path d="M130.27,346l-1.54,1.93-1-.7,1.33-2.13Z" transform="translate(-1.62 -2.59)"/>
    <path d="M347.59,99.72l1.79,2.08-.7.59c-.56-.71-1.13-1.41-1.7-2.12Z" transform="translate(-1.62 -2.59)"/>
    <path d="M203.73,80,201,79.86V79h2.82Z" transform="translate(-1.62 -2.59)"/>
    <path d="M631,454.74c.2-.73.4-1.45.59-2.18l1.14.29c-.17.73-.35,1.46-.52,2.19Z" transform="translate(-1.62 -2.59)"/>
    <path d="M220.38,96.23c.33.65.66,1.3,1,2l-.91.56-1.31-1.84Z" transform="translate(-1.62 -2.59)"/>
    <path d="M328.91,122.08v-2.5l.88,0v2.5Z" transform="translate(-1.62 -2.59)"/>
    <path d="M253.2,176.68l-.51-2.38a3.89,3.89,0,0,1,.92-.18c.39.72.73,1.46,1.08,2.2Z" transform="translate(-1.62 -2.59)"/>
    <path d="M461.47,85.34c.25-.92.49-1.85.73-2.77l.58.09-.36,2.88Z" transform="translate(-1.62 -2.59)"/>
    <path d="M157.8,537.65l1.15,1.86-.7.48-1.31-1.71Z" transform="translate(-1.62 -2.59)"/>
    <path d="M150.15,501.05l2.14-.94.47.91-2.18,1.16Z" transform="translate(-1.62 -2.59)"/>
    <path d="M455.51,556.64l.44,3-.87.2c-.27-1-.53-2.07-.79-3.11Z" transform="translate(-1.62 -2.59)"/>
    <path d="M210.89,633.88h-2.43a3.82,3.82,0,0,1,.09-.88c.76-.16,1.53-.25,2.29-.36Z" transform="translate(-1.62 -2.59)"/>
    <path d="M150,511v-2.22l1-.09.27,2.3Z" transform="translate(-1.62 -2.59)"/>
    <path d="M192.67,139l-3,.23,0-1,2.9.16Z" transform="translate(-1.62 -2.59)"/>
    <path d="M298.27,591l-4.38.27c.26-1.47.44-2.53.77-4.4Z" transform="translate(-1.62 -2.59)"/>
    <path d="M318.67,613.43l-2.7.27-.12-1.09,2.7-.32Z" transform="translate(-1.62 -2.59)"/>
  </symbol>

</svg>
