<?xml version="1.0" encoding="utf-8"?>
<!-- Generator: Adobe Illustrator 22.0.1, SVG Export Plug-In . SVG Version: 6.00 Build 0)  -->
<svg version="1.1" id="Слой_1" xmlns="http://www.w3.org/2000/svg" xmlns:xlink="http://www.w3.org/1999/xlink" x="0px" y="0px"
	 viewBox="0 0 32 32" style="enable-background:new 0 0 32 32;" xml:space="preserve">
<path d="M29.1,25.2c1.9-2.6,2.9-5.8,2.9-9.2c0-8.8-7.2-16-16-16S0,7.2,0,16s7.2,16,16,16c5.1,0,9.6-2.4,12.6-6.1
	c0.1,0,0.1,0.1,0.2,0.1L29.1,25.2z M4.4,23.8C3,21.8,2.2,19.5,2,17l4.5,0c0.1,2,0.4,3.9,0.7,5.6c-0.2,0.1-0.3,0.1-0.5,0.2
	C5.9,23.1,5.2,23.4,4.4,23.8C4.4,23.8,4.4,23.8,4.4,23.8z M25.5,15c-0.1-1.9-0.4-3.8-0.8-5.5c1.3-0.4,2.4-0.7,3.1-1
	c1.2,1.9,2,4.1,2.2,6.5L25.5,15z M23.5,15L17,15v-4.4c2.1-0.1,4-0.3,5.7-0.7C23.1,11.5,23.4,13.2,23.5,15z M17,8.7V2
	c1.1,0.1,2.1,0.3,3.1,0.6c0.4,0.7,1.3,2.7,2.1,5.4C20.7,8.3,18.9,8.6,17,8.7z M15,8.7c-1.9-0.1-3.7-0.3-5.2-0.5
	c0.8-2.7,1.8-4.8,2.1-5.5c1-0.3,2-0.5,3.1-0.6V8.7z M15,10.7V15l-6.5,0c0.1-1.7,0.4-3.4,0.7-5C10.9,10.4,12.9,10.6,15,10.7z M6.5,15
	L2,15c0.2-2.3,0.9-4.4,2-6.3C4.8,9,5.9,9.3,7.3,9.7C6.9,11.3,6.6,13.1,6.5,15z M8.5,17l6.5,0v4.3c-2.3,0.1-4.2,0.4-5.8,0.8
	C8.8,20.5,8.6,18.8,8.5,17z M15,23.3V30c-1.1-0.1-2.2-0.3-3.3-0.6C11.6,29,10.5,27,9.7,24C11.2,23.7,12.9,23.4,15,23.3z M17,23.3
	c1.9,0.1,3.8,0.3,5.4,0.7c-0.7,2.6-1.6,4.5-1.9,5.3c-1.1,0.4-2.2,0.6-3.4,0.7V23.3z M17,21.3V17l6.5,0c-0.1,1.8-0.3,3.5-0.7,5.1
	C21.1,21.7,19.1,21.4,17,21.3z M25.5,17l4.5,0c-0.2,2.4-0.9,4.6-2.1,6.5c-0.8-0.3-1.8-0.6-3.1-1C25.1,20.8,25.4,18.9,25.5,17z
	 M26.6,6.8c-0.7,0.2-1.5,0.5-2.4,0.8c-0.4-1.5-0.9-2.8-1.4-3.8C24.2,4.5,25.5,5.6,26.6,6.8z M9.2,3.7c-0.4,1.1-1,2.4-1.4,4
	C6.8,7.5,5.9,7.3,5.2,7C6.3,5.7,7.7,4.6,9.2,3.7z M5.6,25.4c0.5-0.2,1.2-0.5,2.2-0.9C8.2,26,8.6,27.2,9,28.1
	C7.7,27.4,6.6,26.5,5.6,25.4z M23.1,28.1c0.4-1,0.8-2.2,1.2-3.7c0.9,0.2,1.7,0.5,2.3,0.7C25.6,26.3,24.4,27.3,23.1,28.1z"/>
</svg>
