<?xml version="1.0" encoding="utf-8"?>
<!-- Generator: Adobe Illustrator 22.0.1, SVG Export Plug-In . SVG Version: 6.00 Build 0)  -->
<svg version="1.1" id="Слой_1" xmlns="http://www.w3.org/2000/svg" xmlns:xlink="http://www.w3.org/1999/xlink" x="0px" y="0px"
	 viewBox="0 0 32 32" style="enable-background:new 0 0 32 32;" xml:space="preserve">
<path d="M22.5,6.2c-1.1-0.3-2.2-0.4-3.3-0.4h-0.4l0.2-1.3l0.3-2.8h-6.4c-1.2,0-2.3,0.1-3.3,0.4C4.1,3.5,0.2,8.3,0.2,14
	c0,5.7,4,10.4,9.3,11.9c1.1,0.3,2.2,0.4,3.3,0.4h2.5l-2.6,4.1h6.4c1.2,0,2.3-0.1,3.3-0.4c5.4-1.4,9.3-6.2,9.3-11.9
	C31.8,12.4,27.9,7.6,22.5,6.2z M17.8,16l1.1,2.1L17,21.7l0.7-5.8C17.7,15.9,17.7,16,17.8,16z M13.6,17.9h-2.2l-1.4-5.1l-1.4,5.1H6.2
	L4,9.7h2.3L7.5,15L9,9.7h1.9l1.4,5.3l1.2-5.3h2.3L13.6,17.9z M22.3,29.1c-1,0.3-2.1,0.4-3.1,0.4h-4.9l2-3.2l0.1-0.2l0-0.2l0.4-3.6
	h1.9l1.8-3.4h0.8v3.4h2.1V19h0.8l1.8,3.4h2.2l-2.3-4.2l1.1-2.1c0-0.1,0.1-0.2,0.2-0.2c0.1-0.1,0.2-0.1,0.3-0.1h0.5v-1.6
	C27.8,14,27.5,14,27.3,14c-0.4,0-0.8,0.1-1,0.3c-0.3,0.2-0.5,0.5-0.6,0.8l-1.2,2.2h-0.8v-3.2h-2.1v3.2h-0.8l-1.2-2.2
	c-0.2-0.3-0.4-0.6-0.6-0.8c-0.2-0.2-0.6-0.3-0.9-0.3l0.9-7.4h0.4c1.1,0,2.1,0.1,3.1,0.4C27.4,8.3,31,12.9,31,18
	C31,23.2,27.4,27.8,22.3,29.1z"/>
</svg>
