<svg id="Layer_1" data-name="Layer 1" xmlns="http://www.w3.org/2000/svg" viewBox="0 0 110.2 102.1">
  <title>img_border_up</title>
  <path d="M154.3,98c0,7.6-7.1,9.4-11.6,17.7-2.9,5.6-2.5,18.4-5.8,21.8-4.8,4.9-17.2.6-27.9,2.3-8.6,1.4-15.5,9.4-21.4,9.4-13.5,0-13-11.5-21.6-20.6s-22-8.4-22-20.8c0-7.2,7.3-13.2,11.2-22.5,2.5-6,1-16.2,3.9-19.5,4.8-5.4,13.3-5.3,20.6-8.5S93,47.2,99.2,47.2c13.2,0,10,5.3,18.5,14.1,3.1,3.2,13.2,3.2,18.5,6.4s4.5,10.9,7.5,16.4S154.3,94.1,154.3,98Z" transform="translate(-44.1 -47.2)"/>
</svg>
