<svg id="Layer_1" data-name="Layer 1" xmlns="http://www.w3.org/2000/svg" viewBox="0 0 102.2 115.3">
  <title>img_border1</title>
  <path d="M112.2,41.3c11.7-3.4,19.3,5.8,17.8,16.9-.8,6.3.5,10.6,3.3,14.3,4.1,5.6,18.2,10,12,19.1-13.9,20.4,4.7,16.2,3.5,28.7s-17.7,4.6-28.2,11.5-10.9,26.1-23.3,24c-7.2-1.2-7.5-15.9-16-21.4-5.5-3.5-20.3,2.6-23-.7-4.6-5.7,4.2-17.1,2.3-24.9-1.5-6.2-15-11.9-13.9-18.1C49,77.5,57.4,79.2,67.6,72.2c3.7-2.5-2-12.9,4.6-17.8,9-6.7,17.8,5,23.8,3S104.2,43.6,112.2,41.3Z" transform="translate(-46.7 -40.6)"/>
</svg>
