<svg id="Layer_9" data-name="Layer 9" xmlns="http://www.w3.org/2000/svg" viewBox="0 0 737.5 737.5">
  <title>logo</title>
  <path d="M392.4,472v20.6h5l80.3.3h5V472Zm288,95.6a33.3,33.3,0,0,0-10.1-7.4l-5.5-2.8-11.9-5.5-4.7,3.4,1,.5q6.6,2.9,13.4,6.2l5.4,2.8a38.2,38.2,0,0,1,4.8,2.9,37.5,37.5,0,0,1,4.1,3.6q2.4,2.4,2.4,7.3a13,13,0,0,1-5.1,10.7q-5.1,4.1-12.7,4.1-20.9,0-39.6-12.4l2.4,7.3a74.3,74.3,0,0,0,37.2,10.1c6.3,0,11.6-1.7,15.9-5.2a18.1,18.1,0,0,0,6.9-14.5C684.3,573.8,682.9,570.2,680.4,567.6Zm-7.1,7.1a33.4,33.4,0,0,0-3.5-3.1,31.6,31.6,0,0,0-4.2-2.5l-5.3-2.7c-4.4-2.1-8.8-4.2-13.2-6H647l-3.5-1.7-22,15.8h.2c12.4,9,25.8,13.6,39.7,13.6,4,0,7.1-1,9.6-3a8.1,8.1,0,0,0,3.2-6.8C674.3,576.7,673.9,575.3,673.3,574.7ZM392.4,472v20.6h5l80.3.3h5V472Zm34.5,65.3-.4-.3-5-3.6v8.9h12.4ZM392.4,472v20.6h5l80.3.3h5V472Zm288,95.6a33.3,33.3,0,0,0-10.1-7.4l-5.5-2.8-11.9-5.5-4.7,3.4,1,.5q6.6,2.9,13.4,6.2l5.4,2.8a38.2,38.2,0,0,1,4.8,2.9,37.5,37.5,0,0,1,4.1,3.6q2.4,2.4,2.4,7.3a13,13,0,0,1-5.1,10.7q-5.1,4.1-12.7,4.1-20.9,0-39.6-12.4l2.4,7.3a74.3,74.3,0,0,0,37.2,10.1c6.3,0,11.6-1.7,15.9-5.2a18.1,18.1,0,0,0,6.9-14.5C684.3,573.8,682.9,570.2,680.4,567.6Zm-7.1,7.1a33.4,33.4,0,0,0-3.5-3.1,31.6,31.6,0,0,0-4.2-2.5l-5.3-2.7c-4.4-2.1-8.8-4.2-13.2-6H647l-3.5-1.7-22,15.8h.2c12.4,9,25.8,13.6,39.7,13.6,4,0,7.1-1,9.6-3a8.1,8.1,0,0,0,3.2-6.8C674.3,576.7,673.9,575.3,673.3,574.7ZM392.4,472v20.6h5l80.3.3h5V472Zm34.5,65.3-.4-.3-5-3.6v8.9h12.4Zm30.6,22-23.7-17-7-5-.4-.3-5-3.6-24.1-17.3-5-3.6V620.2h34.1V564.4h38ZM392.4,472v20.6h5l80.3.3h5V472Zm103.5,0v21h10.7l5.1-16,1.6-5Zm184.4,95.6a33.3,33.3,0,0,0-10.1-7.4l-5.5-2.8-11.9-5.5-4.7,3.4,1,.5q6.6,2.9,13.4,6.2l5.4,2.8a38.2,38.2,0,0,1,4.8,2.9,37.5,37.5,0,0,1,4.1,3.6q2.4,2.4,2.4,7.3a13,13,0,0,1-5.1,10.7q-5.1,4.1-12.7,4.1-20.9,0-39.6-12.4l2.4,7.3a74.3,74.3,0,0,0,37.2,10.1c6.3,0,11.6-1.7,15.9-5.2a18.1,18.1,0,0,0,6.9-14.5C684.3,573.8,682.9,570.2,680.4,567.6Zm-7.1,7.1a33.4,33.4,0,0,0-3.5-3.1,31.6,31.6,0,0,0-4.2-2.5l-5.3-2.7c-4.4-2.1-8.8-4.2-13.2-6H647l-3.5-1.7-22,15.8h.2c12.4,9,25.8,13.6,39.7,13.6,4,0,7.1-1,9.6-3a8.1,8.1,0,0,0,3.2-6.8C674.3,576.7,673.9,575.3,673.3,574.7ZM495.9,472v21h10.7l5.1-16,1.6-5Zm-103.5,0v20.6h5l80.3.3h5V472Zm65.1,87.3-23.7-17-7-5-.4-.3-5-3.6-24.1-17.3-5-3.6V620.2h34.1V564.4h38Zm0,0-23.7-17-7-5-.4-.3-5-3.6-24.1-17.3-5-3.6V620.2h34.1V564.4h38ZM392.4,472v20.6h5l80.3.3h5V472Zm103.5,0v21h10.7l5.1-16,1.6-5Zm90.7,0,1.6,5,5.1,16h9V472Zm93.8,95.6a33.3,33.3,0,0,0-10.1-7.4l-5.5-2.8-11.9-5.5-4.7,3.4,1,.5q6.6,2.9,13.4,6.2l5.4,2.8a38.2,38.2,0,0,1,4.8,2.9,37.5,37.5,0,0,1,4.1,3.6q2.4,2.4,2.4,7.3a13,13,0,0,1-5.1,10.7q-5.1,4.1-12.7,4.1-20.9,0-39.6-12.4l2.4,7.3a74.3,74.3,0,0,0,37.2,10.1c6.3,0,11.6-1.7,15.9-5.2a18.1,18.1,0,0,0,6.9-14.5C684.3,573.8,682.9,570.2,680.4,567.6Zm-7.1,7.1a33.4,33.4,0,0,0-3.5-3.1,31.6,31.6,0,0,0-4.2-2.5l-5.3-2.7c-4.4-2.1-8.8-4.2-13.2-6H647l-3.5-1.7-22,15.8h.2c12.4,9,25.8,13.6,39.7,13.6,4,0,7.1-1,9.6-3a8.1,8.1,0,0,0,3.2-6.8C674.3,576.7,673.9,575.3,673.3,574.7ZM586.6,472l1.6,5,5.1,16h9V472Zm-90.7,0v21h10.7l5.1-16,1.6-5Zm-103.5,0v20.6h5l80.3.3h5V472Zm65.1,87.3-23.7-17-7-5-.4-.3-5-3.6-24.1-17.3-5-3.6V620.2h34.1V564.4h38Zm211.6-88.2q-23.5,0-37.6,11.8a40.8,40.8,0,0,0-8.8,10h6.1l74.9-.3h5v-14Q692.6,471.2,669.1,471.2ZM457.5,559.4l-23.7-17-7-5-.4-.3-5-3.6-24.1-17.3-5-3.6V620.2h34.1V564.4h38ZM392.4,472v20.6h5l80.3.3h5V472Zm103.5,0v21h10.7l5.1-16,1.6-5Zm90.7,0,1.6,5,5.1,16h9V472Zm82.5-.9q-23.5,0-37.6,11.8a40.8,40.8,0,0,0-8.8,10h6.1l74.9-.3h5v-14Q692.6,471.2,669.1,471.2Zm11.2,96.5a33.3,33.3,0,0,0-10.1-7.4l-5.5-2.8-11.9-5.5-4.7,3.4,1,.5q6.6,2.9,13.4,6.2l5.4,2.8a38.2,38.2,0,0,1,4.8,2.9,37.5,37.5,0,0,1,4.1,3.6q2.4,2.4,2.4,7.3a13,13,0,0,1-5.1,10.7q-5.1,4.1-12.7,4.1-20.9,0-39.6-12.4l2.4,7.3a74.3,74.3,0,0,0,37.2,10.1c6.3,0,11.6-1.7,15.9-5.2a18.1,18.1,0,0,0,6.9-14.5C684.3,573.8,682.9,570.2,680.4,567.6Zm-7.1,7.1a33.4,33.4,0,0,0-3.5-3.1,31.6,31.6,0,0,0-4.2-2.5l-5.3-2.7c-4.4-2.1-8.8-4.2-13.2-6H647l-3.5-1.7-22,15.8h.2c12.4,9,25.8,13.6,39.7,13.6,4,0,7.1-1,9.6-3a8.1,8.1,0,0,0,3.2-6.8C674.3,576.7,673.9,575.3,673.3,574.7ZM586.6,472l1.6,5,5.1,16h9V472Zm-90.7,0v21h10.7l5.1-16,1.6-5Zm-103.5,0v20.6h5l80.3.3h5V472Zm65.1,87.3-23.7-17-7-5-.4-.3-5-3.6-24.1-17.3-5-3.6V620.2h34.1V564.4h38Zm211.6-88.2q-23.5,0-37.6,11.8a40.8,40.8,0,0,0-8.8,10h6.1l74.9-.3h5v-14Q692.6,471.2,669.1,471.2ZM457.5,559.4l-23.7-17-7-5-.4-.3-5-3.6-24.1-17.3-5-3.6V620.2h34.1V564.4h38ZM392.4,472v20.6h5l80.3.3h5V472Zm103.5,0v21h10.7l5.1-16,1.6-5Zm90.7,0,1.6,5,5.1,16h9V472Zm120.3,79.6a39.6,39.6,0,0,0-9.1-8.5,91.6,91.6,0,0,0-10.3-6.4l-8.2-3.9-4.7,3.4-21.8,15.7-4.7,3.4,1,.5q6.6,2.9,13.4,6.2l5.4,2.8a38.2,38.2,0,0,1,4.8,2.9,37.5,37.5,0,0,1,4.1,3.6q2.4,2.4,2.4,7.3a13,13,0,0,1-5.1,10.7q-5.1,4.1-12.7,4.1-20.9,0-39.6-12.4l2.4,7.3,8.3,25,1.9,5.8a102.9,102.9,0,0,0,26.1,3.1q25.3,0,40-12.4t14.7-32.4A41,41,0,0,0,706.9,551.6Zm-33.6,23.1a33.4,33.4,0,0,0-3.5-3.1,31.6,31.6,0,0,0-4.2-2.5l-5.3-2.7c-4.4-2.1-8.8-4.2-13.2-6H647l-3.5-1.7-22,15.8h.2c12.4,9,25.8,13.6,39.7,13.6,4,0,7.1-1,9.6-3a8.1,8.1,0,0,0,3.2-6.8C674.3,576.7,673.9,575.3,673.3,574.7Zm-4.2-103.5q-23.5,0-37.6,11.8a40.8,40.8,0,0,0-8.8,10h6.1l74.9-.3h5v-14Q692.6,471.2,669.1,471.2Zm-82.5.9,1.6,5,5.1,16h9V472Zm-90.7,0v21h10.7l5.1-16,1.6-5Zm-103.5,0v20.6h5l80.3.3h5V472Zm65.1,87.3-23.7-17-7-5-.4-.3-5-3.6-24.1-17.3-5-3.6V620.2h34.1V564.4h38Zm249.4-7.7a39.6,39.6,0,0,0-9.1-8.5,91.6,91.6,0,0,0-10.3-6.4l-8.2-3.9-4.7,3.4-21.8,15.7-4.7,3.4,1,.5q6.6,2.9,13.4,6.2l5.4,2.8a38.2,38.2,0,0,1,4.8,2.9,37.5,37.5,0,0,1,4.1,3.6q2.4,2.4,2.4,7.3a13,13,0,0,1-5.1,10.7q-5.1,4.1-12.7,4.1-20.9,0-39.6-12.4l2.4,7.3,8.3,25,1.9,5.8a102.9,102.9,0,0,0,26.1,3.1q25.3,0,40-12.4t14.7-32.4A41,41,0,0,0,706.9,551.6Zm-33.6,23.1a33.4,33.4,0,0,0-3.5-3.1,31.6,31.6,0,0,0-4.2-2.5l-5.3-2.7c-4.4-2.1-8.8-4.2-13.2-6H647l-3.5-1.7-22,15.8h.2c12.4,9,25.8,13.6,39.7,13.6,4,0,7.1-1,9.6-3a8.1,8.1,0,0,0,3.2-6.8C674.3,576.7,673.9,575.3,673.3,574.7Zm-4.2-103.5q-23.5,0-37.6,11.8a40.8,40.8,0,0,0-8.8,10h6.1l74.9-.3h5v-14Q692.6,471.2,669.1,471.2ZM457.5,559.4l-23.7-17-7-5-.4-.3-5-3.6-24.1-17.3-5-3.6V620.2h34.1V564.4h38ZM392.4,472v20.6h5l80.3.3h5V472Zm103.5,0v21h10.7l5.1-16,1.6-5Zm90.7,0,1.6,5,5.1,16h9V472Zm120.3,79.6a39.6,39.6,0,0,0-9.1-8.5,91.6,91.6,0,0,0-10.3-6.4l-8.2-3.9-4.7,3.4-21.8,15.7-4.7,3.4,1,.5q6.6,2.9,13.4,6.2l5.4,2.8a38.2,38.2,0,0,1,4.8,2.9,37.5,37.5,0,0,1,4.1,3.6q2.4,2.4,2.4,7.3a13,13,0,0,1-5.1,10.7q-5.1,4.1-12.7,4.1-20.9,0-39.6-12.4l2.4,7.3,8.3,25,1.9,5.8a102.9,102.9,0,0,0,26.1,3.1q25.3,0,40-12.4t14.7-32.4A41,41,0,0,0,706.9,551.6Zm-37.8-80.5q-23.5,0-37.6,11.8a40.8,40.8,0,0,0-8.8,10h6.1l74.9-.3h5v-14Q692.6,471.2,669.1,471.2Zm4.2,103.5a33.4,33.4,0,0,0-3.5-3.1,31.6,31.6,0,0,0-4.2-2.5l-5.3-2.7c-4.4-2.1-8.8-4.2-13.2-6H647l-3.5-1.7-22,15.8h.2c12.4,9,25.8,13.6,39.7,13.6,4,0,7.1-1,9.6-3a8.1,8.1,0,0,0,3.2-6.8C674.3,576.7,673.9,575.3,673.3,574.7ZM586.6,472l1.6,5,5.1,16h9V472Zm-90.7,0v21h10.7l5.1-16,1.6-5Zm-103.5,0v20.6h5l80.3.3h5V472Zm65.1,87.3-23.7-17-7-5-.4-.3-5-3.6-24.1-17.3-5-3.6V620.2h34.1V564.4h38Zm249.4-7.7a39.6,39.6,0,0,0-9.1-8.5,91.6,91.6,0,0,0-10.3-6.4l-8.2-3.9-4.7,3.4-21.8,15.7-4.7,3.4,1,.5q6.6,2.9,13.4,6.2l5.4,2.8a38.2,38.2,0,0,1,4.8,2.9,37.5,37.5,0,0,1,4.1,3.6q2.4,2.4,2.4,7.3a13,13,0,0,1-5.1,10.7q-5.1,4.1-12.7,4.1-20.9,0-39.6-12.4l2.4,7.3,8.3,25,1.9,5.8a102.9,102.9,0,0,0,26.1,3.1q25.3,0,40-12.4t14.7-32.4A41,41,0,0,0,706.9,551.6Zm-37.8-80.5q-23.5,0-37.6,11.8a40.8,40.8,0,0,0-8.8,10h6.1l74.9-.3h5v-14Q692.6,471.2,669.1,471.2ZM457.5,559.4l-23.7-17-7-5-.4-.3-5-3.6-24.1-17.3-5-3.6V620.2h34.1V564.4h38ZM392.4,472v20.6h5l80.3.3h5V472Zm103.5,0v21h10.7l5.1-16,1.6-5Zm90.7,0,1.6,5,5.1,16h9V472Zm86.7,102.7a33.4,33.4,0,0,0-3.5-3.1,31.6,31.6,0,0,0-4.2-2.5l-5.3-2.7c-4.4-2.1-8.8-4.2-13.2-6H647l-3.5-1.7-22,15.8h.2c12.4,9,25.8,13.6,39.7,13.6,4,0,7.1-1,9.6-3a8.1,8.1,0,0,0,3.2-6.8C674.3,576.7,673.9,575.3,673.3,574.7Zm33.6-23.1a39.6,39.6,0,0,0-9.1-8.5,91.6,91.6,0,0,0-10.3-6.4l-8.2-3.9-4.7,3.4-21.8,15.7-4.7,3.4,1,.5q6.6,2.9,13.4,6.2l5.4,2.8a38.2,38.2,0,0,1,4.8,2.9,37.5,37.5,0,0,1,4.1,3.6q2.4,2.4,2.4,7.3a13,13,0,0,1-5.1,10.7q-5.1,4.1-12.7,4.1-20.9,0-39.6-12.4l2.4,7.3,8.3,25,1.9,5.8a102.9,102.9,0,0,0,26.1,3.1q25.3,0,40-12.4t14.7-32.4A41,41,0,0,0,706.9,551.6Zm-3.2-59h5v-14q-16.1-7.5-39.6-7.5t-37.6,11.8a40.8,40.8,0,0,0-8.8,10h6.1Zm-32.6,92.6a8.1,8.1,0,0,0,3.2-6.8c0-1.8-.3-3.1-1-3.7a33.4,33.4,0,0,0-3.5-3.1,31.6,31.6,0,0,0-4.2-2.5l-5.3-2.7c-4.4-2.1-8.8-4.2-13.2-6H647l-3.5-1.7-22,15.8h.2c12.4,9,25.8,13.6,39.7,13.6C665.4,588.2,668.6,587.2,671.1,585.2ZM588.2,477l5.1,16h9V472H586.6Zm-92.3,16h10.7l5.1-16,1.6-5H495.9Zm-103.5-.4h5l80.3.3h5V472H392.4Zm41.4,49.7-7-5-.4-.3-5-3.6-24.1-17.3-5-3.6V620.2h34.1V564.4h38l-6.9-5Zm264,.8a91.6,91.6,0,0,0-10.3-6.4l-8.2-3.9-4.7,3.4-21.8,15.7-4.7,3.4,1,.5q6.6,2.9,13.4,6.2l5.4,2.8a38.2,38.2,0,0,1,4.8,2.9,37.5,37.5,0,0,1,4.1,3.6q2.4,2.4,2.4,7.3a13,13,0,0,1-5.1,10.7q-5.1,4.1-12.7,4.1-20.9,0-39.6-12.4l2.4,7.3,8.3,25,1.9,5.8a102.9,102.9,0,0,0,26.1,3.1q25.3,0,40-12.4t14.7-32.4a41,41,0,0,0-8.4-25.5A39.6,39.6,0,0,0,697.8,543.2Zm5.9-50.6h5v-14q-16.1-7.5-39.6-7.5t-37.6,11.8a40.8,40.8,0,0,0-8.8,10h6.1ZM550,335.2c-118.6,0-214.8,96.2-214.8,214.8S431.4,764.8,550,764.8,764.8,668.6,764.8,550,668.6,335.2,550,335.2ZM703.8,613.3c-10.7,9-25.2,13.6-43.2,13.6a111.5,111.5,0,0,1-24.3-2.5l28.3,85.9L550,626.4l-114.6,84,44.5-134.9-8.5-6.1H431.5v55.8H387.4V508.9l-22.8-16.4h22.8V467H487.7v26h3.2V467H515l35-109.3L585,467h22.3v26H617a45.2,45.2,0,0,1,11.4-13.9c10.3-8.6,24-12.9,40.8-12.9s30.3,2.7,41.7,7.9l2.9,1.4v17.1h21.7l-21.7,15.6V519l-7.5-4.4-.9-.5L684,529.5l5.8,2.8a98.9,98.9,0,0,1,10.9,6.7,44.8,44.8,0,0,1,10.3,9.6,46,46,0,0,1,9.4,28.5C720.3,591.9,714.7,604.1,703.8,613.3Zm-32.7-28.2a8.1,8.1,0,0,0,3.2-6.8c0-1.8-.3-3.1-1-3.7a33.4,33.4,0,0,0-3.5-3.1,31.6,31.6,0,0,0-4.2-2.5l-5.3-2.7c-4.4-2.1-8.8-4.2-13.2-6H647l-3.5-1.7-22,15.8h.2c12.4,9,25.8,13.6,39.7,13.6C665.4,588.2,668.6,587.2,671.1,585.2ZM588.2,477l5.1,16h9V472H586.6Zm-92.3,16h10.7l5.1-16,1.6-5H495.9Zm-103.5-.4h5l80.3.3h5V472H392.4Zm41.4,49.7-7-5-.4-.3-5-3.6-24.1-17.3-5-3.6V620.2h34.1V564.4h38l-6.9-5Zm235.3-71.2q-23.5,0-37.6,11.8a40.8,40.8,0,0,0-8.8,10h6.1l74.9-.3h5v-14Q692.6,471.2,669.1,471.2Zm37.8,80.5a39.6,39.6,0,0,0-9.1-8.5,91.6,91.6,0,0,0-10.3-6.4l-8.2-3.9-4.7,3.4-21.8,15.7-4.7,3.4,1,.5q6.6,2.9,13.4,6.2l5.4,2.8a38.2,38.2,0,0,1,4.8,2.9,37.5,37.5,0,0,1,4.1,3.6q2.4,2.4,2.4,7.3a13,13,0,0,1-5.1,10.7q-5.1,4.1-12.7,4.1-20.9,0-39.6-12.4l2.4,7.3,8.3,25,1.9,5.8a102.9,102.9,0,0,0,26.1,3.1q25.3,0,40-12.4t14.7-32.4A41,41,0,0,0,706.9,551.6Zm-249.4,7.8-23.7-17-7-5-.4-.3-5-3.6-24.1-17.3-5-3.6V620.2h34.1V564.4h38ZM392.4,472v20.6h5l80.3.3h5V472Zm103.5,0v21h10.7l5.1-16,1.6-5Zm90.7,0,1.6,5,5.1,16h9V472Zm86.7,102.7a33.4,33.4,0,0,0-3.5-3.1,31.6,31.6,0,0,0-4.2-2.5l-5.3-2.7c-4.4-2.1-8.8-4.2-13.2-6H647l-3.5-1.7-22,15.8h.2c12.4,9,25.8,13.6,39.7,13.6,4,0,7.1-1,9.6-3a8.1,8.1,0,0,0,3.2-6.8C674.3,576.7,673.9,575.3,673.3,574.7Zm-4.2-103.5q-23.5,0-37.6,11.8a40.8,40.8,0,0,0-8.8,10h6.1l74.9-.3h5v-14Q692.6,471.2,669.1,471.2Zm37.8,80.5a39.6,39.6,0,0,0-9.1-8.5,91.6,91.6,0,0,0-10.3-6.4l-8.2-3.9-4.7,3.4-21.8,15.7-4.7,3.4,1,.5q6.6,2.9,13.4,6.2l5.4,2.8a38.2,38.2,0,0,1,4.8,2.9,37.5,37.5,0,0,1,4.1,3.6q2.4,2.4,2.4,7.3a13,13,0,0,1-5.1,10.7q-5.1,4.1-12.7,4.1-20.9,0-39.6-12.4l2.4,7.3,8.3,25,1.9,5.8a102.9,102.9,0,0,0,26.1,3.1q25.3,0,40-12.4t14.7-32.4A41,41,0,0,0,706.9,551.6Zm-33.6,23.1a33.4,33.4,0,0,0-3.5-3.1,31.6,31.6,0,0,0-4.2-2.5l-5.3-2.7c-4.4-2.1-8.8-4.2-13.2-6H647l-3.5-1.7-22,15.8h.2c12.4,9,25.8,13.6,39.7,13.6,4,0,7.1-1,9.6-3a8.1,8.1,0,0,0,3.2-6.8C674.3,576.7,673.9,575.3,673.3,574.7ZM586.6,472l1.6,5,5.1,16h9V472Zm-90.7,0v21h10.7l5.1-16,1.6-5Zm-103.5,0v20.6h5l80.3.3h5V472Zm65.1,87.3-23.7-17-7-5-.4-.3-5-3.6-24.1-17.3-5-3.6V620.2h34.1V564.4h38Zm211.6-88.2q-23.5,0-37.6,11.8a40.8,40.8,0,0,0-8.8,10h6.1l74.9-.3h5v-14Q692.6,471.2,669.1,471.2Zm37.8,80.5a39.6,39.6,0,0,0-9.1-8.5,91.6,91.6,0,0,0-10.3-6.4l-8.2-3.9-4.7,3.4-21.8,15.7-4.7,3.4,1,.5q6.6,2.9,13.4,6.2l5.4,2.8a38.2,38.2,0,0,1,4.8,2.9,37.5,37.5,0,0,1,4.1,3.6q2.4,2.4,2.4,7.3a13,13,0,0,1-5.1,10.7q-5.1,4.1-12.7,4.1-20.9,0-39.6-12.4l2.4,7.3,8.3,25,1.9,5.8a102.9,102.9,0,0,0,26.1,3.1q25.3,0,40-12.4t14.7-32.4A41,41,0,0,0,706.9,551.6Zm-33.6,23.1a33.4,33.4,0,0,0-3.5-3.1,31.6,31.6,0,0,0-4.2-2.5l-5.3-2.7c-4.4-2.1-8.8-4.2-13.2-6H647l-3.5-1.7-22,15.8h.2c12.4,9,25.8,13.6,39.7,13.6,4,0,7.1-1,9.6-3a8.1,8.1,0,0,0,3.2-6.8C674.3,576.7,673.9,575.3,673.3,574.7ZM457.5,559.4l-23.7-17-7-5-.4-.3-5-3.6-24.1-17.3-5-3.6V620.2h34.1V564.4h38ZM392.4,472v20.6h5l80.3.3h5V472Zm103.5,0v21h10.7l5.1-16,1.6-5Zm90.7,0,1.6,5,5.1,16h9V472Zm82.5-.9q-23.5,0-37.6,11.8a40.8,40.8,0,0,0-8.8,10h6.1l74.9-.3h5v-14Q692.6,471.2,669.1,471.2Zm37.8,80.5a39.6,39.6,0,0,0-9.1-8.5,91.6,91.6,0,0,0-10.3-6.4l-8.2-3.9-4.7,3.4-21.8,15.7-4.7,3.4,1,.5q6.6,2.9,13.4,6.2l5.4,2.8a38.2,38.2,0,0,1,4.8,2.9,37.5,37.5,0,0,1,4.1,3.6q2.4,2.4,2.4,7.3a13,13,0,0,1-5.1,10.7q-5.1,4.1-12.7,4.1-20.9,0-39.6-12.4l2.4,7.3,8.3,25,1.9,5.8a102.9,102.9,0,0,0,26.1,3.1q25.3,0,40-12.4t14.7-32.4A41,41,0,0,0,706.9,551.6Zm-33.6,23.1a33.4,33.4,0,0,0-3.5-3.1,31.6,31.6,0,0,0-4.2-2.5l-5.3-2.7c-4.4-2.1-8.8-4.2-13.2-6H647l-3.5-1.7-22,15.8h.2c12.4,9,25.8,13.6,39.7,13.6,4,0,7.1-1,9.6-3a8.1,8.1,0,0,0,3.2-6.8C674.3,576.7,673.9,575.3,673.3,574.7ZM586.6,472l1.6,5,5.1,16h9V472Zm-90.7,0v21h10.7l5.1-16,1.6-5Zm-103.5,0v20.6h5l80.3.3h5V472Zm65.1,87.3-23.7-17-7-5-.4-.3-5-3.6-24.1-17.3-5-3.6V620.2h34.1V564.4h38Zm211.6-88.2q-23.5,0-37.6,11.8a40.8,40.8,0,0,0-8.8,10h6.1l74.9-.3h5v-14Q692.6,471.2,669.1,471.2Zm37.8,80.5a39.6,39.6,0,0,0-9.1-8.5,91.6,91.6,0,0,0-10.3-6.4l-8.2-3.9-4.7,3.4-21.8,15.7-4.7,3.4,1,.5q6.6,2.9,13.4,6.2l5.4,2.8a38.2,38.2,0,0,1,4.8,2.9,37.5,37.5,0,0,1,4.1,3.6q2.4,2.4,2.4,7.3a13,13,0,0,1-5.1,10.7q-5.1,4.1-12.7,4.1-20.9,0-39.6-12.4l2.4,7.3,8.3,25,1.9,5.8a102.9,102.9,0,0,0,26.1,3.1q25.3,0,40-12.4t14.7-32.4A41,41,0,0,0,706.9,551.6Zm-33.6,23.1a33.4,33.4,0,0,0-3.5-3.1,31.6,31.6,0,0,0-4.2-2.5l-5.3-2.7c-4.4-2.1-8.8-4.2-13.2-6H647l-3.5-1.7-22,15.8h.2c12.4,9,25.8,13.6,39.7,13.6,4,0,7.1-1,9.6-3a8.1,8.1,0,0,0,3.2-6.8C674.3,576.7,673.9,575.3,673.3,574.7ZM457.5,559.4l-23.7-17-7-5-.4-.3-5-3.6-24.1-17.3-5-3.6V620.2h34.1V564.4h38ZM392.4,472v20.6h5l80.3.3h5V472Zm103.5,0v21h10.7l5.1-16,1.6-5Zm90.7,0,1.6,5,5.1,16h9V472Zm93.8,95.6a33.3,33.3,0,0,0-10.1-7.4l-5.5-2.8-11.9-5.5-4.7,3.4,1,.5q6.6,2.9,13.4,6.2l5.4,2.8a38.2,38.2,0,0,1,4.8,2.9,37.5,37.5,0,0,1,4.1,3.6q2.4,2.4,2.4,7.3a13,13,0,0,1-5.1,10.7q-5.1,4.1-12.7,4.1-20.9,0-39.6-12.4l2.4,7.3a74.3,74.3,0,0,0,37.2,10.1c6.3,0,11.6-1.7,15.9-5.2a18.1,18.1,0,0,0,6.9-14.5C684.3,573.8,682.9,570.2,680.4,567.6Zm-7.1,7.1a33.4,33.4,0,0,0-3.5-3.1,31.6,31.6,0,0,0-4.2-2.5l-5.3-2.7c-4.4-2.1-8.8-4.2-13.2-6H647l-3.5-1.7-22,15.8h.2c12.4,9,25.8,13.6,39.7,13.6,4,0,7.1-1,9.6-3a8.1,8.1,0,0,0,3.2-6.8C674.3,576.7,673.9,575.3,673.3,574.7Zm-4.2-103.5q-23.5,0-37.6,11.8a40.8,40.8,0,0,0-8.8,10h6.1l74.9-.3h5v-14Q692.6,471.2,669.1,471.2Zm-82.5.9,1.6,5,5.1,16h9V472Zm-90.7,0v21h10.7l5.1-16,1.6-5Zm-103.5,0v20.6h5l80.3.3h5V472Zm65.1,87.3-23.7-17-7-5-.4-.3-5-3.6-24.1-17.3-5-3.6V620.2h34.1V564.4h38Zm211.6-88.2q-23.5,0-37.6,11.8a40.8,40.8,0,0,0-8.8,10h6.1l74.9-.3h5v-14Q692.6,471.2,669.1,471.2ZM457.5,559.4l-23.7-17-7-5-.4-.3-5-3.6-24.1-17.3-5-3.6V620.2h34.1V564.4h38ZM392.4,472v20.6h5l80.3.3h5V472Zm103.5,0v21h10.7l5.1-16,1.6-5Zm90.7,0,1.6,5,5.1,16h9V472Zm93.8,95.6a33.3,33.3,0,0,0-10.1-7.4l-5.5-2.8-11.9-5.5-4.7,3.4,1,.5q6.6,2.9,13.4,6.2l5.4,2.8a38.2,38.2,0,0,1,4.8,2.9,37.5,37.5,0,0,1,4.1,3.6q2.4,2.4,2.4,7.3a13,13,0,0,1-5.1,10.7q-5.1,4.1-12.7,4.1-20.9,0-39.6-12.4l2.4,7.3a74.3,74.3,0,0,0,37.2,10.1c6.3,0,11.6-1.7,15.9-5.2a18.1,18.1,0,0,0,6.9-14.5C684.3,573.8,682.9,570.2,680.4,567.6Zm-7.1,7.1a33.4,33.4,0,0,0-3.5-3.1,31.6,31.6,0,0,0-4.2-2.5l-5.3-2.7c-4.4-2.1-8.8-4.2-13.2-6H647l-3.5-1.7-22,15.8h.2c12.4,9,25.8,13.6,39.7,13.6,4,0,7.1-1,9.6-3a8.1,8.1,0,0,0,3.2-6.8C674.3,576.7,673.9,575.3,673.3,574.7Zm-4.2-103.5q-23.5,0-37.6,11.8a40.8,40.8,0,0,0-8.8,10h6.1l74.9-.3h5v-14Q692.6,471.2,669.1,471.2Zm-82.5.9,1.6,5,5.1,16h9V472Zm-90.7,0v21h10.7l5.1-16,1.6-5Zm-103.5,0v20.6h5l80.3.3h5V472Zm65.1,87.3-23.7-17-7-5-.4-.3-5-3.6-24.1-17.3-5-3.6V620.2h34.1V564.4h38Zm0,0-23.7-17-7-5-.4-.3-5-3.6-24.1-17.3-5-3.6V620.2h34.1V564.4h38ZM392.4,472v20.6h5l80.3.3h5V472Zm103.5,0v21h10.7l5.1-16,1.6-5Zm90.7,0,1.6,5,5.1,16h9V472Zm93.8,95.6a33.3,33.3,0,0,0-10.1-7.4l-5.5-2.8-11.9-5.5-4.7,3.4,1,.5q6.6,2.9,13.4,6.2l5.4,2.8a38.2,38.2,0,0,1,4.8,2.9,37.5,37.5,0,0,1,4.1,3.6q2.4,2.4,2.4,7.3a13,13,0,0,1-5.1,10.7q-5.1,4.1-12.7,4.1-20.9,0-39.6-12.4l2.4,7.3a74.3,74.3,0,0,0,37.2,10.1c6.3,0,11.6-1.7,15.9-5.2a18.1,18.1,0,0,0,6.9-14.5C684.3,573.8,682.9,570.2,680.4,567.6Zm-7.1,7.1a33.4,33.4,0,0,0-3.5-3.1,31.6,31.6,0,0,0-4.2-2.5l-5.3-2.7c-4.4-2.1-8.8-4.2-13.2-6H647l-3.5-1.7-22,15.8h.2c12.4,9,25.8,13.6,39.7,13.6,4,0,7.1-1,9.6-3a8.1,8.1,0,0,0,3.2-6.8C674.3,576.7,673.9,575.3,673.3,574.7ZM586.6,472l1.6,5,5.1,16h9V472Zm-90.7,0v21h10.7l5.1-16,1.6-5Zm-103.5,0v20.6h5l80.3.3h5V472Zm65.1,87.3-23.7-17-7-5-.4-.3-5-3.6-24.1-17.3-5-3.6V620.2h34.1V564.4h38Zm0,0-23.7-17-7-5-.4-.3-5-3.6-24.1-17.3-5-3.6V620.2h34.1V564.4h38ZM392.4,472v20.6h5l80.3.3h5V472Zm288,95.6a33.3,33.3,0,0,0-10.1-7.4l-5.5-2.8-11.9-5.5-4.7,3.4,1,.5q6.6,2.9,13.4,6.2l5.4,2.8a38.2,38.2,0,0,1,4.8,2.9,37.5,37.5,0,0,1,4.1,3.6q2.4,2.4,2.4,7.3a13,13,0,0,1-5.1,10.7q-5.1,4.1-12.7,4.1-20.9,0-39.6-12.4l2.4,7.3a74.3,74.3,0,0,0,37.2,10.1c6.3,0,11.6-1.7,15.9-5.2a18.1,18.1,0,0,0,6.9-14.5C684.3,573.8,682.9,570.2,680.4,567.6Zm-7.1,7.1a33.4,33.4,0,0,0-3.5-3.1,31.6,31.6,0,0,0-4.2-2.5l-5.3-2.7c-4.4-2.1-8.8-4.2-13.2-6H647l-3.5-1.7-22,15.8h.2c12.4,9,25.8,13.6,39.7,13.6,4,0,7.1-1,9.6-3a8.1,8.1,0,0,0,3.2-6.8C674.3,576.7,673.9,575.3,673.3,574.7ZM392.4,472v20.6h5l80.3.3h5V472Zm65.1,87.3-23.7-17-7-5-.4-.3-5-3.6-24.1-17.3-5-3.6V620.2h34.1V564.4h38Zm-30.6-22-.4-.3-5-3.6v8.9h12.4ZM392.4,472v20.6h5l80.3.3h5V472Zm288,95.6a33.3,33.3,0,0,0-10.1-7.4l-5.5-2.8-11.9-5.5-4.7,3.4,1,.5q6.6,2.9,13.4,6.2l5.4,2.8a38.2,38.2,0,0,1,4.8,2.9,37.5,37.5,0,0,1,4.1,3.6q2.4,2.4,2.4,7.3a13,13,0,0,1-5.1,10.7q-5.1,4.1-12.7,4.1-20.9,0-39.6-12.4l2.4,7.3a74.3,74.3,0,0,0,37.2,10.1c6.3,0,11.6-1.7,15.9-5.2a18.1,18.1,0,0,0,6.9-14.5C684.3,573.8,682.9,570.2,680.4,567.6Zm-7.1,7.1a33.4,33.4,0,0,0-3.5-3.1,31.6,31.6,0,0,0-4.2-2.5l-5.3-2.7c-4.4-2.1-8.8-4.2-13.2-6H647l-3.5-1.7-22,15.8h.2c12.4,9,25.8,13.6,39.7,13.6,4,0,7.1-1,9.6-3a8.1,8.1,0,0,0,3.2-6.8C674.3,576.7,673.9,575.3,673.3,574.7ZM392.4,472v20.6h5l80.3.3h5V472Zm34.5,65.3-.4-.3-5-3.6v8.9h12.4Zm253.5,30.3a33.3,33.3,0,0,0-10.1-7.4l-5.5-2.8-11.9-5.5-4.7,3.4,1,.5q6.6,2.9,13.4,6.2l5.4,2.8a38.2,38.2,0,0,1,4.8,2.9,37.5,37.5,0,0,1,4.1,3.6q2.4,2.4,2.4,7.3a13,13,0,0,1-5.1,10.7q-5.1,4.1-12.7,4.1-20.9,0-39.6-12.4l2.4,7.3a74.3,74.3,0,0,0,37.2,10.1c6.3,0,11.6-1.7,15.9-5.2a18.1,18.1,0,0,0,6.9-14.5C684.3,573.8,682.9,570.2,680.4,567.6Zm-7.1,7.1a33.4,33.4,0,0,0-3.5-3.1,31.6,31.6,0,0,0-4.2-2.5l-5.3-2.7c-4.4-2.1-8.8-4.2-13.2-6H647l-3.5-1.7-22,15.8h.2c12.4,9,25.8,13.6,39.7,13.6,4,0,7.1-1,9.6-3a8.1,8.1,0,0,0,3.2-6.8C674.3,576.7,673.9,575.3,673.3,574.7Z" transform="translate(-181.2 -181.3)"/>
  <g>
    <path d="M392.4,472V620.2h34.1V564.4h49v-27h-49V499.1h56.3V472Z" transform="translate(-181.2 -181.3)"/>
    <path d="M495.9,472v27.3h36.3V620.2h34.1V499.3h36V472Z" transform="translate(-181.2 -181.3)"/>
    <path d="M706.9,551.6a39.6,39.6,0,0,0-9.1-8.5,91.6,91.6,0,0,0-10.3-6.4l-8.2-3.9-5.2-2.3a69.8,69.8,0,0,1-14.4-8.2q-5.5-4.3-5.5-9.8a11,11,0,0,1,4.5-9q4.5-3.5,13.1-3.5a72.6,72.6,0,0,1,36.9,10.3V478.6q-16.1-7.5-39.6-7.5t-37.6,11.8a40.8,40.8,0,0,0-8.8,10,36.1,36.1,0,0,0-5.3,19.3q0,17.6,8.7,27.3t22,15.8l1,.5q6.6,2.9,13.4,6.2l5.4,2.8a38.2,38.2,0,0,1,4.8,2.9,37.5,37.5,0,0,1,4.1,3.6q2.4,2.4,2.4,7.3a13,13,0,0,1-5.1,10.7q-5.1,4.1-12.7,4.1-20.9,0-39.6-12.4l-3-2.1v34.1a66,66,0,0,0,15.6,6.2,102.9,102.9,0,0,0,26.1,3.1q25.3,0,40-12.4t14.7-32.4A41,41,0,0,0,706.9,551.6Z" transform="translate(-181.2 -181.3)"/>
  </g>
  <g>
    <polygon points="368.8 102.1 377.8 0 359.7 0 368.8 102.1"/>
    <polygon points="345.5 103.1 345.7 0.6 327.5 2.2 345.5 103.1"/>
    <polygon points="322.4 106.1 313.7 4 295.8 7.2 322.4 106.1"/>
    <polygon points="299.7 111.2 282.1 10.2 264.5 14.9 299.7 111.2"/>
    <polygon points="277.5 118.2 251.2 19.1 234.1 25.4 277.5 118.2"/>
    <polygon points="256.1 127.1 221.2 30.7 204.7 38.4 256.1 127.1"/>
    <polygon points="235.4 137.8 192.3 44.9 176.5 54 235.4 137.8"/>
    <polygon points="215.8 150.3 164.7 61.5 149.8 71.9 215.8 150.3"/>
    <polygon points="197.3 164.5 138.7 80.4 124.8 92.1 197.3 164.5"/>
    <polygon points="180.2 180.2 114.4 101.6 101.6 114.4 180.2 180.2"/>
    <polygon points="164.5 197.3 92.1 124.8 80.4 138.7 164.5 197.3"/>
    <polygon points="150.3 215.8 71.9 149.8 61.5 164.7 150.3 215.8"/>
    <polygon points="137.8 235.4 54 176.5 44.9 192.3 137.8 235.4"/>
    <polygon points="127.1 256.1 38.4 204.7 30.7 221.2 127.1 256.1"/>
    <polygon points="118.2 277.5 25.4 234.1 19.1 251.2 118.2 277.5"/>
    <polygon points="111.2 299.7 14.9 264.5 10.2 282.1 111.2 299.7"/>
    <polygon points="106.1 322.4 7.2 295.8 4 313.7 106.1 322.4"/>
    <polygon points="103.1 345.5 2.2 327.5 0.6 345.7 103.1 345.5"/>
    <polygon points="102.1 368.8 0 359.7 0 377.8 102.1 368.8"/>
    <polygon points="103.1 392 0.6 391.8 2.2 410 103.1 392"/>
    <polygon points="106.1 415.1 4 423.8 7.2 441.7 106.1 415.1"/>
    <polygon points="111.2 437.8 10.2 455.4 14.9 473 111.2 437.8"/>
    <polygon points="118.2 460 19.1 486.3 25.4 503.4 118.2 460"/>
    <polygon points="127.1 481.4 30.7 516.3 38.4 532.8 127.1 481.4"/>
    <polygon points="137.8 502.1 44.9 545.2 54 561 137.8 502.1"/>
    <polygon points="150.3 521.7 61.5 572.8 71.9 587.7 150.3 521.7"/>
    <polygon points="164.5 540.2 80.4 598.8 92.1 612.7 164.5 540.2"/>
    <polygon points="180.2 557.3 101.6 623.1 114.4 635.9 180.2 557.3"/>
    <polygon points="197.3 573 124.8 645.4 138.7 657.1 197.3 573"/>
    <polygon points="215.8 587.2 149.8 665.6 164.7 676 215.8 587.2"/>
    <polygon points="235.4 599.7 176.5 683.5 192.3 692.6 235.4 599.7"/>
    <polygon points="256.1 610.4 204.7 699.1 221.2 706.8 256.1 610.4"/>
    <polygon points="277.5 619.3 234.1 712.1 251.2 718.4 277.5 619.3"/>
    <polygon points="299.7 626.3 264.5 722.6 282.1 727.3 299.7 626.3"/>
    <polygon points="322.4 631.4 295.8 730.3 313.7 733.5 322.4 631.4"/>
    <polygon points="345.5 634.4 327.5 735.3 345.7 736.9 345.5 634.4"/>
    <polygon points="368.8 635.4 359.7 737.5 377.8 737.5 368.8 635.4"/>
    <polygon points="392 634.4 391.8 736.9 410 735.3 392 634.4"/>
    <polygon points="415.1 631.4 423.8 733.5 441.7 730.3 415.1 631.4"/>
    <polygon points="437.8 626.3 455.4 727.3 473 722.6 437.8 626.3"/>
    <polygon points="460 619.3 486.3 718.4 503.4 712.1 460 619.3"/>
    <polygon points="481.4 610.4 516.3 706.8 532.8 699.1 481.4 610.4"/>
    <polygon points="502.1 599.7 545.2 692.6 561 683.5 502.1 599.7"/>
    <polygon points="521.7 587.2 572.8 676 587.7 665.6 521.7 587.2"/>
    <polygon points="540.2 573 598.8 657.1 612.7 645.4 540.2 573"/>
    <polygon points="557.3 557.3 623.1 635.9 635.9 623.1 557.3 557.3"/>
    <polygon points="573 540.2 645.4 612.7 657.1 598.8 573 540.2"/>
    <polygon points="587.2 521.7 665.6 587.7 676 572.8 587.2 521.7"/>
    <polygon points="599.7 502.1 683.5 561 692.6 545.2 599.7 502.1"/>
    <polygon points="610.4 481.4 699.1 532.8 706.8 516.3 610.4 481.4"/>
    <polygon points="619.3 460 712.1 503.4 718.4 486.3 619.3 460"/>
    <polygon points="626.3 437.8 722.6 473 727.3 455.4 626.3 437.8"/>
    <polygon points="631.4 415.1 730.3 441.7 733.5 423.8 631.4 415.1"/>
    <polygon points="634.4 392 735.3 410 736.9 391.8 634.4 392"/>
    <polygon points="635.4 368.8 737.5 377.8 737.5 359.7 635.4 368.8"/>
    <polygon points="634.4 345.5 736.9 345.7 735.3 327.5 634.4 345.5"/>
    <polygon points="631.4 322.4 733.5 313.7 730.3 295.8 631.4 322.4"/>
    <polygon points="626.3 299.7 727.3 282.1 722.6 264.5 626.3 299.7"/>
    <polygon points="619.3 277.5 718.4 251.2 712.1 234.1 619.3 277.5"/>
    <polygon points="610.4 256.1 706.8 221.2 699.1 204.7 610.4 256.1"/>
    <polygon points="599.7 235.4 692.6 192.3 683.5 176.5 599.7 235.4"/>
    <polygon points="587.2 215.8 676 164.7 665.6 149.8 587.2 215.8"/>
    <polygon points="573 197.3 657.1 138.7 645.4 124.8 573 197.3"/>
    <polygon points="557.3 180.2 635.9 114.4 623.1 101.6 557.3 180.2"/>
    <polygon points="540.2 164.5 612.7 92.1 598.8 80.4 540.2 164.5"/>
    <polygon points="521.7 150.3 587.7 71.9 572.8 61.5 521.7 150.3"/>
    <polygon points="502.1 137.8 561 54 545.2 44.9 502.1 137.8"/>
    <polygon points="481.4 127.1 532.8 38.4 516.3 30.7 481.4 127.1"/>
    <polygon points="460 118.2 503.4 25.4 486.3 19.1 460 118.2"/>
    <polygon points="437.8 111.2 473 14.9 455.4 10.2 437.8 111.2"/>
    <polygon points="415.1 106.1 441.7 7.2 423.8 4 415.1 106.1"/>
    <polygon points="392 103.1 410 2.2 391.8 0.6 392 103.1"/>
  </g>
  <g>
    <path d="M402.6,753.5l-3.7-2.6,7.5-23.5,3.2,2.2q-5.2,15.6-6.9,19.6,1.7-1.6,16.1-13.2l3.2,2.2-6.7,19.8q1.9-1.7,16.4-13.1l3.1,2.2-19.6,15.1-3.7-2.6,2.6-7.6,4.1-11.5Z" transform="translate(-181.2 -181.3)"/>
    <path d="M437,774.8a11.7,11.7,0,0,1-6.2-6.9,11.9,11.9,0,0,1,1.1-9.3q2.5-4.9,6.6-6.5a9.6,9.6,0,0,1,8.1.5,9.2,9.2,0,0,1,5,5.8q1,3.7-1.4,8.4a15.1,15.1,0,0,1-1.5,2.3l-14.3-7.4a7.9,7.9,0,0,0-.1,6,9.1,9.1,0,0,0,4.5,4.4,10.7,10.7,0,0,0,6.2,1.4l-1.6,3.1A14.3,14.3,0,0,1,437,774.8Zm11.4-15.7a5.5,5.5,0,0,0-3-3.5,6.2,6.2,0,0,0-5-.4,8.7,8.7,0,0,0-4.4,3.8l11.3,5.8.4-.8A6.7,6.7,0,0,0,448.4,759.1Z" transform="translate(-181.2 -181.3)"/>
    <path d="M480.6,791.9l-3.5-1.2,4.8-14.5a5.5,5.5,0,0,0,0-4.2,4.9,4.9,0,0,0-3.1-2.5,6,6,0,0,0-4.7.5,7.9,7.9,0,0,0-3.6,4.8l-4,12.3-3.5-1.1,10.3-31.3,3.5,1.1-4.2,12.7q3.4-3.5,8.5-1.9a7.4,7.4,0,0,1,4.5,3.7,7.7,7.7,0,0,1,.2,6Z" transform="translate(-181.2 -181.3)"/>
    <path d="M494.9,795.6a7.4,7.4,0,0,1-4.8-3,6.8,6.8,0,0,1-.9-5.5,6,6,0,0,1,3.6-4.4,11.7,11.7,0,0,1,7.3-.4l4.2.9.3-1.2a6.2,6.2,0,0,0-.3-4.4q-.9-1.7-4.2-2.4a11,11,0,0,0-6.6.6l.8-3.6a13.2,13.2,0,0,1,7.2-.1q8.7,1.9,6.8,10.7L505,797.5l-3.6-.8.6-2.7Q499.6,796.6,494.9,795.6ZM493,788a3.7,3.7,0,0,0,.5,3,5,5,0,0,0,3.2,1.8,5.4,5.4,0,0,0,4.1-.6,4.8,4.8,0,0,0,2.2-3.2l.6-3-4-.9a7.2,7.2,0,0,0-4.6.2A3.6,3.6,0,0,0,493,788Z" transform="translate(-181.2 -181.3)"/>
    <path d="M523.8,800.1l-4.5-.5-5.6-24.4,3.8.4,4.3,21.3q.6-1.9,4.7-10.3l4.4-9.5,3.8.4Z" transform="translate(-181.2 -181.3)"/>
    <path d="M549.5,801.7a11.7,11.7,0,0,1-8.6-3.4,11.9,11.9,0,0,1-3.1-8.9q.1-5.5,3.1-8.7a9.6,9.6,0,0,1,7.5-3.1,9.2,9.2,0,0,1,7.1,3q2.6,2.9,2.5,8.1a15.1,15.1,0,0,1-.3,2.7l-16.1-.3a7.9,7.9,0,0,0,2.6,5.4,9.1,9.1,0,0,0,6,2,10.7,10.7,0,0,0,6.2-1.5v3.4A14.3,14.3,0,0,1,549.5,801.7Zm3.2-19.1a5.5,5.5,0,0,0-4.3-1.8,6.2,6.2,0,0,0-4.6,1.8,8.7,8.7,0,0,0-2.3,5.4l12.7.2v-.9A6.7,6.7,0,0,0,552.7,782.6Z" transform="translate(-181.2 -181.3)"/>
    <path d="M583.6,799.4a7.4,7.4,0,0,1-5.6-1.2,6.8,6.8,0,0,1-2.7-4.8,6,6,0,0,1,1.8-5.4,11.7,11.7,0,0,1,6.7-2.9l4.2-.6-.2-1.2a6.2,6.2,0,0,0-1.8-4q-1.4-1.2-4.8-.8a11,11,0,0,0-6,2.9l-.5-3.6a13.2,13.2,0,0,1,6.7-2.6q8.8-1.2,10.1,7.7l2.1,14.8-3.6.5-.4-2.8Q588.3,798.8,583.6,799.4Zm-4.4-6.5a3.7,3.7,0,0,0,1.6,2.7,5,5,0,0,0,3.7.6,5.4,5.4,0,0,0,3.6-1.9,4.8,4.8,0,0,0,1-3.8l-.4-3-4.1.6a7.2,7.2,0,0,0-4.3,1.8A3.6,3.6,0,0,0,579.1,793Z" transform="translate(-181.2 -181.3)"/>
    <path d="M620.4,801l-3.5,1.1-9.6-31.3,3.5-1.1,1.1,3.4a8,8,0,0,1,5.8-5.9,8.9,8.9,0,0,1,8.1,1.1,13.7,13.7,0,0,1,5.1,7.5,13.4,13.4,0,0,1-.1,9.2,9.1,9.1,0,0,1-6.1,5.5,8.1,8.1,0,0,1-8-1.7Zm-2.1-30.5a6.7,6.7,0,0,0-4.1,3.4q-1.4,2.6,0,7t4,5.8a6.6,6.6,0,0,0,5.3.6,5.8,5.8,0,0,0,3.8-3.6,10,10,0,0,0-.1-6.7,10.2,10.2,0,0,0-3.7-5.6A5.7,5.7,0,0,0,618.3,770.5Z" transform="translate(-181.2 -181.3)"/>
    <path d="M647,782.2a7.4,7.4,0,0,1-5.7.3,6.8,6.8,0,0,1-3.9-3.9,6,6,0,0,1,.4-5.7,11.8,11.8,0,0,1,5.7-4.5l3.9-1.7-.5-1.1a6.2,6.2,0,0,0-2.8-3.4q-1.7-.8-4.8.5a11,11,0,0,0-5,4.3l-1.5-3.4a13.2,13.2,0,0,1,5.8-4.3q8.2-3.5,11.7,4.8l5.9,13.7-3.3,1.4-1.1-2.6Q651.5,780.3,647,782.2Zm-6-5.1a3.7,3.7,0,0,0,2.2,2.2,5,5,0,0,0,3.7-.4,5.4,5.4,0,0,0,3-2.8,4.8,4.8,0,0,0-.1-3.9l-1.2-2.8-3.8,1.6a7.2,7.2,0,0,0-3.6,2.8A3.6,3.6,0,0,0,641.1,777.1Z" transform="translate(-181.2 -181.3)"/>
    <path d="M666.9,772.5l-3.2,1.7-11-20.9,3.2-1.7,1.9,3.7a6.5,6.5,0,0,1,3.6-6.9l1.2-.5,1.7,3.2a6.3,6.3,0,0,0-1.9.7,4.9,4.9,0,0,0-2.5,3.9,8.8,8.8,0,0,0,1,5.4Z" transform="translate(-181.2 -181.3)"/>
    <path d="M685.4,762q-5.9,3.7-9.7-2.3L668.4,748l-3.2,2-1.6-2.5,3.2-2-3.1-5,3.1-2,3.1,5,5.5-3.5,1.6,2.5-5.5,3.5,7.3,11.7q2,3.2,5,1.3a5.1,5.1,0,0,0,2.2-2.6l1.9,3A7.1,7.1,0,0,1,685.4,762Z" transform="translate(-181.2 -181.3)"/>
    <path d="M699.1,762.3a6.7,6.7,0,0,1-1.7,1l-2-2.6,1.4-.8q3.8-2.8,2.1-8.3L677.4,739l3.3-2.5,16.9,10.4q-.5-1.3-6-18.7l3.2-2.4,7,23.5q1.4,4.9.6,8A9,9,0,0,1,699.1,762.3Z" transform="translate(-181.2 -181.3)"/>
  </g>
  <g>
    <path d="M422.1,339.1l-4.4,2.8,11.2,17.3-3.1,2-11.2-17.3-3.4,2.2-1.6-2.5,3.4-2.2-1.2-1.8a7.7,7.7,0,0,1-1.4-5.6,6.6,6.6,0,0,1,3.2-4.4,8.5,8.5,0,0,1,2.1-1l1.8,2.8a7.5,7.5,0,0,0-2.2,1,2.9,2.9,0,0,0-1.3,2.1,4.5,4.5,0,0,0,.9,3.2l1.2,1.8,4.4-2.8Z" transform="translate(-181.2 -181.3)"/>
    <path d="M439.9,352.7l-3.2,1.8-11.4-20.7,3.2-1.8,2,3.6a6.5,6.5,0,0,1,3.5-7l1.2-.6,1.8,3.2a6.3,6.3,0,0,0-1.9.7,4.9,4.9,0,0,0-2.5,4,8.8,8.8,0,0,0,1.1,5.4Z" transform="translate(-181.2 -181.3)"/>
    <path d="M459.1,343.4a11.7,11.7,0,0,1-9.2.6,11.9,11.9,0,0,1-6.6-6.7q-2.3-5-.9-9.2a9.6,9.6,0,0,1,5.5-6,9.2,9.2,0,0,1,7.7-.3q3.5,1.5,5.7,6.3a15.2,15.2,0,0,1,.9,2.6l-14.7,6.6A7.9,7.9,0,0,0,452,341a9.1,9.1,0,0,0,6.3-.8,10.7,10.7,0,0,0,5-4l1.4,3.1A14.3,14.3,0,0,1,459.1,343.4Zm-5.2-18.7a5.5,5.5,0,0,0-4.6.2,6.2,6.2,0,0,0-3.4,3.6,8.7,8.7,0,0,0,.2,5.9l11.6-5.2-.4-.8A6.7,6.7,0,0,0,453.9,324.7Z" transform="translate(-181.2 -181.3)"/>
    <path d="M481.1,335.1a11.7,11.7,0,0,1-9.2-.4,11.9,11.9,0,0,1-5.9-7.3q-1.7-5.2,0-9.3a9.6,9.6,0,0,1,6.1-5.4,9.2,9.2,0,0,1,7.7.5q3.4,1.9,5,6.8a15.2,15.2,0,0,1,.6,2.7l-15.3,5a7.9,7.9,0,0,0,4.2,4.3,9.1,9.1,0,0,0,6.3-.1,10.7,10.7,0,0,0,5.4-3.5l1.1,3.3A14.3,14.3,0,0,1,481.1,335.1Zm-3.2-19.1a5.5,5.5,0,0,0-4.6-.3,6.2,6.2,0,0,0-3.8,3.2,8.7,8.7,0,0,0-.4,5.9l12-4-.3-.9A6.7,6.7,0,0,0,477.8,315.9Z" transform="translate(-181.2 -181.3)"/>
    <path d="M512.5,327.4q-6.9,1.2-8.1-5.8l-2.5-13.5-3.7.7-.5-2.9,3.7-.7-1-5.8,3.6-.7,1,5.8,6.4-1.2.5,2.9-6.4,1.2,2.5,13.6q.7,3.7,4.2,3.1a5.1,5.1,0,0,0,3-1.6l.6,3.4A7.1,7.1,0,0,1,512.5,327.4Z" transform="translate(-181.2 -181.3)"/>
    <path d="M520.5,293a2.3,2.3,0,0,1,.9,1.6,2.3,2.3,0,0,1-.5,1.8,2.4,2.4,0,0,1-1.6.9,2.3,2.3,0,0,1-2.6-2.1,2.4,2.4,0,0,1,.5-1.8,2.3,2.3,0,0,1,1.6-.9A2.3,2.3,0,0,1,520.5,293Zm4.1,32.5-3.7.4-2.8-23.4,3.7-.4Z" transform="translate(-181.2 -181.3)"/>
    <path d="M562.3,323.9h-3.7l-.2-15.3q-.1-5.4-4.6-5.3a5.2,5.2,0,0,0-4,2.1,8.4,8.4,0,0,0-1.7,5.7l.2,12.9h-3.7l-.2-15.3q-.1-5.4-4.6-5.3a5.2,5.2,0,0,0-4,2.1,8.4,8.4,0,0,0-1.7,5.7l.2,12.9h-3.6l-.4-23.6H534v3.8a6.8,6.8,0,0,1,6.6-4.3q5.4-.1,7,4.5a7.8,7.8,0,0,1,2.8-3.5,7.4,7.4,0,0,1,4.1-1.3,7,7,0,0,1,5.6,2,8.2,8.2,0,0,1,2,5.6Z" transform="translate(-181.2 -181.3)"/>
    <path d="M578.2,326.1a11.7,11.7,0,0,1-8.2-4.3,11.9,11.9,0,0,1-2.2-9.1q.6-5.5,3.9-8.4a9.6,9.6,0,0,1,7.8-2.4,9.2,9.2,0,0,1,6.7,3.6q2.3,3.1,1.7,8.3a15.1,15.1,0,0,1-.5,2.7l-16-1.9a7.9,7.9,0,0,0,2,5.6,9.1,9.1,0,0,0,5.8,2.5,10.7,10.7,0,0,0,6.3-.9l-.4,3.4A14.3,14.3,0,0,1,578.2,326.1Zm5.1-18.7a5.5,5.5,0,0,0-4.1-2.2,6.2,6.2,0,0,0-4.8,1.4,8.7,8.7,0,0,0-2.8,5.2l12.6,1.5v-.9A6.7,6.7,0,0,0,583.3,307.4Z" transform="translate(-181.2 -181.3)"/>
    <path d="M613.2,319.5a14.7,14.7,0,0,1,3.5,3.6,5.6,5.6,0,0,1,.5,4.6,5.7,5.7,0,0,1-3.2,3.9,9.3,9.3,0,0,1-6.4.2,13.8,13.8,0,0,1-6-3.1l.9-3.5a12.9,12.9,0,0,0,6,3.5,5.4,5.4,0,0,0,3.4,0,2.8,2.8,0,0,0,1.7-2,3,3,0,0,0-.6-2.7,18,18,0,0,0-3.4-3,13.4,13.4,0,0,1-3.6-3.7,5.7,5.7,0,0,1-.5-4.6,5.5,5.5,0,0,1,3.3-3.8,8.9,8.9,0,0,1,6-.2,13.8,13.8,0,0,1,5.3,2.5l-.9,3.4a11.3,11.3,0,0,0-5.3-2.8,4.7,4.7,0,0,0-3.1.1,2.5,2.5,0,0,0-1.6,1.6,3.8,3.8,0,0,0-.1,1.7,3.5,3.5,0,0,0,.9,1.5A28.4,28.4,0,0,0,613.2,319.5Z" transform="translate(-181.2 -181.3)"/>
    <path d="M627.6,338q-6.6-2.3-4.2-9l4.5-13-3.6-1.2,1-2.8,3.6,1.2,1.9-5.5,3.5,1.2-1.9,5.5,6.2,2.2-1,2.8-6.2-2.2-4.6,13.1q-1.2,3.6,2.1,4.7a5.1,5.1,0,0,0,3.4.1l-1.2,3.3A7.1,7.1,0,0,1,627.6,338Z" transform="translate(-181.2 -181.3)"/>
    <path d="M640.9,343.4a7.4,7.4,0,0,1-4.1-4,6.8,6.8,0,0,1,.3-5.5,6,6,0,0,1,4.4-3.6,11.7,11.7,0,0,1,7.2,1.2l3.9,1.8.5-1.1a6.2,6.2,0,0,0,.6-4.4q-.6-1.8-3.6-3.2a11,11,0,0,0-6.6-.8l1.5-3.4a13.2,13.2,0,0,1,7,1.4q8.1,3.7,4.4,11.9l-6.1,13.6-3.3-1.5,1.1-2.5Q645.2,345.3,640.9,343.4Zm-.3-7.8a3.7,3.7,0,0,0-.1,3.1,5,5,0,0,0,2.8,2.5,5.4,5.4,0,0,0,4.1.3,4.8,4.8,0,0,0,2.8-2.7l1.2-2.8-3.7-1.7a7.2,7.2,0,0,0-4.6-.8A3.6,3.6,0,0,0,640.6,335.5Z" transform="translate(-181.2 -181.3)"/>
    <path d="M658.6,351.9l-3.2-1.8,11.5-20.6,3.2,1.8-2,3.6a6.5,6.5,0,0,1,7.7-.7l1.1.7-1.8,3.2a6.3,6.3,0,0,0-1.6-1.3,4.9,4.9,0,0,0-4.7,0,8.8,8.8,0,0,0-4,3.8Z" transform="translate(-181.2 -181.3)"/>
    <path d="M682.2,350.9a14.7,14.7,0,0,1,2.1,4.5,5.6,5.6,0,0,1-1,4.6,5.7,5.7,0,0,1-4.3,2.7,9.3,9.3,0,0,1-6.1-1.9,13.8,13.8,0,0,1-4.8-4.8l2-3a12.9,12.9,0,0,0,4.6,5.2,5.4,5.4,0,0,0,3.2,1.1,2.8,2.8,0,0,0,2.2-1.4,3,3,0,0,0,.3-2.8,18,18,0,0,0-2.2-3.9,13.4,13.4,0,0,1-2.2-4.6,5.7,5.7,0,0,1,1-4.5,5.5,5.5,0,0,1,4.3-2.6,8.9,8.9,0,0,1,5.7,1.7,13.8,13.8,0,0,1,4.2,4l-1.9,2.9a11.3,11.3,0,0,0-4.2-4.3,4.7,4.7,0,0,0-2.9-.9,2.5,2.5,0,0,0-2,1,3.8,3.8,0,0,0-.7,1.6,3.5,3.5,0,0,0,.4,1.7A28.5,28.5,0,0,0,682.2,350.9Z" transform="translate(-181.2 -181.3)"/>
  </g>
  <g>
    <polygon points="128.2 353 133.3 363.4 144.7 365 136.4 373.1 138.4 384.5 128.2 379.1 117.9 384.5 119.9 373.1 111.6 365 123.1 363.4 128.2 353"/>
    <polygon points="137.3 436.3 145.6 444.2 156.9 441.9 151.9 452.3 157.7 462.3 146.2 460.8 138.4 469.3 136.4 457.9 125.9 453.2 136 447.7 137.3 436.3"/>
    <polygon points="174.3 511.3 184.9 516 194.7 509.9 193.6 521.4 202.4 528.9 191.1 531.3 186.7 542 180.9 532 169.4 531.2 177.1 522.6 174.3 511.3"/>
    <polygon points="542.9 535.4 545.7 524.2 538 515.6 549.5 514.8 555.3 504.8 559.7 515.5 571 517.9 562.2 525.4 563.3 536.9 553.5 530.8 542.9 535.4"/>
    <polygon points="589.4 465.8 588.2 454.3 578 448.9 588.5 444.1 590.6 432.8 598.4 441.3 609.8 439.8 604.1 449.8 609.1 460.2 597.8 457.8 589.4 465.8"/>
    <polygon points="609.3 384.5 604.2 374.1 592.8 372.5 601.1 364.4 599.1 353 609.3 358.4 619.6 353 617.6 364.4 625.9 372.5 614.4 374.1 609.3 384.5"/>
    <polygon points="600.2 301.2 591.9 293.3 580.6 295.6 585.6 285.2 579.8 275.2 591.3 276.7 599.1 268.2 601.1 279.6 611.6 284.3 601.5 289.8 600.2 301.2"/>
    <polygon points="563.2 226.2 552.6 221.5 542.8 227.6 543.9 216.1 535.1 208.6 546.4 206.2 550.8 195.5 556.6 205.5 568.1 206.3 560.4 214.9 563.2 226.2"/>
    <polygon points="195.1 202.1 192.2 213.3 199.6 221.7 188.2 222.8 182.3 232.8 178.2 222.3 167.1 220.1 175.9 212.5 175 201.1 184.6 206.9 195.1 202.1"/>
    <polygon points="148.1 271.7 149.3 283.2 159.5 288.6 149 293.4 146.9 304.7 139.1 296.2 127.7 297.7 133.4 287.7 128.4 277.3 139.7 279.7 148.1 271.7"/>
  </g>
</svg>
