<svg id="Layer_1" xmlns="http://www.w3.org/2000/svg" viewBox="0 0 19.1 39.2">
  <path d="M109,96.3l-6.7-7-.5-.4a29,29,0,0,0,1-5.7,2.8,2.8,0,0,0-1.6-2.7,2.9,2.9,0,0,0-2.3,0,2.8,2.8,0,0,0-1.5,1.8c-.7,2.2,1.4,10.9,1.7,11.9a.4.4,0,0,0,.4.3h.1a.4.4,0,0,0,.3-.5c-.7-2.6-2.2-9.8-1.7-11.5a2.1,2.1,0,0,1,1.1-1.3,2.1,2.1,0,0,1,1.7,0,2,2,0,0,1,1.1,2,27.8,27.8,0,0,1-1,5.4,2.8,2.8,0,0,0-1.8,0c.2,1.3.5,2.5.8,3.7h.2a2.1,2.1,0,1,1-1.9,1.3c-.2-.8-.5-2.1-.8-3.6l-6,6.3a3,3,0,0,0-.8,2.1v18.9a2.2,2.2,0,0,0,2.2,2.2h14.6a2.2,2.2,0,0,0,2.2-2.2V98.4A3,3,0,0,0,109,96.3Z" transform="translate(-90.7 -80.3)"/>
</svg>
