<svg id="Layer_1" data-name="Layer 1" xmlns="http://www.w3.org/2000/svg" viewBox="0 0 1200 148.4">
  <title>stars_block</title>
  <g>
    <path d="M1,53V2H703l-3.8,4.7,5.3,6.5V3.7L710.8,5,709,2h13c.1,1.2.6,3.4.4,3.5-4.9,1.5-1.7,4.1-1.3,6.8,4.7-2.4,6.8-5.4,5-10.2h475V33l-9.7-7c-3.4,5.9,4.6,6.6,4.1,10.9-3.4.5-6.8.8-10.2,1.5a8,8,0,0,0-4.4,2.5c-4.8,6.4-9.2,13.2-14,19.6-2,2.7-2.4,5.1-1.1,8.2,2,5,3.6,10.1,5.6,16l-21.4-6.5-.8,1.8,15.8,10.7c-5.8,2.1-10.4,4.1-15.2,5.4s-6.9,3.6-7.8,8.4-2.6,10.1-4.2,16.1c-4.4-5.5-8-10.2-11.7-14.9-.9-1.1-2.3-2.9-3.2-2.8-9,1-18.6-1.8-27.4,4-.8-3.8-2.1-7.5-2.3-11.2-.3-7-4.7-10.9-10.5-10.9s-11.7,2-14.2,5.6-3.3,11.9-4.8,18.2l12.6,3.6c-5.2,4.2-9.5,7.8-14,11.2s-4.4,4.8-3.8,8.9c.9,5.6,1,11.4,1.5,18.2-5.9-3.8-10.9-6.8-15.6-10.2-3.1-2.3-5.8-2.3-9.2-.8-5.2,2.4-10.5,4.4-16.9,7,1.4-5.3,2-9.5,3.6-13.2,2.8-6.6,2-12-3.6-16.8a41.9,41.9,0,0,1-6.5-7.6c-.8-1.1-.8-2.9-1.2-4.3,5.3.1,10.6.3,15.9.1s9.8-3.4,11-10.5l-9.1.6c3.2-5.2,5.6-9.7,8.7-13.8s2.6-6.2.5-9.1-3.9-3.7-6-5.7c4.1-2.6,1.4-5.3-.5-8.7l-7.8,7c.7-7.9-2.6-12.2-9.5-14l4.8-4.1-8.5-6.6-5.4,7.4c-2.1-4.8-6.1-6.1-9.8-5-.6-2.9-.4-6.4-1.6-7-3.8-1.8-6.7.7-7,4.4s1.2,6.1,1.7,8.1l-13,5.5c-1.6-1.9.2-7.9-6.1-7.5L966.2,52l-3.6-4.3-8.9,1.7c2.3,3,3.8,7,6.4,8,4.2,1.6,9.6,3.6,13.2-3.2.6,12.5,8.9,17.6,18.3,21.9,2.8,1.3,5,1.8,7.9.2s8.6-4.2,13.7-6.7c-1,5.5-1.7,10-2.8,14.5s-.3,5.7,2.3,8,6.6,6.7,10.4,10.6l-12.4,1.9c-5.2-.5-8.3,1.8-10.2,6.6s-3.6,7-5.9,11.3l-8.5-17.8-1.5.6v12.1c-5.5-3.8-10-7.4-14.9-10.3a10.2,10.2,0,0,0-7.2-1c-5.5,1.5-10.8,3.8-17.3,6.1l5.2-17.1c1.7-5.7-3.6-13.7-9.1-14.4L939,73.3c4-2.1,4.3-3.6,1.1-6.9l-6.5-6.8,7.4-1.9c-4.6-11-9.4-13.5-15.7-8.3L915.9,38v4c-8.1-.2-13.8,3.4-17.1,9.4-2.8-1.5-6.6-4.9-8.2-4.1s-3.9,5.4-6,8.9c-2.5-4.8-7-2.5-11.4-1.5l.8-6.4a5.6,5.6,0,0,1-3.3-2.7c-1.2-1.9-2.3-3.9-3.4-5.9l-1.5.9,3.9,5.4c-5.9-.4-9.4,2-10.7,6.5-2.4-2.4-4.1-5.5-6.5-6.1s-5.6,1.2-8.7,2.1a14.6,14.6,0,0,0-.5-3.4,33.6,33.6,0,0,0-2.3-4.3c-1,1.3-2.3,2.5-2.8,4-1.6,5.1-2.8,10.4-4.4,16.4l-10-11.8-1.4,9c-3.7-5.6-8.2-6-13.5-4.1l2.8-8.7H800.2c.2-3.3,5.9-5.7.3-8.5l3.4-3.8c-10.7-1.8-11.3-1.7-13.9,8.2-1.3,5.1-1.3,10.5-1.9,15.9L774.9,51c-.1,7.4,6.6,5.1,10.2,8.2-6.3,2.9-8.2,8-7.1,14.9-5.3-5.1-10.7-4.7-16.9-1.1.7-2.8.8-4.5,1.5-5.9a6,6,0,0,0-3.3-8.3c-3.2-1.3-4.3-3.5-5.7-5.9-3.7-6.7-15.1-7-19.2-.6a4.9,4.9,0,0,1-1.1.9L731,49.8l-4.6,2.7,11.9,5,9.2-3.7c-.9,4.5-2.8,8.6-2,12.1s4.3,6.2,6.6,9.2v1.2c-9.8-2.7-14.7,2.9-18.1,10.9-4.1-6.8-11.5-7.7-16.3-2.8l-8.1,8.3c-.8-5.3-1-9.1-2-12.8a10.5,10.5,0,0,0-3.6-4.8c-4.6-3.8-7.6,0-10.7,2.6s-3,4.4.8,6.1,7.8,3.3,12.7,5.4l-11,6.7c-4.9,3-4.9,5.5-.2,8.2l-5.2,9.4a6.4,6.4,0,0,0-7.4,7.3c.7,5.4,1.7,10.7,2.6,16.1-4.9-.7-9.6-.6-13.7-2.2-6.7-2.5-12.7-3.2-18.8,1.2-.8.6-2.6-.2-3.9-.4l-.2-1.3-13.9,10.2c0-7.2-.2-13.3.1-19.4.2-3.9-1-6.4-4.5-8.5-5.4-3.2-10.4-7.1-16.2-11.1,7.2-2.3,13.3-4.6,19.5-6.3,3.4-.9,4.9-2.9,5.7-6,1.7-6.2,3.6-12.3,5.7-19.4l15.2,20.5c4.5-5.8,4.4-10.8-.4-15.9l6.4-.8L657,65l9.5-.5c7.9-.4,10.3-3.2,9.6-12.3l-3.3,4.7c-2.9-6.8-9.1-3.8-14.2-5.1l-4.3,22.5-7.8-9,1,6.4c-4.8-1.3-9.1-2.5-13.4-3.5s-8.9,1.7-9.2,7-.4,9.2-.7,14.8c-5.9-4.8-10.8-9-15.9-13-1.3-1-3.3-2.2-4.7-2-3.9.7-7.7,2.1-12.7,3.5l15.1,7.9c-5.7,2.8-10.5,5.4-15.5,7.4-3.4,1.4-4.8,3.6-5.2,7-.7,5.3-1.7,10.6-2.8,16.9L572,106.6c-4.3-4.5-10.4-3.9-13.8,1.2l-11.1,17c-2.3-6.3-4.7-11.5-5.9-16.9s-4.5-7.5-9.5-8.5-10.7-2.9-17-4.6c4.2-3.2,7.2-6.2,10.8-8.2,7-4,9.8-9.2,8.6-17.5-.7-5.3-1.5-9.3-7-11.1-2.3-.7-4.9-2.8-6.7-2.2-4.1,1.3-7.8,3.7-11.6,5.8s-3.4,3.8-2.7,6.8,1.4,7.4,1.9,10.2c-5.1,1.6-9.8,2.6-14,4.5a9.6,9.6,0,0,0-4.5,5.1c-1.5,4.1-2.2,8.5-3.6,13.9-3.6-4.4-6.5-7.6-8.9-11.1a6.5,6.5,0,0,0-6.7-3c-4.4.4-8.8.5-14,.8l7.2-11.8c-8.9,2-6.3,9-9,13.7l10.1,3.2c-3.8,2.9-6.7,5.5-9.9,7.5s-3.8,4.2-3.4,7.5.4,7.4.7,12.2c-3.8-2.6-6.8-4.3-9.4-6.5s-6.2-3.1-10-1.3a95.1,95.1,0,0,1-9.9,3.5l-1.3-.6c7-10.8,4.9-20.1-4.9-27.5,6.3-3.7,14.1,1.8,19.3-5.5H413.7l6.9-10.2c4.7-6.8,2.3-12.1-5.9-12.9l-7.1-.8,4.7-5.8c-4.7-3.5-8.7-1.2-12.8.9l-1.4-3.7c-3.5,2.1-6.6,4.3-10.1,5.9s-4.7,4.2-4.8,7.8-.5,8.8-.8,14.4c-4.1-3.6-7.4-6-10.2-9s-7.1-4.5-11.7-1.4l8.1,3.6c-4.4,2.9-8.1,5.6-12.1,7.9a7.2,7.2,0,0,0-4.1,7.3c.2,4.5,0,9.1,0,15.1-5.1-4.1-8.7-7.4-12.7-10a9.9,9.9,0,0,0-6.7-1.3c-4.8.9-9.4,2.6-15,4.2,2.1-5.5,3.5-9.9,5.4-14.1s.9-5.2-1-7.7-5.3-7.7-8.5-12.5c4.1.2,6.9-.1,9.4.5,8,2.1,13-1.3,16.5-8.1.1-.1.2-.3.3-.4.2-2,.4-4,.6-6h-1.5l-3.9,4.7c.5-7.5-8.9-5.7-8.8-12.3,0-.3-2.1-.9-3.2-.9a33,33,0,0,0-4.9.7l-.8,9.7L307.8,42c-1.4,7.4,5.4,6.6,8.9,10.5-7.7,1.1-8.4,6.6-8.6,14-4.6-6.9-9.7-7.3-15.8-4.7,1.1-3.6,2.7-6.3,2.6-8.9s-2.2-4.8-3.5-7.5c8.6-.4,8.6-.4,9.8-2.3l-5.4.8.6-9.3-9,1.7-1-5.7-1.4-.2c-.6,1.9-1.8,3.8-1.6,5.7s1.6,3.7,3,6.7c-6.8-2.5-10.6,0-13,4.7,1.7,9.3,9.5,5.1,15.8,7.2-7.9,5.6-7.8,12.4-4.3,20.3-8-5.2-14.4-3.2-20.8,3.6,0-4.7.8-8.1-.2-10.8s-3.9-4.6-5.9-6.9l-.9.8,1.7,4.6c-4.4,0-8.4-.8-11.9.2-5.1,1.4-3.5,6.3-3.1,11.3-6-3.2-11-6.3-16.4-8.6a10,10,0,0,0-7.2.1c-5.3,2.3-10.2,5.4-16.3,8.6,1-6.3,1.1-11.5,2.6-16.4,2.4-7.5-3.7-10-7.4-13.7s-6.1.6-8.9,1.7-4.9,2.6-7.4,3.9-3.2,2.9-1.8,5.6,2.8,6.2,4.5,9.9l-6.7-.5,3,5-2.3.5c-11.4,1.8-11.3,1.8-11.8,13.1-.2,3.6.9,5.9,3.9,7.9,4.8,3.2,9.3,6.6,14.6,10.5-6.5,1.9-11.9,3.8-17.4,5.1-3.6.8-5.3,2.8-6.3,6.1-1.5,5.4-3.4,10.6-5.5,17.1-3.4-4.8-6.4-8.6-8.7-12.7s-6-6.9-11.7-6.3-9.8.1-15.7.1c4.2-5.6,7.6-10.3,11.3-14.7,2.1-2.5,2.4-4.7,1.3-7.7-2-5.4-3.6-10.9-5.8-17.5l20.4,6.9c-4-11.2-14.5-6.2-20.9-10.8,2.4-2.3,4.6-4.5,6.9-6.5s5.9-4.7,4.2-9.5c-1.2-3.3-1.2-7.1-1.7-10.4-6.7.2-9.3,4-10.5,9.9-2.6-5.7-7.1-6.5-12.6-5.7l2.4-5.4a33.8,33.8,0,0,1-5.4-1.5c-3.2-1.5-6.4-3.3-9.5-5-.4-1.6,3.3-4.7-2-7.7l-1,8.2c-6.9,2.2-15.3-.6-17.9,8L70,39.6l.4-8.3-1.7-.2L67,37.2l-4.7-3.5c-1.8,2.2-3.6,3.6-4.2,5.3-1.9,5.8-3.3,11.7-5.1,18.1-7.5-3.9-13.8-3.3-19.6,2.7a22,22,0,0,1-.5-2.6c-.3-7.2-.4-7.2-7-4.9-1,.4-2.4-.4-4.2-.7L17.9,63.6l5.7-3.3c.4,4.6,1,8.5,1,12.5s1.4,5.1,4.2,6.6,7,4,11.3,6.6c-4.7,2-8.3,3.7-12.1,5s-4.7,3.1-5.2,6.4-1.7,7.6-2.7,12.1C13.8,104.3,11.2,94.5,1,97V69c5.1.9,10.7,4.5,14.2-3.2-2.1-3.1-4.5-6.1-6.4-9.4S4.6,51.9,1,53Zm1069.5.9c-3.6,7.4-.1,12.8,4.4,17.8,1.4,1.6,4.3,3.6,5.6,3.1,3.5-1.5,8.4-3.6,9.2-6.5,1.8-6,1.4-12.7,2-19.7l-9.3,2.6c3.6-6.4,2.1-10.8-3-14.1-9.3,3.4-3.1,11.6-5.4,17.4ZM552.1,39.3c-2,0-3.9-.6-5.1.2s-2.8,3.4-2.3,4.2C547.8,49,550,55.6,558.2,55c.2,0,.3.5.8,1-1.6,1.5-3.6,2.9-4.8,4.7s-1.1,3.4-1.6,5.2c1.8.4,3.7,1.5,5.3,1.1a92.7,92.7,0,0,0,13.1-4.9c.9-.4,1.9-3.1,1.5-3.6a75.2,75.2,0,0,0-7-6.4l2.6-3.2a27,27,0,0,0-4.3-1.4,35.3,35.3,0,0,0-5-.1l1.2-6.3-7.2-6-1,.8Zm555.7,2.9c-3.3.2-7.5-.2-7.8.6-1.3,3.7-3.1,8.7-1.6,11.6,4.2,8.3,10.2,9.5,18.3,5.6.6-3.5,2.4-7.3,1.4-10.2s-4.7-5.5-7.6-8.6l8.3-1.9.3-1.7-10.7-3.3ZM260.7,45.7c-6.5-.4-7,4.2-8.2,7.8s.1,4.7,3.2,4.6c6.5-.1,10.3-3.2,12.5-9.5.6-1.7,1.9-3.2,2.9-4.8h1.2c-1.7-7.3-8.8-8.1-14-11.5C257.4,37.2,254.2,41.8,260.7,45.7ZM469.5,31.6c-9.6,2.8-9.6,2.8-9.4,12.2,0,1.7.1,3.3.1,5,.1,8.6,1,9.5,10.1,9.8.7-3.7.7-3.7-5.2-9.7,9.5-3.9.1-5.5-1.3-8.3C467.5,38.7,471.7,37.3,469.5,31.6Zm685.3.8-9.4.6c8.7,14.5,11.1,15.8,25.9,13.1-5.3-5.4-10.9-8.9-18.4-9.4ZM740.6,33.6c-3.1,0-4.8-.3-6.3.1s-1,1.8-1.5,2.8l5.2,1.7,3.7,9.5c8-6.8,8.2-9.6,2.3-16.6ZM685.3,58c1.4,7.5,1.6,8.3,6.5,8.8,2.8.3,6.4-.4,8.5-2.1s-.6-4.9-1.2-8.8l-3.2,4.2-4.5-3.6L689.8,61ZM449.8,41.7c-2.1-4.2-7.5-6-11.1-3.8s-3.2,6.9-1.4,8.9,4.3,1.7,6.5-.2S447.9,43.3,449.8,41.7Zm594.5-.7c-9.1,6.6-9.5,9.7-2.6,18.3C1046,53.6,1043,47.6,1044.3,41Zm94.2-1.3c4.8-9.9,4.5-12.9-1.4-12.9l.6,4.3h-5C1131.7,35.9,1132,39.9,1138.6,39.7ZM911,15.1c-5.7,1.9-1.7,5.9-2.7,8.2l-4.9.8c2.2,1.8,3.6,3,5.1,4a20.7,20.7,0,0,0,3.2,1.5c.4-1.3,1.6-3.2,1.1-3.8-1.8-2.1-1.6-3.8-.7-6.2S911.5,17,911,15.1ZM477.6,20.5l-1.2.9a53.5,53.5,0,0,1,3.5,4.2c1.3,1.8,2.3,3.8,3.7,6.2,1.3-2.5,2.6-4.6,3.6-6.9.3-.7-.3-2.5-.8-2.6C483.5,21.5,480.6,21.1,477.6,20.5Zm571.6,72.2c1.7,12.1,4.2,15,12,14.4ZM983.6,24.1c-1,3.5-3.7,7,.1,9.8.9.6,4.4-.6,5.1-1.9C991.5,27,985.7,26.8,983.6,24.1ZM602.8,30.6c-1.4-1.1-2.7-2.3-3-2.2-2.4,1.6-4.7,3.5-7,5.2,1.3,1.1,3.6,3.4,3.9,3.2A60.2,60.2,0,0,0,602.8,30.6Zm-91-12.5-4-6.2c-.8,0-2.6-.5-3.9.1a5.6,5.6,0,0,0-2.6,3.5c-.1.6,1.6,2.3,2.6,2.4A56.9,56.9,0,0,0,511.8,18.2Zm457.4,6.7.3,2.1c3.5.6,7,4.5,10.7-1.1l-4-5.5-1.7,4.1ZM663.8,33.2l3.2,2.1c.6.3,1.3,1,1.7.8a8,8,0,0,0,3.6-1.7c.5-.5.4-2.3-.1-3S665.6,31,663.8,33.2Zm-167.1-6,10.2-1.2.3-1.7c-2.2-.9-4.3-2.4-6.6-2.6S498.7,24.5,496.7,27.3ZM1191.2,9c-3.5-3.7-6.6-3.4-10.4-.5l3.2,3.2ZM585.4,67.8h1.3l3.1-8.1-5.5-1.8Zm610.8-51.7-2.9-5.9-6.3,8.6ZM730,14.1c-1,1.6-1.9,2.8-2.6,4.1a43.4,43.4,0,0,0-1.6,4.4C731.3,20.9,732.5,18,730,14.1ZM282.7,25.9l-.6-1.6-6.8.6-.2,2.2c1.7.6,3.4,1.7,5.1,1.7S281.9,26.9,282.7,25.9Zm515.8-6.3c2.7,4.3,5,1.6,7,.1s.4-2.5.5-3.4Zm60.6,15.9,6.2-3.2-7.2-4.2Zm163.8,1.3-1.9-.2-1.3,9.3,2.4.2Z" transform="translate(-1 -2)"/>
    <path d="M743.9,95.6c7.1,1,13,2.1,18.9,2.6a8,8,0,0,0,5.5-1.9c4.3-4.1,8.2-8.5,13.1-13.7,1.1,6.6,2,12,2.9,17.5s1,5.1,7,6.9l9.9-19.4c3.1,6.4,5.4,11.9,8.3,17a9.4,9.4,0,0,0,5.4,4.1c5.7,1.3,11.5,1.9,18.7,3-3.8,3.7-6.6,7-10,9.6-5.2,4-7.1,8.5-5.1,15,1.3,4,1.3,8.4,2.1,13.8-6.1-3.3-11.3-5.8-16.2-8.8-2.8-1.7-5-1.6-7.8,0-4.9,2.8-10,5.3-15,7.9-2.4-8-9.3-11.7-14.3-17-.8-.9-3.5-.3-5.2,0-5.4.9-10.7,2-17.4,3.3,3-6,5.3-11,7.9-15.9,1.6-2.9,1.7-5.4,0-8.3C749.7,106.4,747.2,101.4,743.9,95.6Z" transform="translate(-1 -2)"/>
    <path d="M862.5,96.2l-6.9-1.7c6.7-7.2-2.8-11.1-2.9-17.5L868.4,79l-3.8-18.8c5.6,2.6,10.2,4.6,14.6,6.9,2.7,1.4,4.7,1,7.2-.7s8.6-4.7,13.9-7.4c-.6,5.5-.7,10.2-1.7,14.8s.2,6.4,3.2,8.6c1.3,1,2.5,2.2,3.7,3.3,3.1,2.7,7.1,4.8,6.1,10.5-4.2,2.2-8.8,4.7-13.6,7s-5.1,3.6-5.3,7.5-1.3,10.8-2.1,17.3c-4.7-4.7-8.9-8.4-12.6-12.6-2.3-2.6-4.8-3.1-8-2.4-5.3,1.2-10.7,2.1-17.3,3.4Z" transform="translate(-1 -2)"/>
    <path d="M71.7,45.9c5.3,5.6,10.7,8.9,18.5,4.2-3.8,7.2-4.3,13.4,1.6,19.5-7.8-1.4-14-.4-17.8,7.7-.7-8.4-4.3-13.3-12.6-15C69,59.3,72.5,54.2,71.7,45.9Z" transform="translate(-1 -2)"/>
  </g>
</svg>
