<svg id="Layer_1" data-name="Layer 1" xmlns="http://www.w3.org/2000/svg" viewBox="0 0 9.3 2.1">
  <defs>
    <style>
      .cls-1 {
        fill: #fff;
      }
    </style>
  </defs>
  <g class="cls-1">
    <polygon points="1.1 0 1.4 0.8 2.2 0.8 1.5 1.3 1.8 2.1 1.1 1.6 0.4 2.1 0.7 1.3 0 0.8 0.9 0.8 1.1 0"/>
    <polygon points="4.7 0 4.9 0.8 5.8 0.8 5.1 1.3 5.4 2.1 4.7 1.6 4 2.1 4.2 1.3 3.5 0.8 4.4 0.8 4.7 0"/>
    <polygon points="8.2 0 8.5 0.8 9.3 0.8 8.6 1.3 8.9 2.1 8.2 1.6 7.5 2.1 7.8 1.3 7.1 0.8 7.9 0.8 8.2 0"/>
  </g>
</svg>
