<svg id="paint" data-name="Layer 1" xmlns="http://www.w3.org/2000/svg" viewBox="0 0 919.9 1028.8"><title>Untitled-1</title><path d="M558,1031.8l.9-6.2,2.2.3-1.1,5.9Z" transform="translate(-5.2 -2.9)"/><path d="M191.3,235c-.9-5.8-5.8-7.8-10.6-11.2l-3.3-8.8-12.3-13.8,1.4-1.2L178,212l3.9-7-1-.9-3.7,1.5-5.1-8.4.8-.6,6,5.1c-1.6-3.8-3.5-7.1-9-6.5a17.2,17.2,0,0,1,.1-3.2,9,9,0,0,1,2.1,0l4.1-9.9-1.6-6,1.2-4.7-3.5-2.8,9.1-10.1,1.6-7.9c6.8-.1,12.1,5.9,19.5,2.6a23,23,0,0,1,2,4.4c1.6,7,4.5,9.9,10.7,10.8.8,3.5,1.2,7,2.4,10.2.6,1.6,2.8,2.5,4.5,3.9l8.8-7.1c5.1,2.5,6,4.5,5.3,11.9l-4.1,3.5.8.5L227,202.5l-9.5,3.3-3.4-4.6-.4.7-13.5-5.5,4,8.4-5.5,18.7-8.3-.8,12.7,12c1.7,4.4,5.4,8.7,11.2,11.9l5.5-25-1.2-9,10,3.9c4.7,9,14.5,7.6,22.1,11.5l1.5,4.6c-4.5,3.5-.1,11.2-7.2,12.8l1.1,10.7,1.1-.8c3,2.2,6.1,4.4,8.9,6.7,5,4.1,9.3,9.3,16.6,11.5l-1.3-6.1c1.4-3.1,1.5-7.9,6.8-7.9s4.7,3.9,5.4,8.1c3.2-5,7.2-3.3,11.1-1.8l.7-1.7-5.8-4.5-.4.5-4.7-8.3,1.9-8.3,5.7-7.6-6.7-10.9H270.1l3.7-2.3.9-6.5h.9l-1.5-4.6-5.1-2-2.2,1.8,2.3,11c-8-.5-8.6-7.1-11.9-10.8,5.8-8.2,10.9-10,19.8-8,2.8.6,5.9.1,8.8.1a28,28,0,0,1-1.3-4.6,24.1,24.1,0,0,1,.3-4.5c4.8-1.3,6.2,2.3,8.6,4.9l8.7-1.5c0,2.8-.5,5.5.1,8.1s2.2,4.4,4.1,7.9L294.6,213c-3.5,3-4.6,8.4-2.3,11.6s3.9,4.6,8.1,2l-5.2-7.7h7.3v-.4h13l-.7,5.7-5.4,6.3-6.8,3.2,5.8,2.9-.3,1.1-5-1.1-.5,4.4,3.7,1.9c4.4-.9,5.3-7.4,10.7-4.5,1.1,6,7.6,10.8,4.6,16.8l1.6,9.3c3.7-1.6,4.1-5,4.4-8.7l5.6-1.7,5.4,7.7,1.5-7.5H345l2.5-3.1,7.7,3,.5,3,9.6-10.8,1.2.5v6.6l6,.4V241.8l-5.5,2.5c-3-2.9-1.7-5.9.9-9.2l-4.8-.8c-3.6-4.6-3.4-5.9,1.6-10.5l4.8,1.1c-4.4-6.5-2.2-12.9-.6-19.3l-1.5-.7-8.5,4.7.6-7-1.7-.3-2.1,7.2-8.9-13-8.4,1.1-7.1,5.7c-2.1,1.6,0,6.7-5.5,5.9l-1.4-5.3-5,4.2c-4-4.4,1.6-6.9,2-10.3l-1.3-7.6,5.4-6,8.5,10c6.9,0,16.2-2.4,21.1,7.3l6.5-3-6.6-5.7,2.9-4,6.8,5.5c.2-5.4-4.8-10.1-1-15.5l7.1-.7c8.1,6.3,2.8,17.6,8.5,23.5.8,4.5,1.3,8.3,2.2,12,1.9,8.6,4.1,17.2,6,25.8.4,1.7-.2,3.5.1,5.2a9.2,9.2,0,0,0,6.2,7.6c1.9.7,3.5,2.2,5.7,3.7,7.6-3.2,9.7-11.1,13.5-17.4a17.6,17.6,0,0,1,3.2-19.8c2.8-3,5.4-6.1,8.4-9.5l2.1,9.2,5.9,5.2c-.5,6.1-1.2,12.2-1.4,18.3,0,1.2,1.5,2.4,2.8,4.3,3.1-6.7,2.4-15.4,11.9-16.6l.7-1.3,4.5,5.6c6.7-.5,14-1.4,19.1-7.5l3.4-16.3,4-1.4,9,2.2-8.1-19.6,1.1-.5-4.3-3,4-6.5,4.3,3.9,2.1-3.2.6.3-1.7,6.4,4.9.8-3.5,3.5-5.2-3,1.6,3.8a51.4,51.4,0,0,1,7.2-1.2,43,43,0,0,1,6.6.8l3.3-2.8c2.5,2.6,2.2,7.9-.7,11.4l-3.4-.9-1,5-3.2,2.9-.7,11.2c2.7,2.3,3.6-.6,4.8-2.6s1.6-4.6,5.2-2.9l-1.1,9,8.1,9.4c7.5-3.9,15.1-7.3,20.7-14s12.4-13.6,18.9-20.7l-7.8-1.1,1.4-6.1,5.8,2.6,1.8,5.4-9.3,11.2-9.7,11.3,22.6-4.9c.6-.1,1-.8,1.9-1.6-2.9-8.2-7.3-16.6-.3-25.4l-.2-4,2.3,2.2c-.9-4.6-3.8-9.1.1-12.7l13.1,7.1,7.4-2.2-4.8-7.4,1.3-5.5c8.2-3.8,7-13.4,11-20.3-4.3-7.1-.2-14,2.4-22.5l18.9-6.1c2.9,5.1,1.5,10-.6,14.2s-6.2,8.3-9.1,12.6c-1.2,1.8-2.6,4.4-2.3,6.4.6,4.3,2.3,8.4,3.7,12.9l-2.3,4.6,6.7,10.2,5.3-1.4-9.6,10.1c3.5,5.7,5.4,11.3.4,16.5-1.5,1.5-3.9,2.1-6.4,3.3l-1.8-8.7c-4.2,2.3-5,7.3-2.6,14.7l3.8-.9-3.4,6.2c4.8,5.7,6,12,4.8,19.2l3.2,2.1c8.9-4.9,19.4-7.5,22.5-19.8l-2.3-3.6.3-4.2.6.3,5.8-11.2c3.2.3,6.2,1.3,8.6.6,4.9-1.5,7.9-4.5,7.5-11.7s.3-11.5.5-17.2c0-1.1,0-2.2,0-3.8-6.3-.4-7.8,6.9-13.6,7.8l7.4-20.6,7.5,2.9,1.3,4.1,7.3-3.8,3.4,4.9,5.9-2.4-1.2-3.2-5.2-1.4,6.9-8.6-3.8-1.6,3.2-4.2-5-6.1c10.1-4.4,10.4-2.3,10.2-10.8l1.7,1.2,1.4-4.6-6.4,1.6-2.2,8.7a50.7,50.7,0,0,0-3.8-5.2,34.9,34.9,0,0,0-4-3.1l.9-13.3-2.3-2.5,2-6.5c.8-6.7-6.8-6-9.3-10.9l10.7-6.7,15.1,6.1-2.3,2.5,7.8,7.2,1.4-.3,2,21.3c8.3,3.6,10.6-2.8,13.9-7.9l3.9,2.1c-4.9-5.8-.4-10.6,1.8-15.9l13.7-5.7c2.3,2.2,4.3,4.7,6.8,6.3a61.8,61.8,0,0,0,12.2,6.6c1.6.6,4.4-.8,6.2-2.1,4.9-3.5,10.2-3.3,15.6-2.7s2.7-9.4,10.2-5.8l10.1-16-2.6-6.3,4.1,3.2h15.6c1.7,9.6-3.3,15.9-9,22.5l-4.7.5c-6.3,3.2-9.2,8.7-10.9,15.1a5.9,5.9,0,0,0,.1,3.2c1.3,3.8.7,7.1-1,10.8-2.7,6.1-7.2,9-13.6,9.7a3.6,3.6,0,0,0-1.3.5c-.3.2-.4.5-1,1l1.9,3.6-6.1,5.8v17.9c-7.2,2-3.3,10.1-7.6,13.8l-5.5,3.3-2.9,14.9,2.9,4.1,5.7,2.6v-.5H752v1.4l-8.5.5-9.7.6-7.3,9c2.7,5.9,7.6,10.9,1.7,18.6-6.3,4.5-10.9,12.6-13.7,21.9,0,.2,0,.4-.1.5-3.3,5.5-6.2,11.2-10,16.2-1.5,2-5.1,2.6-8.2,4l2,3.5,4.8.6,1.8,3.5-2.4,4.3-6.2,1.1-1.1-6.9-1.2-.9-14.8,17.2.5,8.5-.8.2,1.8,2.6-4.1,10-1.3,14.4.9,1.6v9.5c7.7-4.3,11-3.2,13.3,3.1l-2.3,5.8-9.1-.9a5.7,5.7,0,0,0-1.9.6l1.4,6.4,4.7-.7.3,1.1c-2.9.9-5.9,2.8-8.7,2.6-5-.4-8.5,2.2-12.1,4.6-1.1.8-1.5,2.6-1.4,4.4l3-2.7,2,2.3c2.5-.7,5.3-1,7.6-2.2s5.8-1.7,8.4.3c6.5,5,14.1,4.6,21.2,3.7,5.3-.7,10.2-3.8,15.1-5.7l6.3,4.6,2.4,4.9-11.3,4.5-.7-1.1,2.1-4-14.1,1.9c-2.5,3.4.3,9.7-7.2,10.3l1.8-7c-1.8-4.4-6.3-3.3-10.3-3.5l-3.7,7.3H672.4c-3.8-3.8-7.7-4.6-13-2.1l3.6,12,9.2,3.9L670,415l1.9-1.3,3.6,10.2,2.6-2.3,2,10.7H682l12.1,15.1,10.9-.9L729.3,466l.3-.6,5.8,7.8c2.2-5.6.6-13.4,10.2-12.7l3.6,8.2,3.3-5.6c7.4,5,7,14.4,14.1,19.7l8,1.3-.2-4.3h3.5l1.1,6.8,6-.7-2.5,5.8,6,7-2,5.1-16.3.9-10.2-4.3h-20v-4L729.3,503l-3.8-3.2-4.6,2.1v1l7.2,1.3-6.7,4.3-6.3-10.1c-5.1.3-6.4,7.3-12.6,5.8-.7,3.3-1.9,7-2.2,10.7-.3,5.3-.7,10.4-7.1,14.5,7.5,1.7,13.1,3.8,15.7,9.4l8.3,2.2,6.8-1.8,2.1,2.3-.5,7-.7.7-1.9-4c-3.6,9.2-13.9,5.6-18.4,12.3l15,8.3,5.5-2.2.4,4.1c-4.5,3.5-8.9,6.6-14.8,3.2-2,5-5.2,4.1-8.6,1.9l-1.7-4,1.4-7.1-12.9-5.3c-2.8,3-7,6.3-9.8,10.6s-4.9,10.2-7.4,15.9l-4.6,6.1-1.9-3.9c-7.3-3.2-20.4.9-22.7,7.5l4.5.6,1.7,3.5-4.1,4.8V610l2.2.7-2.1-2.4,5.8-2.5v7.9c-9.3,2.1-13.4,10-8.6,17.6s11.8,15.7,17.9,23.3c.7.9,2.3,1.1,3.8,1.8l3.1-4,15.4-1.6v-1.3l5.7,4.3L684,674l-9.7,7.3.8,3.4-4,2.2-.9-.8,1.9-9.6-4.9.4-.7-3.1-3.1,1.7-1.3-3.3c-1.1,1.3-1.9,3.6-3.9,1l2.2,7.1-5,3.7,1.6-3.5-6-4.4,1-.7-15.3-2.1.9-9.1-3.6-3.9,5.6-8-2.5-4.1,6.2-3.5-3.4-2.8,2.9-1.9-2-3.3c-7.8,8-16.5,10-26.5,4.5-1.5,6.8-7,7.4-11.9,9.3l4.2,14.8h.1c-1.4,2.8-2.7,5.7-4.2,8.5s-2.7,4.7-4.5,7.7l4.6-.6c2.6-5.6,3.3-6,7-4.2l-2.2,3.9,4.7,2.5,5.4-3.3,10.8,6.2.7-.7,2.2,6.6,4.9,3.9,5.9-2.7,4.5,3.3,4.3-2.3,2.7,5.5,4.3.4-.2,3.5c1.5,1.6,2.6,2.9,3.9,4.1,2.9,2.7,6.6,5,8.8,8.2,3.8,5.6,11.5,5.6,14.9,12.2s9.1,8.7,16.1,7.9c.7,10.9.7,10.9-3.6,13.9l-5.2-4,1.3-5.1-1.8-1.4-15.8,9c-4.9,3.3-2.8,13.2-13.1,12.3l-3.8-2.6c-2.8,1.6-5.6,4.1-8.9,5s-6.9.2-10.9.2l-1.8,7.7c-8.7,4.9-9.8,4.8-15.2-.5l-6.1,15.3,11.9-.9-3.6,7-4.3-3.3-5.5,6.4-6.3-.5c5.3,7.7,1,13.1-.8,19.2l-4.2-2.2c-4.9,4.7-10.4,2.4-16,1.2l-2-3.8-8.3,1.7.6-3.2-12.2,4.5-.6-1-7.5,7.5,2.6,3.5c-3.7,6.3,3,8,5.5,12l-.5,3.6,6.5.5,2.8-4.3h-.2l1.9-.2-1.1,10.7-5.7-.3-.3,1,7.2,4.7L552,853.6c-2.6.6-5.6-3.5-8.2,1.5,2.9,6.4-1.1,15.9,8.2,19.6l-1.5,12.5-8.1,6.5,3.6,1.4v11.4l-5.4-1.8-3-7.8c-5.3,4.7-8.4,11.8-16.3,13.6l5.8,6.4-1.7,8.2.9.7,3.6-4.7,8.5,2c-2.6,11.4,4.3,19.7,6.2,30l8.3-2.5,10,15.4h3.6l3,5.3c-.4,5.4-4.3,8.1-8.3,10.2-3,13.4-4.1,15.6-9.1,19.1-2.7-2.1-7.4-2.5-6.7-8.5l8.7-6.4-1-3.4-8.2-5.1-11.6.6-10.1-19.9L506,948.2c-2.6-8.3-11.4-13-21.1-17.7l-3.1-8.9c-3,.2-6,.5-9,.5a13.9,13.9,0,0,1-5.2-.7c-6.8-2.7-7.6-2.6-12.9,3V932c6,.6,7.7-6.3,13.1-6.6l2.4,3.8c-3.3,5-4,5.4-10.9,6.7l-2.7,5.3-11-3.4c-4.1-1.2-5.1-2.3-5.7-5.9l-15.1-17.1c0-7.7,7.5-6.2,10.4-8.6V893.3l-4.6-3.3-11.3,4.1,3.6-8.4-3.2-1.8-2.5-4.9h-1.4l-2.4,5.5-4.2-2.4c-5.3,2.4-4.6,8.9-8,12.8l-4.8-1.3-4.5,4.7.7,1-3.6.3v-6.6l7.5-3.2-4.6-6.2c-1.7,5.6-9.3,6.7-7,14.1l-2.2,1.8.9,2.2c-2.2,2.1-5,3.6-5.8,5.9s.8,5,1.5,8.6l-3.3,3.3-8.7-9.1-5-1.3,3.7-3.5-3.4-2.5c1.5-6.5,7.6-8.8,12.1-13.2l-3.8-2.4-1.1,4.1-3.7-1.4c-8.2,2.8-10,2.1-10.4-5.1l10-6.7,2.6,5.8,4.7-.3,3.6-4.1-13.4-10.2c-7.9,5-7.9,5-12.7,2l13.9-4c-3.5-3.7-3.5-3.7-9.2-2.4-5.2-3.7-11.7-5.9-13.2-13.1l-5.7.6-2.9,5.6-7.3,1-4.8-8.4-1.4.2a57.4,57.4,0,0,1-.8,6.3c-.6,2.5-.8,5.5-2.4,7.2s-5.9,5.9-7.2,10.3c-.7,2.1-2.9,3.7-4.3,5.3l-16.3-10.7-1.4,1.2,1.9,8.4-1.5,4.5-11.3,2.1v-6.1l1.7-.4V871c2.9,2,5.4,5.6,9.1.3l-14.7-6.5.4,3.7-2.9-1.4,2.5,6.1-1,.6-2.8-4.1-1.7,5.3,2.3-.3-1.2,9.2-4.7-5.8-3.2-1.2-5.6,1.5c-6.5-5.2-7.4-7.7-5.7-12.6l6.1-4.9-7-8,.9-1c6.6,2.4,13,2.1,20-1.7V839.7l-5.9-1.7c3.2-6.2,1.2-10.9-2.1-16-1.6-2.4-.3-6.8-.3-10.6l-3.8-2.4-9,7.8c-1.6-1.1-1.6-1.1.1-2.9s4.6-4.6,6.7-7.1a47.9,47.9,0,0,0,3.3-5l-9.5-11.1,1.2-5,4,5.2,5.2-5.3-.3-1.6-10.4-3.6,5-6.2,4.8,2c.5,3.8,3.2,5.6,6.5,7.2,1.4-3.6,3.3-6.8-.2-9.1l-5.9,1.5.6-4.6-5.2-.9.5-3.8-2.6-1.2-3.4-8.4-6.9,1.8v-13l-.9-.3-3.9,7.4-.8-.3.8-4.6-3.9-1.7,6.2-5.1-1.6-2.2H224.1l4.3-8.4v-8.4l-3.4-1.2-4.5,5.5-.9-.4,1.9-5.2-2.8-9.8,10.1-1.7,10.3-23.6-2.6-2.7-5.1.8,2-5c-4.4-8.5-16.3-6.8-20.5-15.8l-2.9,3.3c-2.3-2.2-5.5-3.6-3.8-8l4.2,3.4,2.8-1.7-3.5-2.8.6-.4-6.5-11.2-3.3,4.5h-1.4l-1-7.9,14.7,1.4-4-16.3-9.2-8.2,3.2-4.3-2-6.3,5.7-.8v-.2l4,8.9,4.7-1.3-1.5-12.7-4.6-3.5,2.3-6.4c-2.1-6-10.2-7.8-9.5-15.9,2.5-2.5,3.9-7,8.8-8.2l2.9,9.8,1.8-.2V567.2l8.9,2.9.3,1.2,9.8-7-.5-.6,5.9-2.9-7.9-8.4-5.4,3.9-10.7-8.9-.9-9.7c9-1.3,16.5-5.2,22-12.4-.8-4.1-6.3-8.8-12.2-10.6l-10.4,7-.4-.7-3.9,7-1.1-.4,2.8-8.7-4.7-6.5c.3-3.2,3.1-2.8,6.2-2.3l2.9,5.1,4-1.8-2.7-8-7.7-2.7-.4.4-16.6-1-2.2,6.4-4.2-2c-4.3,2-8.6,3.9-12.7,6.2s-6.3,5.8-5.5,9.6L159.2,534l-.4-.2,10.6-27.2,3,1.8,9.3-12.3.9.8v-7.3l6.5.9.9-4.5a58,58,0,0,0-3.9-6.4,7.1,7.1,0,0,0-3.7-2.7c-2.5-.4-5.2-.1-8-.1,1.3,3.2,2.5,5.9,3.3,8.7.2.5-1.3,1.5-1.3,1.5l-6.6-5.7.5-6.5,7.4-4.6-2.9-6.6-6.4,3.8c-5.4-6.6-12.7-8.1-21.2-5.5l-4.1-5,3.4-5.1c-.4-5.2-3-8.2-7.5-9.4l5.6-12.8-2.9-6.3,4.8-1.4,8.7,11-2.5,5.3,5.4-2.4c4.6-7.7-2.5-12.7-2.7-18.3-4.7-5.5-13.5-1.5-16.5-9.3l1.7-3.4,12.3,3.9c2.1-4.5.4-7.7-2.7-8.9-5.5-2.2-11.4-3.4-17.2-4.9a36.5,36.5,0,0,0-5.7-.5l-2.5,2.1-5.5-.3-1.2,7.2-1.5.5-3.8-5.6V383.6l7.7-2.1.5-7.9,3.8-.4.4,4.8,5-1.8c4.1,4.3,8.4,3.3,13.4.8,2.4-1.2,6,.2,10.1.5,1.6-2-1.7-3.2-2.8-5.4l.9-3.8c-7.1-4.7-2.3-12.5-4.6-18.5l5.1-6.3,2.6,2.1,8.7,1.7,10.4-3c-2.4-7.2-8.2-8.6-12.6-12l-4.1,2.9-2.6-9.6c3-3.4,16.3-3.9,22.2.2l-6.4,5.8,3.3,8.4c4.7-4,6.9-8.2,7.4-13.7,5.2-1.4,10.7-2.7,12.8-9.2l-3.9-4.4-4.7,1.1c-5.5-2.5-12.9-1.3-15.2-9.4l3.5-3.7,10.8,6c2.3-6.5-3.9-6.8-5.6-9.4l9.1-11.7c5.4.1,12,2.4,13-6.5l-8-1.9-.2-1.5,5.5-3.2-3.1-3.3c-5.9-1.6-5.2,4.5-8.8,6.9l-3.8-5.7a21.1,21.1,0,0,1-4.9,1.3c-1.6.1-3.1-.7-4.6-1-1.6-3.8-1.9-6.7.8-10.2s1.9-6.4,2.7-9.4l-4.1-4.8c-.6-7.8-1.7-9.2-6.7-7.6a34.6,34.6,0,0,1,.3,4.5,24.7,24.7,0,0,1-.8,4l-1.5.7-8.3-9.9,8.2-13.7-1.1-.6,4.1-3.6c5.4-1.8,8.2,1.9,11.4,5.5v11.8c4,5.8,8.5,10.1,14.5,13,3,1.5,5.3,4.3,8,6.5s5.5,4.1,10,1.4l-8.1-5.4-.7-7.6,1-.6-11.8-9.6Zm46.7,465-3,1.7,1.1.7-1.3,6.9c3.9-2.3,4-2.7,3.1-9.5,2.8-1.3,3.9-3.1,1.5-7.3Zm12.7,23.5-3.5-4.2-6.7,5.3,1.2,1.5,3.4,5.4,5.8-8.2-3.1,9.2,1.6,6.2,7.2-3.5a65.8,65.8,0,0,1-3.7-5.9A59.5,59.5,0,0,1,250.7,723.5ZM408.2,833.8c3.8,5.5,5.6,5.4,9.5.1.6-.8,2-.9,3-1.3l.4.7-1.6,2.1,5.1,1.5,2.8,14.9,8,8.9h2.7l-1.9,4.2.8,1,6.7-4.3,3.7,3.4,7.2.9c4.1-.1,2-8.8,9-6.4l-4.5,5.1.4,3.7,5.4,2c3.4-.8,6.9-1.3,10-2.6,4.8-2,10.7-2,14.3-6.5s4.3-7.4,6.7-10.9c3.4-5,4.4-10,.4-14.8A117.3,117.3,0,0,1,481.2,824c-3.1-2.9-5.1-7.1-8.2-10.2-4.8-4.9-9.7-9.5-11-16.7-5.8-.9-4.9-6.5-7.3-9.9l-5.3-2.7-2,15.1,8.4,2.9-.8,4.6,1-.2,1.4,10.8-5.3-1,.8,4.7-5.1,2.7-12.2-17.8-15.1-3.8c-5.6,7.3-13.5,13-15.6,22.8l4.5.4ZM603.1,355.5c-4.1-4-4.5-10.5-10.2-12.9s-9.8-6.2-15.5-1.8l-8.6,6.5,8.5,18.8c3-.5.9,3.5,2.6,5.8l4.9,3.7,1.3-3.3,4,7.4,11.4-6.3C594.7,366.9,599.5,361.5,603.1,355.5ZM508.7,237.6c2.9.9,5.4,1.3,7.4,2.5s3.3,2.5,3.4,4c.5,4,.2,8.2.2,12.9l4.4-2.6,2.4,13.4c1.6-.9,3.6-1.4,4.4-2.7,2.1-3.2,3.3-7,5.5-10.1,4.3-6.1,9-11.9,13.7-18.1l-1.4-2.2,6.3-3.6-8.7-9.2-4.1,1.7c1.2,3.5,3.5,6.5,1,10.2l-10-6.2-5.2,2.9-3.9-1.6ZM255.6,633c-4.3,1-8.3,2.5-12.2,2.5s-7.6-1.7-11.3-2.6l-1.3,1.6c6.9,4.1,9.7,10.8,12,18.3-1.2,3.4-4.1,7.7,2.6,11.6l8-5.8-1-.9-1.5-7,4.2-1,3.3-6.8ZM251,560.1h-7.9c-.1,6.6,7.3,4.3,9.4,8.7l-3.8,4.1c-8.4-2.5-9.3-2.4-11.5,1.2,3.1,2.1,6.5,4,9.3,6.5s5.3,5.6,7.9,8.5l8-2.8C265.5,578.6,261.1,568.3,251,560.1ZM217.6,391.8c-5-1.7-9.9-2.2-14.8,1.5l2.3-7.5-3-1.7-4.8,8.1-1.7-1.7c-.7,5.8,2.4,9.7,7.4,14-.8-5.4,1.2-7.9,5.8-8.7l4.3,9.4-9.7,2c2.6,6.6,7.8,11.2,12.6,11l-2.7-6.4,4.4-9.5Zm386,340.9L590.3,741c-3.3-1.4-6.4-4.2-9.9-.5l3.9,9.8,19.9,1.8,2.7-14.9ZM198.1,381.1l-2.3-9.6c-6.9-.2-8.9-7-13.1-12.6l-6.9,11.6,6.1,4.9c3.2,7-5,12.5-1.1,19.9l9.4-6.9-4.4-1.3c-.4-3.8-.5-7.2,2.8-9.1,1.3-.8,3.4-.4,5-.5l1.1,6.2ZM617.4,753.4c-2.3-5.9-.4-11.1,2.7-16.9l-10.8-2.9-2.4,21.2C611.1,757.6,614.2,755.5,617.4,753.4ZM259.7,622.7,261,629l6-1.8,3.1-17.6,3.9-.6,2.9-5L268,602C267.7,609.5,265.8,616.2,259.7,622.7Zm178.9-2.9-1.2-.2c-.8-3,1.4-7.3-3.8-8.7l.4,8.7,6.1,4,4.7-1.1,1.8,6,6.4-1.9c-4.1-7.9-5.1-9-9.4-10.1l-.8-4.5-1-.2ZM259.7,324.5,258,310.3c-8.1.3-12,5.2-9.9,11.1ZM189.7,440.8c-2.7,8.3,5.4,9.5,8,14.4l6-1.3,3.4-5.9L197,446.9l-1.7-5.1ZM199,336.1l-4.7-7.8,2.6-1.7-3.7-4.2-3.6,7.7,1.6,4.6-2.4,7.8C195.2,342.2,196.4,341.5,199,336.1ZM593.8,632.5l6.2.6,3,13.3,1.3-4.9,6.4-.9c-6-5.3-8.6-14.1-18.7-12.4ZM168.5,366.7l4.5-13.4-2.5-3.7-1.4.2-2.3,10-9.3.7C159.3,368,165,363.1,168.5,366.7ZM436.4,246.6l13.2,1,4.6-3.6-1.1-1.3-2.1-3.1-13.3,2.2ZM219.6,311.9l17,3.1c.3.1.8-.9,1.1-1.3-4.6-7.4-13.1-5-19.2-8.9ZM649.8,649.7l-1,.4c4.2,5.7,8.3,11.4,5.7,19.1l4,.5,2.8-10.5ZM308.2,262.1l5.4-6L303,249.3C300.1,254.8,302.1,260,308.2,262.1ZM688.9,505.5l-1.4-.6c-2.1,2.4-6.7,2.6-6.2,7.5l2.6,4.7,6.5,1.2-2.2-5.1ZM258.1,755.5c.1-4.8-1-8.3-4.9-11.3l-4.6,3.9.4,4.9Zm35.3-61.3-2.5-6.3c-2.5-.4-4.9-1.2-7.3-1s-4.4,2.2-2.7,5.5ZM278.8,586.3l-3.1-4.5c-4.1,1.4-4.1,1.4-4.8,7.2,6.6,1.7,10.6,1.1,12.4-2.1ZM606.2,237.4l-.4-.6-7.9,4.8v1.2l7.5,1.5-.4,3.4,4.8-2.4-2-6.3-3.8.8ZM184.4,168.7l-6.8-4.2,1.9,5.1,4.5,2.3-2.5,3.7,5.1,2.7,1.1-.9ZM659.9,743.2l4.4,8.3,1.5-.2,2.6-6.5-2.9-2.9Zm-39.7,22.7,4.6-9.2-4.2-1.1-4.1,3.4Zm-451-311.6-.6,8.3,1.1.4c1.9-1.8,6.1.5,6.6-4Zm97.7,146.6,1.9-6.3c-2.2-3.6-4.6-3-7.7-.8ZM446.7,794.8l-1.4-6.9-7,9.5,1,1.1ZM422.2,259.9l-1.5.8,1.4,7.8,6.6-2.8Zm-129.1,406-5.6,4.9,5.3,2.2,3.4-5.1ZM462,586.7c-3.2-.4-5.4-3.8-7.9.4l3.4,5.4ZM619.3,743.9l.2,1.4,8.7.4-6-5.3ZM283.4,594.7l3.4,4.8,3.4-7.6-1-1ZM178.6,441.8l-1.1-7.8h-1l-2.4,7.4Zm56.8,283-1.7.3,1.8,8C239.6,729.3,237,727.1,235.4,724.8Zm33.7-160.7v-1.6c-5.9-1-7.4-.6-8.9,2.1Zm320.3,64.3c-3.2-.3-3.2-.3-4.6,4l3.3,1.4ZM236,674.4l-.7,1.5c1.2.7,2.4,2,3.5,2s1.8-1.7,3.5-3.5Zm-5.3-67.8,1,2.1,6-4.4-.3-.7Zm276-332.8,3.6,3,2.3-4.3-.9-.8ZM665.9,570.6l-.4-6.2C661.2,566.5,662.4,568.1,665.9,570.6Zm-429.6,8.2.8-1.7-6.1-1.8-.5,1.7Zm43-297.8,4.8,3.3.7-5ZM774.5,87.3l-3-2.6-1.3,4.9,1.1.5ZM434.9,597.4l-1.7.4,1.1,6,1.8-.3ZM240.7,733.1l-1.8,1,2.7,3.5,1.5-1ZM652.2,113.3h-.8l-1.2,7.5,1.2.2ZM277.3,771.2l2.6,2.5,2.4-3.2-2.1-1.9ZM425.5,794c1.6-4.1,1.6-4.2-2.9-3.5Zm41.6-197.4-1.3,5.3.9.3,3.1-3.3ZM440.5,581l2.9,2.5,1.1-5.6ZM337.6,275.8l3.8-2.9-4.2-1.9Zm93.3,327.9-1.7.8,1.9,3.5,1-.4ZM585.3,177.1l-1.7-.6-1.5,3.8,1.7.6ZM253.9,872.7l-.6,1.8,3.2,1.2.6-1.4ZM452.6,594.3l1-.3-.4-3.1-2.8.8ZM286,586.6l.6,1.6,4.2-1.4-.4-1.3Zm-9,195-.5,1.6,3.5,1.4.7-1.7Z" transform="translate(-5.2 -2.9)"/><path d="M166.8,92.7l-6.4-4.2c-5.1,4.4-.8,10.1-4.1,15.4-1.4-3.3-2.5-6.2-3.8-9s-2.4-4.6-3.6-6.9L146.7,84l1-.8,4,2.4c6.2-2.4,11.6-2,15.2,4.6a5.3,5.3,0,0,0,2.1,2c7,3.5,14.7,1.4,21.8,3.7l.3-1.5-6.5-4.3,1.7-3.7H191l5-3.5-2.9-5.9-5.3,3.5-1.3-.6,1.5-7.5c6.7,1.1,8.9,5.9,11.9,9.8-1.4,4.7,3.5,9.7,8.7,8.9,2.9-.4,5.8-1,8.6-1.5,4.7,3.3,4.5,5-1.2,11.1l1.1,6.9,2.4,1.7,4.6-3.4c7.8,2.2,9.6,9.7,4.8,19l2.7,12.7,10.5-2.8,1.7,3.8,4.7-1c.1,2.7.7,5.3.3,7.8-.8,5-.9,9.6,4.3,14.4l2.4-7-.6-.3,3.1-3.6V132.6l-2.4-1.5,3.6-2.1,8.3,2.8-1.6,4.9-.7-.8c-1.5,1-3.9,1.8-4.4,3.2s.7,3.6,1.1,5.3c6.4-.9,3.4-5.7,4.8-8.4,1.9,1.6,2.6,6.3,1.5,9-3.1,7.7-2.3,10.2,5.2,14.5l2.6-4.3,3.5-.3c1.7,2.3-4.2,7.6-11.9,10.9l-1.4,7.6,5.9,3.1-.5,1.1-3.6-.9-6.3,5-.2-.2-6,5.8-21.2-26.6c-6.6,2.2-12.1.7-16.2-5.9-2.7-4.4-5.6-4.3-9.1-3.1-6.8-1-9-7.1-13.6-11.2l-9.1,4.2-5.2-1.5.6-.7-19.6-17.7.4-.7,3.4,1.8,1.3-5.9,5.9.8.6-.8-6.2-7.5c-2.9-3.6-5.2-7-1.9-11.9C167,98.4,166.5,95.3,166.8,92.7Zm21,47.4,4.7-2.2v-1.5l-7-1.9-1.5-3.1-3.6,1.8,1.3,4.4,3.3-.9Zm7.3-38.4c1.9,4.2,1.9,4.2,5,2.2Z" transform="translate(-5.2 -2.9)"/><path d="M470.2,153.6l-5.8.4-8.2-7-.5-7.7-2,4.1-.4-3.3-1-.6-4.6,5.6-7.2-3.1c-4.6-5.7-.2-11,.8-16.9l-6.3,2.7-5.3-2.3-1.3.7-.7-15.4,7.7-4.9-1.4-4.2-1.3.2c1.4-7.2,9.4-12.4,7.3-19.6l-11.8-7.7L413.6,57.9l12.2,1.2v-.5l9.4-1.1,6.8-7.2L440.4,41l.8-.7,2.5,2.9,6.2,1.3,1.1,4.4,1.6-2.5c1.7,2.9,5.5,4.5,4.8,10l10.5,2.3c-.4,6.4.2,13,6.2,18.1a7.1,7.1,0,0,1,2.2,5.2c-.6,6.5,2.3,11.1,7.1,14.9.4.3.5.9.7,1.3l-4.6,3.6c2.6,12.8-3.8,22.9-6.6,34,2.2,3.9,4.8,8.1,3.4,12.3Zm-16.3-21.6-6.7-5.7-5.2,2.2-2.3,6.4,1.2,1.1,5-2.4C448.9,136.9,451.1,136.7,453.9,132.1Zm-4.8-33.4c-4.5,3.4-1.7,6.3-.7,9.9l6.2-1.7Z" transform="translate(-5.2 -2.9)"/><path d="M494.3,128.4l-11.9-16.7.9-7.9-.7-1.3L499.8,99l5.4,10.9c-1.1,3.5-3,7-3.2,10.7a17.4,17.4,0,0,0,2.6,9.8,16.9,16.9,0,0,0,7.7,5.8c4.7,1.9,7.5,5.2,9.7,9.4s5.7,4.7,9.2,5.8c1.1.4,2.3.5,3.9.9l.4-3.8,6.1-2.6,1.7,7.4-5.8,1.7,12.6,5c3.3,3.6,4.5,8.6,1.7,14.4l-4.7,2.3v4.8c-6.8-1.2-11.1,2-14.3,7.3l-1.1-.9c.6-2.4.8-5.2,2-7.3,3.8-6.1,3.7-7.4-2.1-11.6-1.7-1.2-3.7-2.1-5.9-3.3l-4.5,4.8-4.9-.5-1.4,1.6c-5.3-4.8-10.4-9.3-15.2-14a4.2,4.2,0,0,1-.7-3.7c1.4-3.9-.6-6.4-3.5-9.2l2.4-6.6h1l-1.2-6.7-1.6-.3-7.3,8.4h-.5Z" transform="translate(-5.2 -2.9)"/><path d="M616.6,51.4V41.9l-2.4-2c-.9-8.3,7.4-11,9.4-16.9V11.2l14.2-8.2,20.6,14.6-1.8,6.1.5,9.8c-4,8.7-5.1,18.7-15.5,21.2l-9,3.3-12.8-4.4-4,1.8v6.2c4.4,5,8.1-1.2,13-.9l4.5,1.6-1.4,6.5H613.5l-3-8.5Z" transform="translate(-5.2 -2.9)"/><path d="M261.4,67.6l10.8,13.8,3,9.4,10.5-4,7.5,1.8c-1.6,4.2-4.8,5-8.1,5-5.9.2-11.8-.6-17.6.1a32.6,32.6,0,0,0-13.2,4.5c-5,3.2-9.7,4.3-15.3,2.2a17,17,0,0,0-3.1-.7c-1.1-3.2-1.6-5.9-2.9-8s-3.6-3.9-5.3-5.6c1.6-4.6,2.5-8.6,4.4-12,1-1.8,3.9-2.5,6-3.6s4.2-1.7,5.8-3.1,4.9-5.2,7.7-8.3l6.3,7.6-6.1,3.2c-1.4,9.4-1.2,9.7,4.9,12.5l-.8-4.9-.8-4.6Z" transform="translate(-5.2 -2.9)"/><path d="M323,144c-2.3-4.7-2.5-10.4-8.9-10.6,1-6.1.2-11-5.1-14.7-2-1.4-2.6-4.7-3.7-6.7l-7.3-1.3v-9.1l4.9-.9,1.9-7.3,5,6.5,3.6-6.5,3.1-1.1,3.9,3.6,3.2-2.3v7.7l4.9.5.7,2.9,1.5.3,2.1-8.4,2.6-.3a9.8,9.8,0,0,1,.1,2.5c-1,3.9-1.7,7.9-3.2,11.7s-2.7,5.3-4.9,6.7a10.9,10.9,0,0,0-5.2,9.4c-.1,2.1,2.1,4.3,3.3,6.4l1.1-.5-.4,2.2,1,.6,3.3-4.2H341l4.8,7.2C339,144.5,331,143.4,323,144Zm-5.5-40,1.5-5.7-4.4-1.7-1.6,4.9Z" transform="translate(-5.2 -2.9)"/><path d="M188.1,863.1a32.6,32.6,0,0,0,3.2-2.7,29.7,29.7,0,0,1,5.4-5.2c.8,7-3.3,12-6.3,18.2l2.4,5.1h-.6v13.9l-4.7.4-5.2-3-6.9,5.8-4.8-.7-.5-1.6-12.9,4.8,3.6-16c2.4-1.9,5.7-3.9,8-6.7,4.6-5.7,10.1-11.2,8.6-19.6-.5-2.9.5-4.4,3.4-4.6,2.6-13,4.7-17.9,11.5-25.4,1.9,4.7-1.5,7.8-2.9,11.2s-4.1,7-6,10.1l8.1,9.8-3.3,6.2-2.2,4.5,1.7,2.5,1.6-1Zm-17.8,14.8c-.9,6.6,5.5,6.4,7,9.4l6-1.7Z" transform="translate(-5.2 -2.9)"/><path d="M815.8,443.3c-4.6,8.2-10.5,9.6-17.8,5-4.1-2.6-8.4-4.4-10.8-9.4-1.3-2.7-5.2-4.3-8.2-6.5l1.4-2.8-5.4-4.1L772.3,415c1.7-.3,4.1-.3,6.1-1.1s3.8-2.4,5.9-3.7l1.1,1.3c2.2-2.9,2.4-7.8,8.6-8.1l4.8,7.8-2,4.1-4.7.5,2.6,9.9,9.3-1.8,5.7,4.8Z" transform="translate(-5.2 -2.9)"/><path d="M746.2,65.8l2.5,5.2-2.2,4.7c-7.9-3.1-14.9-14.5-14-22.2.2-2.1.3-4.5-.6-6.3-2.3-4.6-1.2-8.9.8-14.4l25.6-2,5.4,10.2c-.3,2.6-.5,4.8-.8,6.9-.6,6.3-2.5,9.5-11.9,12.2-2,.6-3.9,1.5-6.5,2.6l6.9,4.5-.4.8Z" transform="translate(-5.2 -2.9)"/><path d="M619,833c7.6-5,7.6-5,8-7.8l8.5-1.8,3.3,4.4,4.4-3,.8,6.4,3.9,2,1.9,11.9,3.2,2.6-1.2,4.4-8.6,2.6,1,2.5L641,865l-9.4,5.3.5-6.2c-5.6-4.2-1.1-10.3-1.9-16.3l-6.3-1.8C622.7,842.1,617.4,839,619,833Z" transform="translate(-5.2 -2.9)"/><path d="M154.3,195c-1,6.8,7.7,8.7,3.4,14.8l4.3,6.2-3.7,5.3-5.6-4.2,3.5-4.7-4.6-6.4L138.9,211l-2.3-14-4.3.2c-5.6-6.7-5.2-17.8,1-27.3-3.5-5.2-9.3-8.8-11.9-14.7l1.1-1L136,166.5l6.7-3.7,1.1,1.2-3.6,6.9.7,3.1-4.2-.5-4.2,6.5,5.6,4.9,7.8-5.8C153.9,184.3,156.3,189.8,154.3,195Z" transform="translate(-5.2 -2.9)"/><path d="M551.1,918.6c5.6-.5,9.8-.6,13.8-1.4,6.6-1.3,10,.4,12,6.7l1.4,4.5c.7,9-4.5,12.6-10.8,14.9s-11.7,4-17.8-.3l-.7-2.6-4.7-5.5,6.3-2.2v-5.5c-3.5-2.3-4.4,5.6-8.3,2.5Z" transform="translate(-5.2 -2.9)"/><path d="M861.1,673c-2.4-2.3-5-4.5-7.3-6.9a85.3,85.3,0,0,1-5.7-7.1c-16-23.6-28.7-49.3-48.2-70.8l2-4.9c3.7-.9,5.1,1,6.4,3.6a86,86,0,0,0,5.3,9.4c.9,1.3,2.5,2.1,4,3.4s2.5,6.1,4.5,9c6.7,9.6,14.3,18.5,20.2,28.5,3.4,5.7,9.5,9.6,10.9,16.7.5,2.4,2.8,4.4,4.1,6.7s3.8,7.3,5.7,10.9Z" transform="translate(-5.2 -2.9)"/><path d="M673,871.6l-4,5.5-2.8,7.9-7,1.9-8.7-12.5,2-9.8,13.5-5-.2-1,8.2,1.5,1,1a46.7,46.7,0,0,1,3.4-4.8,10.8,10.8,0,0,1,4.6-2.9c.6,5.9-3,10-4.6,14.8s-2.2,9.8-3.2,14.7h-1.3Z" transform="translate(-5.2 -2.9)"/><path d="M147.1,327.4l-12.4,3.4v.9l8.4,2.4-11.9,10.2c-2-1.5-2-1.5-.3-7.6l-3.4-12.1-6.6-1.3-3.6-7.2h-1.5l4.1-10.5,1.2.4v-5.3l12,8.6c4.8-1.2,9.7,1.9,8.9,7.7l-9.2-2.8-2.5,4.5,5.2,3.9,4.3-2,7.4,7Z" transform="translate(-5.2 -2.9)"/><path d="M613.2,811.9l1.4-13.1,9.7-3.7,5.7,3.8-.9.4,4.7,9.9-2.3,5.1c2.3,3.6,7.6,3.3,8.8,7.5-3.6.3-6.5.4-9.4.8-5.6.7-10.6-.1-14.2-4l-2.3-6.3Z" transform="translate(-5.2 -2.9)"/><path d="M721.8,755.6c12.9,1.4,11,3,10.4,8.4l-4.4,2.1L723,764l-2.8-7.8.7-.3-2.4-3.7c-1.2-6.6-2.3-13.3-9.3-16.7,7.2-8.8,14.6-7.8,24.2,3.5-.1,3.7-1.1,6.7-4.9,8.7s-5.4,4.1-8.1,6.2Z" transform="translate(-5.2 -2.9)"/><path d="M259.8,238.6c-4.5-9.6-4.4-10.7,1.6-16.8l9.4,5.8.9,14.3h-1.2l2,4.3c-1.3,6.3-4.6,9.3-9,8.2C257.7,252.9,256.5,247.8,259.8,238.6Z" transform="translate(-5.2 -2.9)"/><path d="M752.5,680.1l3.7.9-1,15.1-6.2,4.7-10.2-6.7-1.2-6.9,2.8.5.6-3.6-2.5.7-2-6.7,4.1-7.8Zm-3.8,5-1.8-.3-.7,3.5,1.7.3Z" transform="translate(-5.2 -2.9)"/><path d="M565.3,116.1l3.2,2.7v13.9l-2.7,8.9-11.2-4.8c-4.3-1.8-3.8-6.2-4.7-9.6s-.5-6.5-.7-10H565Z" transform="translate(-5.2 -2.9)"/><path d="M356.5,970.1h-3l-1.1-4.7L343,951.7l6.7-2.8,23.9-1.3Zm5.4-18.1-5.9-2.5,2.9,4.9Z" transform="translate(-5.2 -2.9)"/><path d="M256.7,117.3l-4.1,6.3c-3.8-3.8-.9-6.3.6-9.3l-9.4-4c-3.4,7-.3,13.8-1.1,21.3l-7.1-.8V110.3c2.4-.8,5.5-1.7,8.5-2.9s3.7-2.3,5.7-3a34.3,34.3,0,0,1,5.6-1.2l4.9,12.9Z" transform="translate(-5.2 -2.9)"/><path d="M280.7,133.7l-7.3-4.9,1.2-1.7,5.3-.5-3.5-6.1,4.5-4.9,7.4-2.7c6,1.6,7.5,5.8,6,17.4C291.7,133.4,291.7,133.4,280.7,133.7Z" transform="translate(-5.2 -2.9)"/><path d="M287,61.6l1.3,5.2-3.3,5.4h-9.2c-5.5,0-7.7-2.7-8.6-11L263,59l1.1-2.3h23.4l.2-1.5,7.4,3.4Z" transform="translate(-5.2 -2.9)"/><path d="M182.1,906.2l-1.8,6.5,1.8,1.4v6.2l-3.9-4.4-20.5,39-1.5-.7,17-39.1-5.6-4,.3-.7,7,2.8,6.5-11.1c2.9.5,7-3.1,9.5,2C189,907.1,185.6,908,182.1,906.2Z" transform="translate(-5.2 -2.9)"/><path d="M723.2,259.8l-4.1-6.7,5.4-8.8.9.9,7,1.2-1.4,3.3,7.2,5.5-5.6,6.4-1-.7V266l-5.3-3.7-5.8,1.4Z" transform="translate(-5.2 -2.9)"/><path d="M674.6,888l2.2,2.5-6.1,12.6c2,4.9-4,6.7-6.2,10.8l-4.4-1.7-2.9-6.9-1-.8Z" transform="translate(-5.2 -2.9)"/><path d="M130.2,125.3c-.3,6.9-6,9.3-9.5,13.8h4.8l.7,6.8-1.5.9c-1.5-1.4-3.1-2.6-4.6-4.1s-2.5-3-4.5-5.5l-5.1,11.9h-.9l2.1-15.2,9.8-.4.7-7Z" transform="translate(-5.2 -2.9)"/><path d="M5.2,387.1c1.3-1,2.4-2.6,3.8-2.8,3.6-.5,7.2-.2,10.8-.4s6.2-.5,9.9-.8l1.2,2c2.6,2.1,6.9-1.8,9,4.1l-9.5-.9-4.2,4.5c-3.6-5.2-7.5-3.6-11-2.2l-9-1.8Z" transform="translate(-5.2 -2.9)"/><path d="M610.5,950.4l3.3,6.3-4.5,9.8h-5.5l1.4-1.5-9.2-6.7,2.4-4.5,7.4-1.9,2.4,3.5,1-5.4Z" transform="translate(-5.2 -2.9)"/><path d="M701.9,871.7a7,7,0,0,1-.2,2.4,27.7,27.7,0,0,0-2.5,17.2c.2,1.4-1.4,4.1-2.8,4.5a6.8,6.8,0,0,1-5.8-1c-1.3-1.1-2.3-4.3-1.6-5.6,3.4-6.3,7.5-12.3,11.3-18.4Z" transform="translate(-5.2 -2.9)"/><path d="M437.2,159.2l7.1-.7,3.8-2.8,2.3,4.6c-4.3,12.6-9.5,18.4-14.8,15.9l5.9-9.3Z" transform="translate(-5.2 -2.9)"/><path d="M321.3,868.5l-.3,4.4-4.1,3.8c1.2,3.6,2.8,6.7,2.9,9.8.1,1.5-2.8,3.1-4.4,4.7C309.6,884.7,311.4,869.2,321.3,868.5Z" transform="translate(-5.2 -2.9)"/><path d="M507.5,187.7l2.2,6.8-1,.5-6.1-3.9.8-.8-5.8-7.2,15.4-7.3c2.4,2.6-.5,4.6-1.3,6.5S508.7,186.1,507.5,187.7Z" transform="translate(-5.2 -2.9)"/><path d="M754.2,277.1H762l3.1,3,.9-.5.4,4.6c-2.5,3.9-5.1,7.2-11.5,5.5Z" transform="translate(-5.2 -2.9)"/><path d="M173.5,87l-2.6-.9,3.4-10.7c-6.9.6-13.1,1.1-15.8-5.3l.7-1.2,2.6,2.5c8.6.5,3.8-7.5,8-10.8l4,16.1h2.3l-2.8,10.4Z" transform="translate(-5.2 -2.9)"/><path d="M770.1,807.6l-33.2-33.3,1.5-1.5c11.6,10.6,23.8,20.5,32.7,33.7Z" transform="translate(-5.2 -2.9)"/><path d="M421.5,88.4l6.9,17.9-6.3,3.9-1.8,6.4-3.6-1.9.5-4.3,4.7-2.8C423.3,101,415.9,94.9,421.5,88.4Z" transform="translate(-5.2 -2.9)"/><path d="M135.2,147.6l.4-7-3.5-8.5h1.4l7-4.2,4.9,4.4h-4.7l1.5,3.6-2.6,2.1c.6,3.7,1.7,7.5-2.6,9.9Z" transform="translate(-5.2 -2.9)"/><path d="M574.5,833.7l-7.6,1,1.3-3.8-3.6-9.1,3.8.9,2-3.4,6.5,6.8c.6,3,.4,5.8-2.6,7.7Z" transform="translate(-5.2 -2.9)"/><path d="M390.3,918l-6.1-2.1,1.5-13.5,3.9-.8,4.8,8.7-.4,5.6Z" transform="translate(-5.2 -2.9)"/><path d="M461.9,199.3l-2.9-1.9c0-5.4-.1-10.7.1-16.1,0-.7,1.3-1.4,2.5-2.7l5.3,9.1Z" transform="translate(-5.2 -2.9)"/><path d="M761,761.5l-6.7-1.8-1.9-16.5C757.1,745.5,762.7,757.2,761,761.5Z" transform="translate(-5.2 -2.9)"/><path d="M820.1,930.7l-17.7,11.8-2.8-2,4.6-6.2c5.8.7,8.7-7.4,15.1-5.1Z" transform="translate(-5.2 -2.9)"/><path d="M218.1,564.7l8.3-6.1,5.7,1.8c-8.7,6.9-15.1,7.8-23.1,3.3a10.8,10.8,0,0,1-3.8-4.6C211.3,557.2,213.6,562.9,218.1,564.7Z" transform="translate(-5.2 -2.9)"/><path d="M733.4,446.3l-9.3-7.4c2.4-3.3,6.7-5.1,12.1-5.6l1.9,3.6Z" transform="translate(-5.2 -2.9)"/><path d="M755.9,773.9a56.4,56.4,0,0,1-18.2-18c9.6,2.1,13.4,10.6,19.8,16.4Z" transform="translate(-5.2 -2.9)"/><path d="M876.9,415.2l5,1.3c.2,4.4-.4,4.8-8.7,5.7l-2.4,5.3-1.7-.4.3-5.6-2.9-2.5Z" transform="translate(-5.2 -2.9)"/><path d="M829.7,83.2l13.6,6.2c-1.4,2.8-1.6,7.5-6.8,7.9Z" transform="translate(-5.2 -2.9)"/><path d="M714.5,349.6l5.8,1.8-1.8-1.2-7.9,8.6,1,1.7-1.6-2.1-2.1,2.5c-.9.4-9.5-2.7-10.8-4.7a15.3,15.3,0,0,0,14.3,0Z" transform="translate(-5.2 -2.9)"/><path d="M739,788.3l21.7,24.4-1.4,1.2-22-24.1Z" transform="translate(-5.2 -2.9)"/><path d="M182.5,562.2c-.4,3-.7,5.2-.9,7.3s0,4.1,0,6.1l-1.8.5-4.4-6C177.3,561.7,179.5,559.7,182.5,562.2Z" transform="translate(-5.2 -2.9)"/><path d="M670.3,620.9l-10.8,8-5.3-9.5Z" transform="translate(-5.2 -2.9)"/><path d="M339.5,983.1l-5.4-8.7,1.3-1.1,2.6,4.7,10.2-2.1A7.2,7.2,0,0,1,339.5,983.1Z" transform="translate(-5.2 -2.9)"/><path d="M268.7,888.8l6.2-2.3-.8-1.5.6,4,5.8-1.6.6,1.1-5.7,5.9-.8-.6v4.9Z" transform="translate(-5.2 -2.9)"/><path d="M758.6,62.3l3.7,3.5-.3,3.8L755,73.4c-2.5-2.3-3.9-4.3.2-6.6C756.7,65.9,757.5,63.9,758.6,62.3Z" transform="translate(-5.2 -2.9)"/><path d="M194.8,643.1l-5.9,7.1-6.3-2.3,5.5-8Z" transform="translate(-5.2 -2.9)"/><path d="M107.6,85.2c4.1-2.4,10.8.4,12.7-6.6l1.1.7.7,4.8-6.8,4.1v1.1l-7.6-2.8Z" transform="translate(-5.2 -2.9)"/><path d="M151.7,489.2c-3.1,5.8-7.1,6.8-14,3.7l7.7-5.4Z" transform="translate(-5.2 -2.9)"/><path d="M156,536.6c4.7,1,7.4-1.4,10.2-4,1.2-1.2,3-1.8,4.5-2.7l.9,1.4a55.3,55.3,0,0,0-4.2,3.7,50.7,50.7,0,0,0-3.3,4.4l-7.1.5-1.7,3.9-1.7-1.3Z" transform="translate(-5.2 -2.9)"/><path d="M47.3,412.3q0-1.4,0-2.8l-3.9-1.8c.7-1.2,1-2.7,1.7-2.9,3.3-.9,6.8-2.6,10.1.4-1.6,1.7-3,3-4.2,4.5a26.6,26.6,0,0,0-2,3.6Z" transform="translate(-5.2 -2.9)"/><path d="M790.6,70.1c-5.8-9.1-2.3-13.9,5.7-19-1.7,3-4.2,5.9-5,9.1s.5,6.5.9,9.8Z" transform="translate(-5.2 -2.9)"/><path d="M693,319.8c-.7-1.7-1.3-3.5-2.1-5.1s-2-3.2-2.9-4.7l12,2.5-5.5,7.1Z" transform="translate(-5.2 -2.9)"/><path d="M264.1,905.2a33.4,33.4,0,0,1,1.7-3.6c.8-1.4,1.9-2.7,2.9-4l3.8,3.6-7.5,9.6-1.1-.5,1.4-4.2-1.4-.9Z" transform="translate(-5.2 -2.9)"/><path d="M227.3,754.2a9.1,9.1,0,0,1,5.6-11.8C234.3,747.5,232.6,751.3,227.3,754.2Z" transform="translate(-5.2 -2.9)"/><path d="M696.7,867.7l-2.1,9.8-4.9,1.1c-4.9-5.1,4.7-5.7,1.9-9.9Z" transform="translate(-5.2 -2.9)"/><path d="M719.8,41c-2.2-5.7-1.4-6.8,6.5-9.4l1.9,5.2Z" transform="translate(-5.2 -2.9)"/><path d="M207.1,677.7c-5.7-3.5-6.2-9.4-7.5-15.4l3-.2Z" transform="translate(-5.2 -2.9)"/><path d="M187.5,601.2c3.1,3.9,11.9,2.9,9.5,11.4C194.9,607.7,187.6,607.6,187.5,601.2Z" transform="translate(-5.2 -2.9)"/><path d="M124.5,442.8l1.9-7.7c6.3,1.2,7,2.5,4.9,7.7Z" transform="translate(-5.2 -2.9)"/><path d="M235.6,788.9l-4-3.8,8.1-3.1,3.1,6.4Z" transform="translate(-5.2 -2.9)"/><path d="M301.7,143.1l-5.5-6.9,7.2-3.5c3.7,4.6-1,7.2-1.9,10.5Z" transform="translate(-5.2 -2.9)"/><path d="M308.3,69.8l6.8-2,3.8,6.4c-5.4,2.1-7.9-.9-10.6-3Z" transform="translate(-5.2 -2.9)"/><path d="M184.4,662l-7.8,4.5-1.4-8.5,8.5,2.3Z" transform="translate(-5.2 -2.9)"/><path d="M157.2,263.9c-.3,2.1-.1,4.3-1.1,6.1s-2.8,1.1-5.2,1.8l.4-7,4.3-1.5Z" transform="translate(-5.2 -2.9)"/><path d="M211.7,735.9l6-8.3,2.9,6.8-8.3,3Z" transform="translate(-5.2 -2.9)"/><path d="M217.8,704.4l4.3-6.8c4.4,2.8,3.3,5.7,2.2,9.2l-5.4-.8Z" transform="translate(-5.2 -2.9)"/><path d="M694.5,818.3l-5.5-2.7,5.4-8.4,1.8.7Z" transform="translate(-5.2 -2.9)"/><path d="M849.8,877.8l14.5,16.3-1.4,1.2-14.3-16.4Z" transform="translate(-5.2 -2.9)"/><path d="M600.6,873.8l-1,4.4c-3.8,1.6-5.5.1-6.8-4.1l7-2Z" transform="translate(-5.2 -2.9)"/><path d="M606.5,665.1h7.1l5,6.3-.6.7c-3.8-1.7-7.2-3.1-10.5-4.8-.6-.3-.6-1.6-.9-2.4Z" transform="translate(-5.2 -2.9)"/><path d="M147.1,327.4l4.5,13.7-.7.3-4.9-4.4,1.1-9.7Z" transform="translate(-5.2 -2.9)"/><path d="M429.7,897.9l2,3.4-5,6.2-1.2-1v-8Z" transform="translate(-5.2 -2.9)"/><path d="M334.1,883.4l-5.2,4.8-3.1-4.4,3-4.6Z" transform="translate(-5.2 -2.9)"/><path d="M702.7,806.3,705,814l-6.2-1.5C697,809.2,697.7,807.3,702.7,806.3Z" transform="translate(-5.2 -2.9)"/><path d="M130.2,512.2l-3,8.9-4.7-3.1,5.7-6.6Z" transform="translate(-5.2 -2.9)"/><path d="M216.2,785.9l6.4-12.1C224.4,778.5,221.6,783.9,216.2,785.9Z" transform="translate(-5.2 -2.9)"/><path d="M155.4,466.8l7.7,1.8v1.8l-7.3,3.9Z" transform="translate(-5.2 -2.9)"/><path d="M120.1,73.8c-1.2-4.8-2.8-8.7,1.8-12.8C122.9,65.8,121.9,69.4,120.1,73.8Z" transform="translate(-5.2 -2.9)"/><path d="M802.2,418.9l-1.8-5.2,6.8-.6.7,1.4-4.3,5.2Z" transform="translate(-5.2 -2.9)"/><path d="M612.1,160.8l5.2-1.8,1.3,5.2-6.9,1.6Z" transform="translate(-5.2 -2.9)"/><path d="M825.4,861.6l-7.6-7.4C823.1,853.5,824.9,855.2,825.4,861.6Z" transform="translate(-5.2 -2.9)"/><path d="M922.9,404.9l-8.5.9-.9-1.5,5.8-4.7Z" transform="translate(-5.2 -2.9)"/><path d="M697.5,856.7c.4,4.1-1.3,7.2-4.9,10.6C690.9,861.4,698.7,861,697.5,856.7Z" transform="translate(-5.2 -2.9)"/><path d="M859.7,871.4l9.7,9.3-1.4,1.4-9.3-9.5Z" transform="translate(-5.2 -2.9)"/><path d="M727.1,45.7l2.2,8.4-.8,1-5.4-4Z" transform="translate(-5.2 -2.9)"/><path d="M716,315.9c5.4,5.7.4,9.6-1.1,13.8Z" transform="translate(-5.2 -2.9)"/><path d="M259.3,824.7l-1.2,4.7-5.5-2.7V825l5.5-1.5Z" transform="translate(-5.2 -2.9)"/><path d="M670.7,618.8l1.2-3.9-2.1-2.9a5.6,5.6,0,0,1,1.9-.4,14.3,14.3,0,0,1,3.1,1c-.5,2.3-1.2,4.5-1.9,6.8Z" transform="translate(-5.2 -2.9)"/><path d="M239.5,877.4l3.6-2.8v10.9C242.1,885.6,242.1,885.6,239.5,877.4Z" transform="translate(-5.2 -2.9)"/><path d="M144.2,484.2c2.6-2.9,4.7-4.4,8.1-2C150.6,486,148.1,486.1,144.2,484.2Z" transform="translate(-5.2 -2.9)"/><path d="M210.8,743.8l-2.7,6.2h-1.3c-.4-.9-1.5-2.2-1.2-2.7a35,35,0,0,1,3.6-4.7Z" transform="translate(-5.2 -2.9)"/><path d="M585.3,115.3l5-3.9,1.7,1.4c-.9,1.6-1.6,3.4-2.9,4.6s-2.3-.1-3.5-.2Z" transform="translate(-5.2 -2.9)"/><path d="M681.1,683.9l-4.1,7.6-4.1-2.5,7.5-5.7Z" transform="translate(-5.2 -2.9)"/><path d="M815.5,369.3l-3,3.5H811l-1.1-5.7,1.5-.8Z" transform="translate(-5.2 -2.9)"/><path d="M406.2,102.3c-.5-1-1.7-2.4-1.4-3,1.7-3.6.9-6.2-2.3-8.4,3-.1,4.4,2,4.5,4.4s-.6,4.7-1,7.1Z" transform="translate(-5.2 -2.9)"/><path d="M714.2,281l2.9,2.3-6.1,5.4-.9-.8Z" transform="translate(-5.2 -2.9)"/><path d="M582.2,833.3l-3.2-9.4,1.9-.6,3.1,9.6Z" transform="translate(-5.2 -2.9)"/><path d="M839.1,892.1l-8-7.4,1.6-1.6,7.4,8Z" transform="translate(-5.2 -2.9)"/><path d="M813.5,839.1l6.2,6.3-1.4,1.4-6.5-5.9Z" transform="translate(-5.2 -2.9)"/><path d="M254.7,842l7.3-.5v3.4h-5.4Z" transform="translate(-5.2 -2.9)"/><path d="M126.1,415.4l3.9.9-1.5,4.6h-1.2l-2.3-4.4Z" transform="translate(-5.2 -2.9)"/><path d="M263,198.4l-7.5,8.2c-.1-1.1-.5-2.1-.2-2.7C256.9,201.3,258.6,198.4,263,198.4Z" transform="translate(-5.2 -2.9)"/><path d="M92.1,322.5l-1.3,2.6-5.6-1.9.4-3Z" transform="translate(-5.2 -2.9)"/><path d="M735.9,742.8l6-.3c-1.1,1.8-1.8,3.8-2.4,3.8s-2.9-1-4.3-1.6Z" transform="translate(-5.2 -2.9)"/><path d="M173.2,502.6c-1.8-6.3-1.2-7.2,3.5-6.1Z" transform="translate(-5.2 -2.9)"/><path d="M242.8,840.7c-.5-3.5-2.7-7.3,1.7-10.2Z" transform="translate(-5.2 -2.9)"/><path d="M114.9,343l-4.5-1.1-.2-1.3,4.2-2.6,1.3,3.8Z" transform="translate(-5.2 -2.9)"/><path d="M119,294.1c4.5-.1,4.9,1.1,1.8,6.9Z" transform="translate(-5.2 -2.9)"/><path d="M492,66.9l2.9,2.7-2.7,3.7h-1.4l-.5-5.7Z" transform="translate(-5.2 -2.9)"/><path d="M301.6,143.2l6.4,3.3-4.9,2.9-1.4-6.3Z" transform="translate(-5.2 -2.9)"/><path d="M114.1,237.4l4.6,2.7-4.5,2.1-1.8-3.8Z" transform="translate(-5.2 -2.9)"/><path d="M253.1,221.8v-6.3l.9-.3,2.9,4.3Z" transform="translate(-5.2 -2.9)"/><path d="M722,836.9c1.3,2.6.6,4.2-3.6,4.2l1.8-5Z" transform="translate(-5.2 -2.9)"/><path d="M150.2,221.4l-3.2,4.6C144.5,222,144.7,221.6,150.2,221.4Z" transform="translate(-5.2 -2.9)"/><path d="M263.9,905.1l-5.1,4.9-2.3-4.8,3.9,1.1,3.6-1.2Z" transform="translate(-5.2 -2.9)"/><path d="M36.7,817l-5.1-1.3,1.7-4.9Z" transform="translate(-5.2 -2.9)"/><path d="M923.3,390.1l-1.7-7.3,2-.4,1.4,7.5Z" transform="translate(-5.2 -2.9)"/><path d="M153.3,476.4l5.5-2.2c-.4,4.8-2.4,4.6-4.6,4Z" transform="translate(-5.2 -2.9)"/><path d="M70.7,620.2l-.5-4.2,4.6-.7-2.5,5.3Z" transform="translate(-5.2 -2.9)"/><path d="M150.1,168.6l-2.5-7,1.3-.5,3.2,6.7Z" transform="translate(-5.2 -2.9)"/><path d="M90.1,169.2c1.7-.1,3.4-.6,4-.1a4.4,4.4,0,0,1,.9,4.1Z" transform="translate(-5.2 -2.9)"/><path d="M483.9,122.7l-2.5,1.1-2.5-3.2,1.2-3.5Z" transform="translate(-5.2 -2.9)"/><path d="M206.4,607.9l-.3-5.2,5.3,2.7-.3,1.1-4.9,1.2Z" transform="translate(-5.2 -2.9)"/><path d="M650.9,842.9l3.1-7.1C655.3,839.2,654,842.6,650.9,842.9Z" transform="translate(-5.2 -2.9)"/><path d="M406.1,102.4l3.2-1c2.7,3.7-.4,4.2-3,5.9v-5Z" transform="translate(-5.2 -2.9)"/><path d="M55.1,275.7l2-4.3h1.3c.3,1.2,1.2,2.5.9,3.5s-1.9,1.4-2.9,2Z" transform="translate(-5.2 -2.9)"/><path d="M173.3,87.2h5.8c-1.5,2-2.1,3.6-3,3.7-2.8.3-2.9-1.8-2.7-3.9Z" transform="translate(-5.2 -2.9)"/><path d="M38,978.6l-2.5,5.2C32.8,979.4,32.9,979.2,38,978.6Z" transform="translate(-5.2 -2.9)"/><path d="M737,761l3.4,4.9C735.4,766.7,734.6,765,737,761Z" transform="translate(-5.2 -2.9)"/><path d="M840.7,867.5l5.4,5.9-2,2-4.6-6.6Z" transform="translate(-5.2 -2.9)"/><path d="M159.9,624.3l3.4,2.3-3.3,3.6-1.4-5Z" transform="translate(-5.2 -2.9)"/><path d="M712.8,360.7l4.8-2.7C717.6,362.9,717.4,363.1,712.8,360.7Z" transform="translate(-5.2 -2.9)"/><path d="M806.2,516l2.1-3.6,3.1,3.7-4.6,1.2Z" transform="translate(-5.2 -2.9)"/><path d="M268.1,190.4l7.3.7C271.4,193.6,270.4,193.6,268.1,190.4Z" transform="translate(-5.2 -2.9)"/><path d="M253,803l-5,3.7-1.1-1.4,4.8-3.9Z" transform="translate(-5.2 -2.9)"/><path d="M502.5,166.4l-3,3.3-3.9-3.6,6.4-.9Z" transform="translate(-5.2 -2.9)"/><path d="M877.1,919.5l-4.9-6.3,1.1-.9,4.9,6.2Z" transform="translate(-5.2 -2.9)"/><path d="M197.5,836.7l-3.9-.9-.3-1c1.1-.5,2.1-1.4,3.2-1.3s1.4,1.4,2,2.2Z" transform="translate(-5.2 -2.9)"/><path d="M266.8,257.8a18.9,18.9,0,0,1-1.3,1.9l-1.4,1.1-2.4-2.2c.5-.7.9-1.7,1.3-1.7A24.3,24.3,0,0,1,266.8,257.8Z" transform="translate(-5.2 -2.9)"/><path d="M87.2,452.9l1.7-5.3C92.1,451.5,92,451.6,87.2,452.9Z" transform="translate(-5.2 -2.9)"/><path d="M193,638.5l.7-4.2,2,.2-.3,4.4Z" transform="translate(-5.2 -2.9)"/><path d="M152.2,963.7l2.3-5.7,1.4.5-2,5.9Z" transform="translate(-5.2 -2.9)"/><path d="M191.2,234.8l-.3,4.5-3.9-4.4.8-1.1,3.6,1.2Z" transform="translate(-5.2 -2.9)"/><path d="M180.3,483.1,184,479C184.6,483.4,184.6,483.4,180.3,483.1Z" transform="translate(-5.2 -2.9)"/><path d="M134.7,667.9l1.6,3.8c-1.4,0-2.9.3-3.1,0a13.4,13.4,0,0,1-.5-3.5Z" transform="translate(-5.2 -2.9)"/><path d="M352,184.1l2.2-3,1.3,1.1-2.5,2.8Z" transform="translate(-5.2 -2.9)"/><path d="M208.4,689.4l4.1-1.4.4,1.2C212,690.5,211.2,692.5,208.4,689.4Z" transform="translate(-5.2 -2.9)"/><path d="M211.5,707.5c3.4,1.8,2.8,3.1,0,5.4Z" transform="translate(-5.2 -2.9)"/><path d="M465.3,165.8l-.4,4.2h-1.6v-4.4Z" transform="translate(-5.2 -2.9)"/><path d="M356.8,246.3v-5.7l4,2.8Z" transform="translate(-5.2 -2.9)"/><path d="M152.2,117.4l-1.2-5.8,1.2-.2.8,5.8Z" transform="translate(-5.2 -2.9)"/><path d="M284.7,107.9l4.6.6V110l-4.6-.3Z" transform="translate(-5.2 -2.9)"/><path d="M110.8,777.1v4.5l-4.5-1.9Z" transform="translate(-5.2 -2.9)"/><path d="M216,697.8l-4,1.7-.7-1.4,3.7-2.2Z" transform="translate(-5.2 -2.9)"/><path d="M483.6,86.3l1.9,4.1-1.2.7-2.5-3.8Z" transform="translate(-5.2 -2.9)"/><path d="M318.4,147.5l-4.8-1.6.3-1.2,4.9,1.3Z" transform="translate(-5.2 -2.9)"/><path d="M311.8,132.4l1.9,3.3-1.7,1-2-3.2Z" transform="translate(-5.2 -2.9)"/><path d="M198.5,575.6l-1.5-3.4,1.7-.8,1.8,3.2Z" transform="translate(-5.2 -2.9)"/><path d="M301.7,119.8l-2.3-3,3.7-.8-.3,3.4Z" transform="translate(-5.2 -2.9)"/><path d="M230.6,93.7l2.7,2.2-1.3,1.5L229,95.3Z" transform="translate(-5.2 -2.9)"/><path d="M678.6,848.8l2.4-2.5,1.3,1.2-2.2,2.7Z" transform="translate(-5.2 -2.9)"/><path d="M232.1,797.5l3.7,1.8-.7,1.6-4-1.9Z" transform="translate(-5.2 -2.9)"/><path d="M296.4,883.6h-4.2C294.3,880.6,294.3,880.6,296.4,883.6Z" transform="translate(-5.2 -2.9)"/><path d="M849.4,380.7l-4.4.3-.2-1.5,4.3-.8Z" transform="translate(-5.2 -2.9)"/><path d="M886.1,632.7l-1.2,3.6-1.8-.6,1.1-3.6Z" transform="translate(-5.2 -2.9)"/><path d="M637,781.8l-.9-5.2,1.5-.3,1.1,5Z" transform="translate(-5.2 -2.9)"/><path d="M864.1,699.2l-2.7,2.1-.9-1.1,2.4-2.7Z" transform="translate(-5.2 -2.9)"/><path d="M222.9,752.3l-2-2.7.7-.8c.6.3,1.5.4,1.9.9s.3,1.4.4,2.1Z" transform="translate(-5.2 -2.9)"/><path d="M179.3,599.6l-3.2-1.1a5.4,5.4,0,0,1,.5-1.2l3.4.4Z" transform="translate(-5.2 -2.9)"/><path d="M830.7,836.6l2.3,2.9-1,.9-2.5-2.7Z" transform="translate(-5.2 -2.9)"/><path d="M632.2,647.6l3.1,2.8-.9,1.1-3.3-2.6Z" transform="translate(-5.2 -2.9)"/><path d="M196.8,654.5l2.3,3.8-1.5.8-1.7-4Z" transform="translate(-5.2 -2.9)"/><path d="M157,494.9l-1.3-3.8,1.4-.4.9,3.9Z" transform="translate(-5.2 -2.9)"/><path d="M73,659.7l-2.6,1.8a9.3,9.3,0,0,1-.7-1.4l2.4-1.8Z" transform="translate(-5.2 -2.9)"/><path d="M117.2,374.4l-2.4-3.2,1.2-1,2.7,2.8Z" transform="translate(-5.2 -2.9)"/><path d="M525.5,197.1l2.9-2.3,1.1,1.1-2.5,2.7Z" transform="translate(-5.2 -2.9)"/><path d="M100.7,131.1l3.1,1.6-.6,1.2-3.1-1.5Z" transform="translate(-5.2 -2.9)"/><path d="M308.7,195.8l1.2,3.3-1.4.5-1.4-3.2Z" transform="translate(-5.2 -2.9)"/><path d="M809.3,331.6l-3.1,2.5-.8-1,3.2-2.6Z" transform="translate(-5.2 -2.9)"/><path d="M412.8,817.9l5.7,6.3h-6.9Z" transform="translate(-5.2 -2.9)"/><path d="M447.1,853.9c-2.7,3.2-2.7,3.2-5.1,0Z" transform="translate(-5.2 -2.9)"/><path d="M544.2,237.7,541,239l-.7-1.4,3-1.6Z" transform="translate(-5.2 -2.9)"/></svg>