<svg xmlns="http://www.w3.org/2000/svg">
   
  <symbol id="geo" viewBox="0 0 32 32">
    <title>geolacation</title>
    <path d="M15.8,0c-5.2,0-9.3,4.2-9.3,9.3c0,5.2,9.3,22.7,9.3,22.7s9.3-17.5,9.3-22.7C25.1,4.2,20.9,0,15.8,0z M15.8,14.2
	  c-2.9,0-5.2-2.3-5.2-5.2s2.3-5.2,5.2-5.2S21,6.2,21,9S18.6,14.2,15.8,14.2z"/>
  </symbol>

  <symbol id="tel" viewBox="0 0 32 32">
    <title>telephone</title>
    <path d="M7.7,3.3l4.3,7.5c0,0-3.1,2.4,0.3,8.2s6.7,3.8,6.7,3.8l4.4,7.4c0,0-0.6,0.4-1.4,0.8S16,33.7,8.4,21
		C0.9,8,5.3,4.8,6.4,4.1C7,3.7,7.7,3.3,7.7,3.3z"/>
	  <path d="M16.2,9.3l-2.5,1.5c-0.4,0.2-0.9,0.1-1.1-0.3L8.3,3.1C8.1,2.7,8.2,2.2,8.6,2l2.5-1.5c0.4-0.2,0.9-0.1,1.1,0.3
		l4.2,7.3C16.7,8.5,16.6,9,16.2,9.3z"/>
	  <path d="M27.5,28.7l-2.5,1.5c-0.4,0.2-0.9,0.1-1.1-0.3l-4.2-7.3c-0.2-0.4-0.1-0.9,0.3-1.1l2.5-1.5
		c0.4-0.2,0.9-0.1,1.1,0.3l4.2,7.3C28,27.9,27.8,28.4,27.5,28.7z"/>
  </symbol>
  
  <symbol id="facebook" viewBox="0 0 32 32">
    <title>facebook</title>
    <path d="M18.4,7.9v3.9h5.7l0,0.4l-0.7,5.2h-5V32h-5.8V17.4h-5v-5.6h5V7c0-3.6,2.7-6.9,6.4-7c2.5,0,5.3,0.3,5.3,0.3v5h-3
	  c-0.4,0-0.7,0-1.1,0.2C19.1,5.8,18.4,6.7,18.4,7.9C18.4,7.9,18.4,7.9,18.4,7.9z"/>
  </symbol>

	<symbol id="telegram" viewBox="0 0 32 32">
    <title>telegram</title>
    <polygon points="0.1,13 31.9,4.9 14.1,27.1 10.8,23.7 7.9,26.7 8,19.7 29.6,6.4 5.6,18.5 "/>
  </symbol>

  <symbol id="vk" viewBox="0 0 32 32">
    <title>vkontakte</title>
		<path d="M17.3,25c-1.2,0-1,0-3.1,0C6.9,24.7,0.2,8.9,0.2,8.9S-0.1,8,1,7.8s5,0,5,0s0.9,0,1.2,0.9
		c2.2,4.8,3.6,6.3,4.2,6.7c0.3,0.2,0.7,0.2,0.9-0.2c0.2-0.3,0.4-1,0.4-2.2c0-0.8-0.2-3.2-0.2-3.2s-0.1-1.3-1.9-1.5
		c-0.1-0.6,0.4-1,0.9-1.2C12,7.1,12.4,7,12.8,7h4.5c0,0,1.5,0,1.6,1.7c0,0.9,0,5.3,0,5.3s0,0.8,0.3,1.3c0.2,0.2,0.5,0.3,0.7,0.2
		c1.5-0.8,3.7-5.5,4.3-6.9c0.2-0.4,0.5-0.6,0.9-0.7c0.2,0,0.5-0.1,0.8-0.1c0.9,0,3.3,0,4.8,0c0.8,0,1.1,0.4,1.1,0.9
		c0,0.3,0,0.7-0.2,0.9c-0.3,0.5-0.9,1.6-1.7,2.7L27.1,16c0,0,0,0,0,0c-0.1,0.1-1,1.2,0.1,2.1c1.2,1,4,4,4.4,4.7
		c0.2,0.3,0.2,0.7,0.2,1c0,0.4-0.3,0.7-0.7,0.8c-0.3,0.1-0.8,0.2-1.5,0.2c-1.4,0.1-2.9,0.2-4,0.2c-1.2,0-2.6-1.5-2.6-1.5l-1.9-2.1
		c-0.2-0.2-0.5-0.4-0.8-0.5c-0.4-0.1-1-0.1-1.2,0.9C19,22.3,18.7,24,18.7,24S18.5,25,17.3,25z"/>
  </symbol>

  <symbol id="instagram" viewBox="0 0 32 32">
    <title>instagram</title>
		<path d="M26.5,0h-21C2.5,0,0,2.5,0,5.5v21c0,3,2.5,5.5,5.5,5.5h21c3.1,0,5.5-2.5,5.5-5.5v-21C32,2.5,29.5,0,26.5,0z M25.3,4
		C26.8,4,28,5.2,28,6.8c0,1.5-1.2,2.8-2.8,2.8s-2.8-1.2-2.8-2.8C22.5,5.2,23.7,4,25.3,4z M9.5,14c0.9-2.8,3.4-4.8,6.5-4.8
		s5.6,2,6.5,4.8c0.2,0.6,0.3,1.3,0.3,2c0,3.7-3,6.8-6.8,6.8s-6.8-3-6.8-6.8C9.3,15.3,9.4,14.6,9.5,14z M29,26.5
		c0,1.4-1.1,2.5-2.5,2.5h-21C4.1,29,3,27.9,3,26.5V16h4.3c0,4.8,3.9,8.8,8.8,8.8s8.8-3.9,8.8-8.8H29V26.5z"/>
  </symbol>
  
  <symbol id="twitter" viewBox="0 0 32 32">
    <title>twitter</title>
    <path d="M15.7,11c-7.7,0-13.5-6.7-13.5-6.7c0,0-2.9,4.9,1.9,8.6c-0.8,0.1-2.7-0.6-2.7-0.6S0.9,17,6.5,18.7
		c-0.8,0.1-2.9,0.1-2.9,0.1s1.4,4.3,6,4.6C6.6,26.4,0,26.1,0,26.1s5.6,3.1,10,2.9C29.3,28,28.8,9.5,28.8,9.5s1.7-1.2,3.1-3.2
		c-1.6,0.4-3.2,0.9-3.5,0.7c2.1-1.6,2.6-3.4,2.6-3.4s-3.4,1.6-4,1.5C23,1.1,18.7,4,18.7,4S14.8,6.4,15.7,11z"/>
  </symbol>

  <symbol id="youtube" viewBox="0 0 32 32">
    <title>youtube</title>
		<path d="M31.7,16.2c0,0,0-0.1,0-0.2l0,0v0c0,0,0-0.1,0-0.1v-0.2c0-9.4-1.7-10.2-5-10.4c0,0,0,0,0,0c0,0,0,0,0,0S22,5,16,5
		c0,0,0,0,0,0C10.1,5,5.3,5.3,5.3,5.3s0,0,0,0c0,0,0,0,0,0c-3.2,0.2-5,1-5,10.4c0,0,0,0.1,0,0.2l0,0v0c0,0,0,0.1,0,0.1v0.2
		c0,9.4,1.7,10.3,4.9,10.5c0,0,0,0,0,0c0,0,0,0,0,0S10.1,27,16,27c0,0,0,0,0,0c5.9,0,10.7-0.4,10.7-0.4s0,0,0,0c0,0,0,0,0,0
		C30,26.4,31.7,25.6,31.7,16.2z M5.9,26.7C6,26.7,6,26.7,5.9,26.7C6,26.7,5.9,26.7,5.9,26.7z M12.9,20.2v-8.8l8.3,4.3L12.9,20.2z
		M26,5.3C26,5.3,26,5.3,26,5.3C26,5.3,26,5.3,26,5.3z"/>
  </symbol>

	  <symbol id="mail" viewBox="0 0 32 32">
    <title>e-mail</title>
		<path d="M30.1,5.2H1.7l13.8,11.5c0.3,0.3,0.8,0.3,1.1,0L30.1,5.2z"/>
		<polygon points="10.9,15.8 0,6.7 0,25.1 	"/>
		<polygon points="21.1,15.7 32,25.1 32,6.5 	"/>
		<path d="M19.4,17.2l-2.5,2.1c-0.2,0.2-0.5,0.3-0.8,0.3c-0.3,0-0.6-0.1-0.8-0.3l-2.5-2.1L1.6,26.8h28.9L19.4,17.2z"/>
  </symbol>

</svg>