<svg id="icon" data-name="Layer 1" xmlns="http://www.w3.org/2000/svg" viewBox="0 0 35.7 36.1">
  <title>inst</title>
  <g>
    <path d="M107.2,94.3a8.3,8.3,0,0,1,1.8,5.3,9.2,9.2,0,0,1-18.4,0,8.3,8.3,0,0,1,1.8-5.3H81.9v15.9a7.1,7.1,0,0,0,6.9,7.1h21.8a7,7,0,0,0,6.9-7.1V94.3Z" transform="translate(-81.9 -81.2)"/>
    <path d="M110.7,81.3H91.2v9.3H90V81.2h-.9v9.4H87.5V81.3l-.9.4v8.9H85.3V82.5a6.7,6.7,0,0,0-3.4,5.8v5.1H93.1a9.2,9.2,0,0,1,13.3,0h11.2V88.3A6.8,6.8,0,0,0,110.7,81.3Zm3.8,8.2a1.1,1.1,0,0,1-1.1,1.1h-3.8a1.1,1.1,0,0,1-1.1-1.1V85.8a1.1,1.1,0,0,1,1.1-1.1h3.8a1.1,1.1,0,0,1,1.1,1.1Z" transform="translate(-81.9 -81.2)"/>
    <path d="M99.8,106.1a6.5,6.5,0,1,1,6.5-6.5A6.5,6.5,0,0,1,99.8,106.1Zm0-11.1a4.6,4.6,0,1,0,4.6,4.6A4.6,4.6,0,0,0,99.8,95Z" transform="translate(-81.9 -81.2)"/>
  </g>
</svg>
