<?xml version="1.0" encoding="utf-8"?>
<!-- Generator: Adobe Illustrator 22.0.1, SVG Export Plug-In . SVG Version: 6.00 Build 0)  -->
<svg version="1.1" id="Слой_1" xmlns="http://www.w3.org/2000/svg" xmlns:xlink="http://www.w3.org/1999/xlink" x="0px" y="0px"
	 viewBox="0 0 32 32" style="enable-background:new 0 0 32 32;" xml:space="preserve">
<path d="M26.5,0h-21C2.5,0,0,2.5,0,5.5v21c0,3,2.5,5.5,5.5,5.5h21c3.1,0,5.5-2.5,5.5-5.5v-21C32,2.5,29.5,0,26.5,0z M25.3,4
	C26.8,4,28,5.2,28,6.8c0,1.5-1.2,2.8-2.8,2.8s-2.8-1.2-2.8-2.8C22.5,5.2,23.7,4,25.3,4z M9.5,14c0.9-2.8,3.4-4.8,6.5-4.8
	s5.6,2,6.5,4.8c0.2,0.6,0.3,1.3,0.3,2c0,3.7-3,6.8-6.8,6.8s-6.8-3-6.8-6.8C9.3,15.3,9.4,14.6,9.5,14z M29,26.5
	c0,1.4-1.1,2.5-2.5,2.5h-21C4.1,29,3,27.9,3,26.5V16h4.3c0,4.8,3.9,8.8,8.8,8.8s8.8-3.9,8.8-8.8H29V26.5z"/>
</svg>
