<svg id="icon" data-name="Layer 1" xmlns="http://www.w3.org/2000/svg" viewBox="0 0 39.9 28">
  <title>youtube</title>
  <g>
    <path d="M120,99.9s0-.1,0-.2h0v-.3c0-11.9-2.2-13-6.3-13.2h0s-6.1-.3-13.6-.3h0c-7.6,0-13.7.4-13.7.4h0c-4.1.3-6.3,1.3-6.3,13.3a.8.8,0,0,1,0,.2h0v.3c0,11.9,2.1,13.1,6.3,13.3h0s6.1.3,13.7.3h0c7.6,0,13.7-.5,13.7-.5h0C117.9,112.9,120,111.8,120,99.9ZM87.2,113.2h0Zm8.9-8.3V93.8l10.5,5.5Zm16.7-19h0Z" transform="translate(-80.1 -85.6)"/>
    <path d="M86.4,113.2h0Z" transform="translate(-80.1 -85.6)"/>
  </g>
</svg>
